<svg width="397" height="262" viewBox="0 0 397 262" fill="none" xmlns="http://www.w3.org/2000/svg">
<rect x="1" y="1" width="395" height="260" rx="8" fill="white" stroke="#E9E9E9" stroke-width="2"/>
<line x1="8.46353e-08" y1="37.7712" x2="397" y2="37.7713" stroke="#E9E9E9" stroke-width="2"/>
<line x1="67.3281" y1="150.561" x2="146.264" y2="150.561" stroke="#E9E9E9" stroke-width="2"/>
<line x1="66.8438" y1="171.93" x2="175.783" y2="171.93" stroke="#E9E9E9" stroke-width="2"/>
<line x1="66.8438" y1="192.084" x2="185.211" y2="192.084" stroke="#E9E9E9" stroke-width="2"/>
<line x1="66.8418" y1="212.742" x2="204.067" y2="212.742" stroke="#E9E9E9" stroke-width="2"/>
<line x1="66.166" y1="232.803" x2="203.392" y2="232.803" stroke="#E9E9E9" stroke-width="2"/>
<line x1="185.73" y1="150.561" x2="334.315" y2="150.561" stroke="#E9E9E9" stroke-width="2"/>
<line x1="203.143" y1="171.708" x2="334.315" y2="171.708" stroke="#E9E9E9" stroke-width="2"/>
<line x1="218.234" y1="191.682" x2="334.316" y2="191.682" stroke="#E9E9E9" stroke-width="2"/>
<line x1="239" y1="213" x2="334" y2="213" stroke="#E9E9E9" stroke-width="2"/>
<line x1="239" y1="233" x2="334" y2="233" stroke="#E9E9E9" stroke-width="2"/>
<rect x="62.6836" y="44.6458" width="271.632" height="78.7175" fill="#E7E7E7"/>
<rect x="102.312" y="10.3992" width="220.556" height="17.6233" fill="#E9E9E9"/>
<path d="M107.838 23V15.2998H108.38V18.8105C108.707 18.0635 109.527 17.6777 110.309 17.6777C111.593 17.6777 112.198 18.5176 112.198 19.7383V23H111.656V19.792C111.656 18.7861 111.197 18.1416 110.143 18.1416C109.146 18.1416 108.38 18.8398 108.38 19.8506V23H107.838ZM115.982 22.5117V22.9609C115.753 23.0391 115.509 23.0781 115.265 23.0781C114.381 23.0781 113.976 22.5508 113.976 21.7012L113.985 18.1904H113.214V17.7705H113.985V16.5938L114.522 16.3594V17.7705H115.924V18.1904H114.522V21.6621C114.522 22.209 114.747 22.6191 115.372 22.6191C115.562 22.6191 115.777 22.5801 115.982 22.5117ZM119.43 22.5117V22.9609C119.2 23.0391 118.956 23.0781 118.712 23.0781C117.828 23.0781 117.423 22.5508 117.423 21.7012L117.433 18.1904H116.661V17.7705H117.433V16.5938L117.97 16.3594V17.7705H119.371V18.1904H117.97V21.6621C117.97 22.209 118.194 22.6191 118.819 22.6191C119.01 22.6191 119.225 22.5801 119.43 22.5117ZM120.66 24.9482V17.7705H121.197V19.0205C121.573 18.21 122.442 17.6777 123.365 17.6777C124.806 17.6777 125.68 18.9717 125.68 20.3438C125.68 21.7793 124.898 23.0879 123.351 23.0879C122.433 23.0879 121.559 22.6289 121.197 21.7744V24.9482H120.66ZM123.204 22.6338C124.479 22.6338 125.128 21.5889 125.128 20.3975C125.128 19.2354 124.508 18.1318 123.224 18.1318C121.964 18.1318 121.197 19.1914 121.197 20.3975C121.197 21.5645 121.91 22.6338 123.204 22.6338ZM126.49 21.6523L126.9 21.4717C127.11 22.3164 127.711 22.6777 128.551 22.6777C129.215 22.6777 129.908 22.3799 129.908 21.5791C129.908 20.7686 129.19 20.6416 128.429 20.5049C127.574 20.3535 126.671 20.1875 126.671 19.04C126.671 18.127 127.657 17.6924 128.448 17.6924C129.317 17.6924 129.986 18.0439 130.299 18.8887L129.889 19.0791C129.654 18.3857 129.176 18.0977 128.458 18.0977C127.867 18.0977 127.179 18.3662 127.179 19.1035C127.179 19.8408 127.867 19.9629 128.609 20.0898C129.488 20.2412 130.44 20.4072 130.44 21.6182C130.44 22.6436 129.444 23.0977 128.551 23.0977C127.535 23.0977 126.788 22.6533 126.49 21.6523ZM131.798 18.2295C131.798 18.0195 131.979 17.8389 132.188 17.8389C132.408 17.8389 132.589 18 132.589 18.2295C132.589 18.4492 132.408 18.6201 132.188 18.6201C131.979 18.6201 131.798 18.4395 131.798 18.2295ZM132.188 23.0586C131.979 23.0586 131.798 22.8779 131.798 22.6631C131.798 22.4531 131.979 22.2773 132.188 22.2773C132.403 22.2773 132.589 22.4434 132.589 22.6631C132.589 22.8926 132.408 23.0586 132.188 23.0586ZM133.966 24.4795L136.915 15.2412H137.403L134.454 24.4795H133.966ZM138.097 24.4795L141.046 15.2412H141.534L138.585 24.4795H138.097ZM143.956 23L142.325 17.7705H142.896L144.308 22.3506L145.787 17.7705H146.236L147.677 22.3506L149.205 17.7705H149.728L147.979 23H147.389L145.997 18.5811L144.557 23H143.956ZM152.003 23L150.372 17.7705H150.943L152.354 22.3506L153.834 17.7705H154.283L155.724 22.3506L157.252 17.7705H157.774L156.026 23H155.436L154.044 18.5811L152.604 23H152.003ZM160.05 23L158.419 17.7705H158.99L160.401 22.3506L161.881 17.7705H162.33L163.771 22.3506L165.299 17.7705H165.821L164.073 23H163.482L162.091 18.5811L160.65 23H160.05ZM167.091 23.0586C166.876 23.0586 166.69 22.8877 166.69 22.668C166.69 22.4385 166.871 22.2822 167.091 22.2822C167.301 22.2822 167.472 22.458 167.472 22.668C167.472 22.8828 167.306 23.0586 167.091 23.0586ZM169.322 24.9482L170.304 22.5801L168.302 17.7705H168.893L170.582 21.9795L172.281 17.7705H172.833L169.864 24.9482H169.322ZM176.021 23.0879C174.503 23.0879 173.463 21.8867 173.463 20.3926C173.463 18.9229 174.474 17.6924 176.026 17.6924C177.54 17.6924 178.551 18.8691 178.551 20.3682C178.551 21.8477 177.564 23.0879 176.021 23.0879ZM176.012 22.6387C177.281 22.6387 177.994 21.6035 177.994 20.3779C177.994 19.2012 177.335 18.1318 176.026 18.1318C174.757 18.1318 174.02 19.1523 174.02 20.373C174.02 21.5547 174.708 22.6387 176.012 22.6387ZM183.521 23V21.9893C183.209 22.7363 182.408 23.0879 181.637 23.0879C180.357 23.0879 179.742 22.3359 179.742 21.0908V17.7705H180.289V21.0322C180.289 22.0332 180.763 22.6289 181.793 22.6289C182.779 22.6289 183.521 21.9307 183.521 20.9297V17.7705H184.068V23H183.521ZM185.68 23V17.7705H186.217V18.9521C186.534 18.166 187.174 17.7363 188.019 17.7217V18.2197C186.876 18.2588 186.217 19.0107 186.217 20.1387V23H185.68ZM189.259 20.4414V19.9678H191.441V20.4414H189.259ZM194.22 23L192.589 17.7705H193.16L194.571 22.3506L196.051 17.7705H196.5L197.94 22.3506L199.469 17.7705H199.991L198.243 23H197.652L196.261 18.5811L194.82 23H194.22ZM204.786 21.5498L205.187 21.7207C204.811 22.6777 203.966 23.0879 203.004 23.0879C201.397 23.0879 200.484 21.9404 200.484 20.4414C200.484 18.9668 201.368 17.6777 202.97 17.6777C204.464 17.6777 205.226 18.8057 205.226 20.251V20.4219H201.046C201.056 21.667 201.627 22.6484 202.984 22.6484C203.766 22.6484 204.503 22.3262 204.786 21.5498ZM201.056 20.0312H204.693C204.669 18.9229 204.107 18.0977 202.96 18.0977C201.793 18.0977 201.119 18.957 201.056 20.0312ZM206.461 23V15.2998H206.998V19.0498C207.354 18.2197 208.238 17.6777 209.171 17.6777C210.606 17.6777 211.48 18.9717 211.48 20.3438C211.48 21.7793 210.699 23.0879 209.146 23.0879C208.219 23.0879 207.35 22.6191 206.998 21.7451V23H206.461ZM209.01 22.6338C210.279 22.6338 210.929 21.5889 210.929 20.3975C210.929 19.2354 210.309 18.1318 209.024 18.1318C207.765 18.1318 206.998 19.1914 206.998 20.3926C206.998 21.5596 207.721 22.6338 209.01 22.6338ZM212.291 21.6523L212.701 21.4717C212.911 22.3164 213.512 22.6777 214.352 22.6777C215.016 22.6777 215.709 22.3799 215.709 21.5791C215.709 20.7686 214.991 20.6416 214.229 20.5049C213.375 20.3535 212.472 20.1875 212.472 19.04C212.472 18.127 213.458 17.6924 214.249 17.6924C215.118 17.6924 215.787 18.0439 216.1 18.8887L215.689 19.0791C215.455 18.3857 214.977 18.0977 214.259 18.0977C213.668 18.0977 212.979 18.3662 212.979 19.1035C212.979 19.8408 213.668 19.9629 214.41 20.0898C215.289 20.2412 216.241 20.4072 216.241 21.6182C216.241 22.6436 215.245 23.0977 214.352 23.0977C213.336 23.0977 212.589 22.6533 212.291 21.6523ZM217.394 16.3594C217.394 16.1592 217.569 16.0078 217.765 16.0078C217.96 16.0078 218.126 16.1592 218.126 16.3594C218.126 16.5693 217.975 16.7207 217.765 16.7207C217.574 16.7207 217.394 16.5547 217.394 16.3594ZM217.496 23V17.7705H218.048V23H217.496ZM221.9 22.5117V22.9609C221.671 23.0391 221.427 23.0781 221.183 23.0781C220.299 23.0781 219.894 22.5508 219.894 21.7012L219.903 18.1904H219.132V17.7705H219.903V16.5938L220.44 16.3594V17.7705H221.842V18.1904H220.44V21.6621C220.44 22.209 220.665 22.6191 221.29 22.6191C221.48 22.6191 221.695 22.5801 221.9 22.5117ZM226.856 21.5498L227.257 21.7207C226.881 22.6777 226.036 23.0879 225.074 23.0879C223.468 23.0879 222.555 21.9404 222.555 20.4414C222.555 18.9668 223.438 17.6777 225.04 17.6777C226.534 17.6777 227.296 18.8057 227.296 20.251V20.4219H223.116C223.126 21.667 223.697 22.6484 225.055 22.6484C225.836 22.6484 226.573 22.3262 226.856 21.5498ZM223.126 20.0312H226.764C226.739 18.9229 226.178 18.0977 225.03 18.0977C223.863 18.0977 223.189 18.957 223.126 20.0312ZM228.995 23.0586C228.78 23.0586 228.595 22.8877 228.595 22.668C228.595 22.4385 228.775 22.2822 228.995 22.2822C229.205 22.2822 229.376 22.458 229.376 22.668C229.376 22.8828 229.21 23.0586 228.995 23.0586ZM234.913 21.2031L235.333 21.3936C235.021 22.458 234.181 23.0879 233.072 23.0879C231.544 23.0879 230.572 21.8916 230.572 20.3926C230.572 18.9229 231.505 17.6777 233.082 17.6777C234.127 17.6777 234.928 18.2246 235.265 19.2207L234.811 19.4209C234.591 18.5762 233.966 18.1318 233.121 18.1318C231.827 18.1318 231.124 19.167 231.124 20.3779C231.124 21.5547 231.783 22.6338 233.077 22.6338C234.005 22.6338 234.684 22.082 234.913 21.2031ZM238.727 23.0879C237.208 23.0879 236.168 21.8867 236.168 20.3926C236.168 18.9229 237.179 17.6924 238.731 17.6924C240.245 17.6924 241.256 18.8691 241.256 20.3682C241.256 21.8477 240.27 23.0879 238.727 23.0879ZM238.717 22.6387C239.986 22.6387 240.699 21.6035 240.699 20.3779C240.699 19.2012 240.04 18.1318 238.731 18.1318C237.462 18.1318 236.725 19.1523 236.725 20.373C236.725 21.5547 237.413 22.6387 238.717 22.6387ZM242.496 23V17.7705H243.038V18.8301C243.336 18.1123 244.098 17.6924 244.854 17.6924C245.67 17.6924 246.305 18.0684 246.485 18.8984C246.832 18.1367 247.594 17.6777 248.424 17.6777C249.679 17.6777 250.196 18.5273 250.196 19.6895V23H249.654V19.748C249.654 18.8203 249.269 18.1709 248.268 18.1709C247.315 18.1709 246.598 18.9277 246.598 19.8701V23H246.056V19.748C246.056 18.8203 245.68 18.1709 244.679 18.1709C243.717 18.1709 243.038 18.9277 243.038 19.8701V23H242.496Z" fill="black"/>
<circle cx="26.2783" cy="19.2109" r="8.75874" fill="#D9D9D9"/>
<circle cx="52.9775" cy="19.2109" r="8.75874" fill="#D9D9D9"/>
<circle cx="79.6767" cy="19.2109" r="8.75874" fill="#D9D9D9"/>
<path d="M365.151 22.6995L368.635 16.8088L365.401 11.262H369.549L371.151 14.4729L372.713 11.262H376.432L373.44 16.6838L376.94 22.6995H372.815L370.846 18.9417L368.877 22.6995H365.151Z" fill="#E9E9E9"/>
<path d="M337.254 19.1688C337.254 21.1754 338.051 23.0998 339.47 24.5186C340.889 25.9375 342.813 26.7346 344.82 26.7346C346.829 26.7346 348.754 25.9444 350.2 24.5489L348.939 23.288C348.41 23.8484 347.771 24.2943 347.062 24.598C346.354 24.9016 345.591 25.0566 344.82 25.0533C339.574 25.0533 336.951 18.7149 340.659 15.0076C344.366 11.3004 350.704 13.9316 350.704 19.1688H348.182L351.545 22.5314H351.629L354.907 19.1688H352.385C352.385 17.1622 351.588 15.2379 350.169 13.819C348.751 12.4001 346.826 11.603 344.82 11.603C342.813 11.603 340.889 12.4001 339.47 13.819C338.051 15.2379 337.254 17.1622 337.254 19.1688Z" fill="#E9E9E9"/>
</svg>
