<svg width="130" height="130" viewBox="0 0 130 130" fill="none" xmlns="http://www.w3.org/2000/svg">
<circle cx="65" cy="65" r="64" fill="white" stroke="#E5E3F3" stroke-width="2"/>
<path d="M67.105 40.4984L67.0665 40.4726L63.6681 38.1885C61.3353 36.6195 58.5526 35.8584 55.7461 36.0217C52.9395 36.185 50.2639 37.2638 48.1288 39.0927L39.785 46.2452C39.2022 46.7436 38.4605 47.0172 37.6937 47.0166H28.2141C27.3617 47.0166 26.5442 47.3552 25.9414 47.958C25.3386 48.5608 25 49.3783 25 50.2307V76.0723C25 77.8465 26.4399 79.2864 28.2141 79.2864H37.1622C37.6186 79.2862 38.0699 79.3831 38.4859 79.5708C38.9019 79.7585 39.2732 80.0326 39.575 80.3749L49.5988 91.7744C51.1592 93.5479 53.3164 94.6869 55.661 94.9752C58.0056 95.2635 60.3745 94.6812 62.3181 93.3386L65.2494 91.3115L68.395 92.3829C70.3388 93.0421 72.4422 93.0638 74.3992 92.4448C76.3562 91.8259 78.0646 90.5987 79.2759 88.9417L81.29 86.1904L82.6871 86.3789C84.622 86.6396 86.5905 86.3068 88.3321 85.4245C90.0737 84.5422 91.5065 83.152 92.4409 81.4377L92.6509 81.0521H107.496C108.348 81.0521 109.166 80.7134 109.769 80.1107C110.371 79.5079 110.71 78.6904 110.71 77.8379V50.235C110.71 49.3826 110.371 48.5651 109.769 47.9623C109.166 47.3595 108.348 47.0209 107.496 47.0209H98.0206C97.2498 47.0211 96.5045 46.7443 95.9207 46.2409L88.6825 39.9884C85.6633 37.3795 81.7815 35.9871 77.7924 36.0822C73.8033 36.1772 69.9923 37.7529 67.1008 40.5026M60.0725 43.5239L62.481 45.1438L54.0814 53.5906C53.1762 54.501 52.4618 55.583 51.9803 56.7731C51.4988 57.9633 51.2599 59.2376 51.2774 60.5213C51.295 61.805 51.5687 63.0723 52.0826 64.2489C52.5965 65.4254 53.3402 66.4874 54.27 67.3727L54.5614 67.647C58.0326 70.9511 63.3981 71.2083 67.165 68.247L76.0746 61.253L87.4612 72.2025C87.9699 72.691 88.3038 73.3332 88.4114 74.0302C88.5191 74.7272 88.3945 75.4403 88.0569 76.0594L87.9497 76.248L87.8897 76.3594L86.7969 78.3608C86.4854 78.9314 86.0082 79.3942 85.4282 79.688C84.8483 79.9818 84.1929 80.0928 83.5485 80.0064L80.253 79.565C79.6803 79.4879 79.0974 79.5667 78.5658 79.7929C78.0341 80.0191 77.5732 80.3846 77.2317 80.8506L74.0861 85.1447C73.6826 85.697 73.1135 86.1062 72.4614 86.3127C71.8094 86.5193 71.1085 86.5125 70.4606 86.2932L65.7894 84.7076C65.3142 84.5459 64.8078 84.4977 64.3107 84.5669C63.8136 84.6361 63.3396 84.8208 62.9267 85.1061L58.6669 88.0503C58.0186 88.4984 57.2282 88.6928 56.446 88.5964C55.6638 88.5 54.9443 88.1196 54.4242 87.5275L44.4005 76.128C43.4949 75.0997 42.3806 74.2762 41.1317 73.7123C39.8829 73.1485 38.5282 72.8573 37.158 72.8582H31.4283V53.4449H37.6894C39.9903 53.4454 42.2156 52.623 43.9633 51.1264L52.3115 43.9739C53.3788 43.0591 54.7165 42.5194 56.1197 42.4373C57.523 42.3553 58.9145 42.7354 60.0811 43.5196M94.8794 74.6281C94.8949 73.3114 94.6405 72.0054 94.1319 70.7908C93.6234 69.5761 92.8714 68.4785 91.9224 67.5656L81.1186 57.1775C81.6035 56.5593 81.8452 55.785 81.798 55.0007C81.7508 54.2165 81.4179 53.4767 80.8624 52.9211C80.3068 52.3656 79.567 52.0328 78.7828 51.9855C77.9986 51.9383 77.2242 52.18 76.606 52.6649L74.4375 54.3662L74.1804 54.5677L63.2009 63.1944C62.5931 63.672 61.8335 63.9145 61.0614 63.8775C60.2892 63.8405 59.5563 63.5265 58.9969 62.993L58.7055 62.7144C58.3954 62.4194 58.1474 62.0655 57.976 61.6733C57.8046 61.2812 57.7132 60.8588 57.7072 60.4309C57.7012 60.003 57.7808 59.5782 57.9411 59.1814C58.1015 58.7846 58.3395 58.4239 58.6412 58.1203L71.3477 45.3495C73.0685 43.6196 75.3811 42.6063 77.8195 42.514C80.2578 42.4218 82.6404 43.2574 84.487 44.8524L91.7167 51.1007C93.4697 52.6143 95.7089 53.4464 98.0249 53.4449H104.282V74.6281H94.8794Z" fill="url(#paint0_linear_2148_274)"/>
<defs>
<linearGradient id="paint0_linear_2148_274" x1="22.6379" y1="33.5397" x2="82.9308" y2="58.2245" gradientUnits="userSpaceOnUse">
<stop stop-color="#221769"/>
<stop offset="1" stop-color="#432DCF"/>
</linearGradient>
</defs>
</svg>
