<svg width="130" height="130" viewBox="0 0 130 130" fill="none" xmlns="http://www.w3.org/2000/svg">
<circle cx="65" cy="65" r="64" fill="white" stroke="#E5E3F3" stroke-width="2"/>
<path d="M100.048 91.7458C105.117 85.1075 108.2 77.1685 108.941 68.8491C109.681 60.5297 108.049 52.1708 104.232 44.7415C100.416 37.3123 94.5715 31.1169 87.3773 26.8738C80.1832 22.6307 71.9336 20.5136 63.5852 20.768C55.2369 21.0224 47.1316 23.638 40.2091 28.3113C33.2867 32.9846 27.8306 39.5244 24.4736 47.1723C21.1166 54.8202 19.996 63.263 21.2419 71.5219C22.4878 79.7807 26.0491 87.5172 31.5128 93.8345L36.4638 89.5524C31.8095 84.1711 28.7758 77.5807 27.7145 70.5455C26.6532 63.5102 27.6077 56.3182 30.4674 49.8033C33.3271 43.2884 37.9748 37.7175 43.8717 33.7365C49.7686 29.7556 56.6731 27.5275 63.7846 27.3108C70.8962 27.0941 77.9236 28.8975 84.0519 32.512C90.1803 36.1265 95.1586 41.404 98.4098 47.7326C101.661 54.0613 103.052 61.1818 102.421 68.2687C101.79 75.3555 99.1631 82.1184 94.8451 87.7732L100.048 91.7458Z" fill="url(#paint0_linear_2148_275)"/>
<path d="M109.007 61.8468C108.286 51.5386 103.975 41.8094 96.8228 34.3509L92.0981 38.8814C98.1904 45.2349 101.863 53.5227 102.478 62.3037L109.007 61.8468Z" fill="white"/>
<path d="M108.275 45.9906L102.464 40.3629L74.3672 71.5724C71.8774 70.1256 69.043 69.3785 66.1636 69.4101C62.9635 69.4614 59.8506 70.4606 57.2184 72.2812C54.5862 74.1018 52.5529 76.662 51.3758 79.6381C50.1987 82.6143 49.9305 85.8726 50.6052 89.0012C51.2799 92.1297 52.8672 94.9879 55.1663 97.2144C57.4654 99.4408 60.3731 100.936 63.5217 101.509C66.6703 102.083 69.9184 101.711 72.8552 100.439C75.792 99.1665 78.2856 97.0521 80.0207 94.3628C81.7559 91.6735 82.6546 88.5301 82.6032 85.33C82.543 82.4497 81.7052 79.6392 80.1785 77.1961L108.275 45.9906ZM66.5533 93.6797C64.9533 93.7054 63.3816 93.2561 62.0369 92.3885C60.6923 91.5209 59.6351 90.2741 58.999 88.8057C58.363 87.3373 58.1767 85.7133 58.4636 84.139C58.7506 82.5647 59.4979 81.1108 60.6111 79.9613C61.7244 78.8117 63.1535 78.0181 64.7177 77.6807C66.282 77.3434 67.9112 77.4775 69.3993 78.066C70.8873 78.6546 72.1674 79.6712 73.0777 80.9873C73.988 82.3034 74.4876 83.8599 74.5133 85.4599C74.5477 87.6055 73.7285 89.6769 72.2357 91.2184C70.7429 92.7599 68.6989 93.6453 66.5533 93.6797Z" fill="url(#paint1_linear_2148_275)"/>
<defs>
<linearGradient id="paint0_linear_2148_275" x1="56.9284" y1="-1.40435" x2="98.8555" y2="54.4707" gradientUnits="userSpaceOnUse">
<stop stop-color="#221769"/>
<stop offset="1" stop-color="#432DCF"/>
</linearGradient>
<linearGradient id="paint1_linear_2148_275" x1="47.8696" y1="38.7049" x2="92.9243" y2="50.1878" gradientUnits="userSpaceOnUse">
<stop stop-color="#221769"/>
<stop offset="1" stop-color="#432DCF"/>
</linearGradient>
</defs>
</svg>
