<svg width="130" height="130" viewBox="0 0 130 130" fill="none" xmlns="http://www.w3.org/2000/svg">
<circle cx="65" cy="65" r="64" fill="white" stroke="#E5E3F3" stroke-width="2"/>
<path d="M49.1152 71.1107L49.6828 69.4553L48.2075 68.9495L47.5358 70.357L49.1152 71.1107ZM59 74.5001L58.4324 76.1555L59.7473 76.6063L60.484 75.4276L59 74.5001ZM69.0005 58.5003L69.5829 56.8501L68.2601 56.3832L67.5165 57.5728L69.0005 58.5003ZM77.5 61.5001L76.9176 63.1503L78.1506 63.5855L78.9175 62.5264L77.5 61.5001ZM93.7577 41.157C93.605 40.2027 92.7075 39.5529 91.7531 39.7056L76.201 42.1946C75.2467 42.3473 74.5969 43.2448 74.7496 44.1991C74.9023 45.1535 75.7998 45.8033 76.7542 45.6506L90.5782 43.4382L92.7907 57.2622C92.9434 58.2166 93.8409 58.8664 94.7952 58.7137C95.7496 58.561 96.3994 57.6635 96.2467 56.7091L93.7577 41.157ZM42.4529 89.1345L50.6945 71.8644L47.5358 70.357L39.2941 87.6271L42.4529 89.1345ZM48.5475 72.7661L58.4324 76.1555L59.5676 72.8447L49.6828 69.4553L48.5475 72.7661ZM60.484 75.4276L70.4845 59.4279L67.5165 57.5728L57.5161 73.5726L60.484 75.4276ZM68.4181 60.1506L76.9176 63.1503L78.0824 59.8499L69.5829 56.8501L68.4181 60.1506ZM78.9175 62.5264L93.4471 42.4599L90.6122 40.4073L76.0826 60.4738L78.9175 62.5264Z" fill="url(#paint0_linear_2148_276)"/>
<path d="M33.2217 30L33.2218 95" stroke="url(#paint1_linear_2148_276)" stroke-width="3.5"/>
<path d="M31.5 94.2501H109" stroke="url(#paint2_linear_2148_276)" stroke-width="3.5"/>
<defs>
<linearGradient id="paint0_linear_2148_276" x1="32.4073" y1="78.5108" x2="59.8429" y2="91.3314" gradientUnits="userSpaceOnUse">
<stop stop-color="#221769"/>
<stop offset="1" stop-color="#432DCF"/>
</linearGradient>
<linearGradient id="paint1_linear_2148_276" x1="33.2319" y1="28.2085" x2="31.1168" y2="28.3163" gradientUnits="userSpaceOnUse">
<stop stop-color="#221769"/>
<stop offset="1" stop-color="#432DCF"/>
</linearGradient>
<linearGradient id="paint2_linear_2148_276" x1="29.3642" y1="94.2085" x2="29.4971" y2="97.1145" gradientUnits="userSpaceOnUse">
<stop stop-color="#221769"/>
<stop offset="1" stop-color="#432DCF"/>
</linearGradient>
</defs>
</svg>
