<svg width="130" height="130" viewBox="0 0 130 130" fill="none" xmlns="http://www.w3.org/2000/svg">
<circle cx="65" cy="65" r="64" fill="white" stroke="#E5E3F3" stroke-width="2"/>
<path d="M64.347 60.8981C61.5757 60.8981 58.918 59.7972 56.9584 57.8376C54.9988 55.878 53.8979 53.2203 53.8979 50.449C53.8979 47.6778 54.9988 45.02 56.9584 43.0604C58.918 41.1009 61.5757 40 64.347 40C67.1182 40 69.776 41.1009 71.7356 43.0604C73.6951 45.02 74.796 47.6778 74.796 50.449C74.796 53.2203 73.6951 55.878 71.7356 57.8376C69.776 59.7972 67.1182 60.8981 64.347 60.8981ZM64.347 44.1796C60.8779 44.1796 58.0776 46.98 58.0776 50.449C58.0776 53.9181 60.8779 56.7184 64.347 56.7184C67.8161 56.7184 70.6164 53.9181 70.6164 50.449C70.6164 46.98 67.8161 44.1796 64.347 44.1796Z" fill="url(#paint0_linear_2148_273)"/>
<path d="M89.4248 77.6165C88.2545 77.6165 87.3349 76.697 87.3349 75.5267C87.3349 74.3564 88.2545 73.4369 89.4248 73.4369C90.595 73.4369 91.5146 72.5174 91.5146 71.3471C91.5146 68.5758 90.4137 65.9181 88.4541 63.9585C86.4945 61.9989 83.8368 60.8981 81.0655 60.8981H76.8859C75.7156 60.8981 74.7961 59.9785 74.7961 58.8083C74.7961 57.638 75.7156 56.7184 76.8859 56.7184C80.355 56.7184 83.1553 53.9181 83.1553 50.449C83.1553 46.98 80.355 44.1796 76.8859 44.1796C75.7156 44.1796 74.7961 43.2601 74.7961 42.0898C74.7961 40.9195 75.7156 40 76.8859 40C79.6572 40 82.3149 41.1009 84.2745 43.0604C86.2341 45.02 87.3349 47.6778 87.3349 50.449C87.3349 53.0404 86.4154 55.381 84.8272 57.22C91.0548 58.8918 95.6942 64.5761 95.6942 71.3471C95.6942 74.8162 92.8938 77.6165 89.4248 77.6165ZM39.2694 77.6165C35.8003 77.6165 33 74.8162 33 71.3471C33 64.5761 37.5976 58.8918 43.867 57.22C42.3205 55.381 41.3592 53.0404 41.3592 50.449C41.3592 47.6778 42.4601 45.02 44.4197 43.0604C46.3792 41.1009 49.037 40 51.8083 40C52.9785 40 53.8981 40.9195 53.8981 42.0898C53.8981 43.2601 52.9785 44.1796 51.8083 44.1796C48.3392 44.1796 45.5388 46.98 45.5388 50.449C45.5388 53.9181 48.3392 56.7184 51.8083 56.7184C52.9785 56.7184 53.8981 57.638 53.8981 58.8083C53.8981 59.9785 52.9785 60.8981 51.8083 60.8981H47.6286C44.8574 60.8981 42.1996 61.9989 40.2401 63.9585C38.2805 65.9181 37.1796 68.5758 37.1796 71.3471C37.1796 72.5174 38.0991 73.4369 39.2694 73.4369C40.4397 73.4369 41.3592 74.3564 41.3592 75.5267C41.3592 76.697 40.4397 77.6165 39.2694 77.6165ZM76.8859 90.1553H51.8083C48.3392 90.1553 45.5388 87.355 45.5388 83.8859V79.7063C45.5388 71.6397 52.1008 65.0777 60.1675 65.0777H68.5267C76.5933 65.0777 83.1553 71.6397 83.1553 79.7063V83.8859C83.1553 87.355 80.355 90.1553 76.8859 90.1553ZM60.1675 69.2573C57.3962 69.2573 54.7385 70.3582 52.7789 72.3177C50.8193 74.2773 49.7184 76.9351 49.7184 79.7063V83.8859C49.7184 85.0562 50.638 85.9757 51.8083 85.9757H76.8859C78.0562 85.9757 78.9757 85.0562 78.9757 83.8859V79.7063C78.9757 76.9351 77.8748 74.2773 75.9153 72.3177C73.9557 70.3582 71.298 69.2573 68.5267 69.2573H60.1675Z" fill="url(#paint1_linear_2148_273)"/>
<path d="M64.7961 106.545C87.8801 106.545 106.592 87.8433 106.592 64.7724C106.592 41.7015 87.8801 23 64.7961 23C41.7121 23 23 41.7015 23 64.7724C23 70.5328 24.1703 76.0217 26.2768 81.0135C27.4429 83.7705 28.0239 85.149 28.0991 86.1933C28.1702 87.2376 27.8609 88.3822 27.2465 90.6755L23 106.545L38.8783 102.301C41.1729 101.687 42.3182 101.382 43.3631 101.449C44.408 101.524 45.7872 102.104 48.5458 103.27C53.6894 105.435 59.2149 106.549 64.7961 106.545Z" stroke="url(#paint2_linear_2148_273)" stroke-width="4.5" stroke-linecap="round" stroke-linejoin="round"/>
<defs>
<linearGradient id="paint0_linear_2148_273" x1="53.322" y1="39.1292" x2="69.222" y2="43.6139" gradientUnits="userSpaceOnUse">
<stop stop-color="#221769"/>
<stop offset="1" stop-color="#432DCF"/>
</linearGradient>
<linearGradient id="paint1_linear_2148_273" x1="31.2722" y1="37.9102" x2="77.0737" y2="54.0583" gradientUnits="userSpaceOnUse">
<stop stop-color="#221769"/>
<stop offset="1" stop-color="#432DCF"/>
</linearGradient>
<linearGradient id="paint2_linear_2148_273" x1="20.6963" y1="19.519" x2="84.2911" y2="37.4663" gradientUnits="userSpaceOnUse">
<stop stop-color="#221769"/>
<stop offset="1" stop-color="#432DCF"/>
</linearGradient>
</defs>
</svg>
