<svg width="168" height="33" viewBox="0 0 168 33" fill="none" xmlns="http://www.w3.org/2000/svg">
<path d="M18.88 24.072C19.072 24.072 19.2373 24.1467 19.376 24.296L20.72 25.768C19.7813 26.8773 18.6347 27.736 17.28 28.344C15.936 28.952 14.3147 29.256 12.416 29.256C10.752 29.256 9.24267 28.968 7.888 28.392C6.544 27.816 5.392 27.0107 4.432 25.976C3.48267 24.9413 2.74667 23.704 2.224 22.264C1.70133 20.824 1.44 19.24 1.44 17.512C1.44 15.784 1.712 14.2 2.256 12.76C2.81067 11.32 3.584 10.0827 4.576 9.048C5.568 8.01333 6.752 7.208 8.128 6.632C9.51467 6.056 11.0453 5.768 12.72 5.768C14.352 5.768 15.8027 6.03467 17.072 6.568C18.3413 7.10133 19.4453 7.81066 20.384 8.696L19.264 10.28C19.1893 10.3973 19.0933 10.4933 18.976 10.568C18.8693 10.6427 18.7253 10.68 18.544 10.68C18.3413 10.68 18.1013 10.5787 17.824 10.376C17.5573 10.1733 17.2 9.94933 16.752 9.704C16.3147 9.448 15.7707 9.21867 15.12 9.016C14.4693 8.81333 13.6587 8.712 12.688 8.712C11.5467 8.712 10.5013 8.91467 9.552 9.32C8.60267 9.71467 7.78133 10.2907 7.088 11.048C6.40533 11.7947 5.872 12.7173 5.488 13.816C5.11467 14.904 4.928 16.136 4.928 17.512C4.928 18.9093 5.12533 20.152 5.52 21.24C5.91467 22.328 6.45867 23.2507 7.152 24.008C7.84533 24.7653 8.66133 25.3413 9.6 25.736C10.5387 26.1307 11.552 26.328 12.64 26.328C13.3013 26.328 13.8933 26.2907 14.416 26.216C14.9493 26.1307 15.4347 26.008 15.872 25.848C16.32 25.688 16.7413 25.4853 17.136 25.24C17.5307 24.984 17.92 24.68 18.304 24.328C18.3893 24.2533 18.48 24.1947 18.576 24.152C18.672 24.0987 18.7733 24.072 18.88 24.072ZM43.9205 6.024L43.9205 29L40.5125 29L40.5125 18.648L28.5285 18.648L28.5285 29L25.1045 29L25.1045 6.024L28.5285 6.024L28.5285 16.168L40.5125 16.168L40.5125 6.024L43.9205 6.024ZM62.7725 20.44L59.3645 11.528C59.1192 10.92 58.8738 10.152 58.6285 9.224C58.5112 9.68266 58.3885 10.1093 58.2605 10.504C58.1432 10.8987 58.0258 11.2507 57.9085 11.56L54.5165 20.44L62.7725 20.44ZM69.5085 29L66.8845 29C66.5858 29 66.3405 28.9253 66.1485 28.776C65.9565 28.6267 65.8178 28.4347 65.7325 28.2L63.7005 22.872L53.5725 22.872L51.5405 28.2C51.4658 28.4027 51.3272 28.5893 51.1245 28.76C50.9218 28.92 50.6765 29 50.3885 29L47.7645 29L56.9165 6.024L60.3565 6.024L69.5085 29ZM86.751 8.872L79.455 8.872L79.455 29L76.063 29L76.063 8.872L68.735 8.872L68.735 6.024L86.751 6.024L86.751 8.872ZM106.488 7.288C106.488 7.672 106.37 8.04 106.136 8.392L93.4477 26.232L106.264 26.232L106.264 29L88.9837 29L88.9837 27.656C88.9837 27.4747 89.0104 27.304 89.0637 27.144C89.1277 26.984 89.2077 26.8293 89.3037 26.68L102.024 8.792L89.6237 8.792L89.6237 6.024L106.488 6.024L106.488 7.288ZM125.513 26.232L125.497 29L111.257 29L111.257 6.024L125.497 6.024L125.497 8.792L114.681 8.792L114.681 16.072L123.385 16.072L123.385 18.744L114.681 18.744L114.681 26.232L125.513 26.232ZM142.894 20.44L139.486 11.528C139.24 10.92 138.995 10.152 138.75 9.224C138.632 9.68266 138.51 10.1093 138.382 10.504C138.264 10.8987 138.147 11.2507 138.03 11.56L134.638 20.44L142.894 20.44ZM149.63 29L147.006 29C146.707 29 146.462 28.9253 146.27 28.776C146.078 28.6267 145.939 28.4347 145.854 28.2L143.822 22.872L133.694 22.872L131.662 28.2C131.587 28.4027 131.448 28.5893 131.246 28.76C131.043 28.92 130.798 29 130.51 29L127.886 29L137.038 6.024L140.478 6.024L149.63 29ZM166.61 26.136L166.61 29L153.458 29L153.458 6.024L156.866 6.024L156.866 26.136L166.61 26.136Z" fill="black"/>
<circle cx="42" cy="2" r="2" fill="#897CDC"/>
<circle cx="27" cy="2" r="2" fill="#897CDC"/>
<rect x="33" y="14" width="4" height="5" fill="#C9C4EC"/>
</svg>
