<svg width="34" height="34" viewBox="0 0 34 34" fill="none" xmlns="http://www.w3.org/2000/svg">
<rect width="34" height="34" rx="17" fill="#09061B"/>
<rect width="34" height="34" rx="17" fill="url(#paint0_linear_2_3384)"/>
<g clip-path="url(#clip0_2_3384)">
<path d="M17.0023 12.9605C14.7309 12.9605 12.8988 14.764 12.8988 16.9999C12.8988 19.2359 14.7309 21.0394 17.0023 21.0394C19.2738 21.0394 21.1059 19.2359 21.1059 16.9999C21.1059 14.764 19.2738 12.9605 17.0023 12.9605ZM17.0023 19.6261C15.5345 19.6261 14.3345 18.4484 14.3345 16.9999C14.3345 15.5515 15.5309 14.3738 17.0023 14.3738C18.4738 14.3738 19.6702 15.5515 19.6702 16.9999C19.6702 18.4484 18.4702 19.6261 17.0023 19.6261ZM22.2309 12.7953C22.2309 13.3191 21.8023 13.7374 21.2738 13.7374C20.7416 13.7374 20.3166 13.3156 20.3166 12.7953C20.3166 12.2749 20.7452 11.8531 21.2738 11.8531C21.8023 11.8531 22.2309 12.2749 22.2309 12.7953ZM24.9488 13.7515C24.888 12.4894 24.5952 11.3714 23.6559 10.4503C22.7202 9.52925 21.5845 9.24097 20.3023 9.17769C18.9809 9.10386 15.0202 9.10386 13.6988 9.17769C12.4202 9.23745 11.2845 9.52573 10.3452 10.4468C9.40591 11.3679 9.11663 12.4859 9.05234 13.748C8.97734 15.0488 8.97734 18.9476 9.05234 20.2484C9.11306 21.5105 9.40591 22.6285 10.3452 23.5496C11.2845 24.4706 12.4166 24.7589 13.6988 24.8222C15.0202 24.896 18.9809 24.896 20.3023 24.8222C21.5845 24.7624 22.7202 24.4742 23.6559 23.5496C24.5916 22.6285 24.8845 21.5105 24.9488 20.2484C25.0238 18.9476 25.0238 15.0523 24.9488 13.7515ZM23.2416 21.6441C22.963 22.3331 22.4238 22.864 21.7202 23.1417C20.6666 23.5531 18.1666 23.4581 17.0023 23.4581C15.8381 23.4581 13.3345 23.5496 12.2845 23.1417C11.5845 22.8675 11.0452 22.3367 10.7631 21.6441C10.3452 20.607 10.4416 18.146 10.4416 16.9999C10.4416 15.8539 10.3488 13.3894 10.7631 12.3558C11.0416 11.6667 11.5809 11.1359 12.2845 10.8582C13.3381 10.4468 15.8381 10.5417 17.0023 10.5417C18.1666 10.5417 20.6702 10.4503 21.7202 10.8582C22.4202 11.1324 22.9595 11.6632 23.2416 12.3558C23.6595 13.3929 23.563 15.8539 23.563 16.9999C23.563 18.146 23.6595 20.6105 23.2416 21.6441Z" fill="white"/>
</g>
<defs>
<linearGradient id="paint0_linear_2_3384" x1="-0.937008" y1="-1.41667" x2="24.9315" y2="5.87965" gradientUnits="userSpaceOnUse">
<stop stop-color="#221769"/>
<stop offset="1" stop-color="#432DCF"/>
</linearGradient>
<clipPath id="clip0_2_3384">
<rect width="16" height="18" fill="white" transform="translate(9 8)"/>
</clipPath>
</defs>
</svg>
