<svg width="14" height="14" viewBox="0 0 14 14" fill="none" xmlns="http://www.w3.org/2000/svg">
<path d="M11.6663 6.41641H12.833C12.833 3.42391 10.5737 1.16699 7.57715 1.16699V2.33366C9.94665 2.33366 11.6663 4.05041 11.6663 6.41641Z" fill="white"/>
<path d="M7.5835 4.66648C8.81025 4.66648 9.3335 5.18973 9.3335 6.41648H10.5002C10.5002 4.53523 9.46475 3.49981 7.5835 3.49981V4.66648ZM9.57967 7.84156C9.46758 7.73969 9.32028 7.68535 9.16888 7.69003C9.01749 7.69471 8.87383 7.75804 8.76825 7.86665L7.37233 9.30223C7.03633 9.23806 6.36083 9.02748 5.6655 8.3339C4.97016 7.63798 4.75958 6.96073 4.69717 6.62706L6.13158 5.23056C6.24032 5.12506 6.30374 4.98138 6.30843 4.82993C6.31311 4.67849 6.25868 4.53117 6.15666 4.41915L4.00125 2.04906C3.89919 1.93669 3.75734 1.86852 3.60584 1.85905C3.45433 1.84957 3.3051 1.89953 3.18983 1.99831L1.924 3.0839C1.82315 3.18511 1.76295 3.31983 1.75483 3.46248C1.74608 3.60831 1.57925 7.06281 4.25791 9.74265C6.59475 12.0789 9.52191 12.2498 10.3281 12.2498C10.4459 12.2498 10.5182 12.2463 10.5375 12.2451C10.6801 12.2372 10.8148 12.1767 10.9155 12.0754L12.0005 10.809C12.0994 10.6938 12.1494 10.5446 12.14 10.3931C12.1307 10.2416 12.0626 10.0997 11.9503 9.99756L9.57967 7.84156Z" fill="white"/>
</svg>
