<svg width="34" height="34" viewBox="0 0 34 34" fill="none" xmlns="http://www.w3.org/2000/svg">
<rect width="34" height="34" rx="17" fill="#09061B"/>
<rect width="34" height="34" rx="17" fill="url(#paint0_linear_2_3376)"/>
<g clip-path="url(#clip0_2_3376)">
<path d="M26 11.6817C25.326 11.9662 24.611 12.1529 23.879 12.2357C24.6415 11.8003 25.227 11.1108 25.5027 10.2893C24.7778 10.6991 23.9847 10.9878 23.1577 11.143C22.484 10.4593 21.5243 10.032 20.4621 10.032C18.4226 10.032 16.7691 11.6072 16.7691 13.5501C16.7691 13.8258 16.8018 14.0943 16.8647 14.3519C13.7956 14.2051 11.0745 12.8045 9.25304 10.676C8.93523 11.1956 8.75312 11.8 8.75312 12.4447C8.75312 13.6653 9.40513 14.7421 10.396 15.373C9.80953 15.3555 9.23599 15.2046 8.72323 14.9329C8.72302 14.9477 8.72302 14.9624 8.72302 14.9772C8.72302 16.6818 9.99596 18.1037 11.6853 18.427C11.1415 18.5679 10.5711 18.5885 10.0176 18.4872C10.4875 19.885 11.8514 20.9021 13.4673 20.9305C12.2034 21.8741 10.6111 22.4366 8.88095 22.4366C8.58282 22.4366 8.28891 22.4199 8 22.3874C9.63427 23.3856 11.5754 23.9681 13.6609 23.9681C20.4535 23.9681 24.1679 18.6071 24.1679 13.9581C24.1679 13.8055 24.1644 13.6538 24.1573 13.5029C24.8802 13.005 25.5042 12.3883 26 11.6817Z" fill="white"/>
</g>
<defs>
<linearGradient id="paint0_linear_2_3376" x1="-0.937008" y1="-1.41667" x2="24.9315" y2="5.87965" gradientUnits="userSpaceOnUse">
<stop stop-color="#221769"/>
<stop offset="1" stop-color="#432DCF"/>
</linearGradient>
<clipPath id="clip0_2_3376">
<rect width="18" height="14" fill="white" transform="translate(8 10)"/>
</clipPath>
</defs>
</svg>
