<svg width="52" height="52" viewBox="0 0 52 52" fill="none" xmlns="http://www.w3.org/2000/svg">
<path fill-rule="evenodd" clip-rule="evenodd" d="M16.6298 29.1789H15.9054L8.08905 39.3444C7.99993 39.4603 7.87676 39.5454 7.73683 39.5877C7.59689 39.6301 7.44721 39.6275 7.3088 39.5805C7.17039 39.5334 7.05018 39.4442 6.96506 39.3253C6.87993 39.2065 6.83415 39.0639 6.83415 38.9177V29.1789H5.00785C2.96995 29.1789 1.30005 27.4918 1.30005 25.4177V7.40343C1.30005 5.32943 2.96995 3.64233 5.00785 3.64233H37.1395C39.1775 3.64233 40.8473 5.32943 40.8473 7.40343V9.85333C41.4323 9.71931 42.0263 9.62807 42.6246 9.58033V8.52463C42.6246 8.39293 42.6617 8.2639 42.7318 8.15236C42.8018 8.04083 42.9019 7.95132 43.0205 7.89412C43.1392 7.83692 43.2715 7.81434 43.4024 7.82899C43.5333 7.84364 43.6574 7.89492 43.7605 7.97693L48.9212 12.0835C49.0035 12.1491 49.0701 12.2324 49.1158 12.3272C49.1615 12.4221 49.1853 12.526 49.1853 12.6313C49.1853 12.7366 49.1615 12.8405 49.1158 12.9353C49.0701 13.0302 49.0035 13.1135 48.9212 13.179L43.7605 17.2856C43.6574 17.3676 43.5333 17.4189 43.4024 17.4336C43.2715 17.4482 43.1392 17.4257 43.0205 17.3685C42.9019 17.3112 42.8018 17.2217 42.7318 17.1102C42.6617 16.9987 42.6246 16.8696 42.6246 16.7379V15.518C42.0319 15.4847 41.4376 15.4991 40.8473 15.5613V25.1238C44.5522 27.4204 46.897 30.9578 46.897 34.8997C46.8969 35.8071 46.7723 36.7101 46.5264 37.5835L50.5125 41.8653C50.605 41.9648 50.6666 42.089 50.6898 42.2228C50.713 42.3566 50.6967 42.4943 50.643 42.6191C50.5893 42.7438 50.5004 42.8503 50.3873 42.9254C50.2741 43.0005 50.1416 43.0411 50.0058 43.0422L42.9623 43.0997C40.0373 45.7154 35.7087 47.3849 30.8763 47.3849C21.9909 47.3849 14.8555 41.7346 14.8555 34.8997C14.8555 32.8417 15.4929 30.8964 16.6298 29.1789ZM39.4473 10.2634V7.40343C39.4473 6.10683 38.4135 5.04233 37.1395 5.04233H5.00785C3.73385 5.04233 2.70005 6.10683 2.70005 7.40343V25.4177C2.70005 26.7143 3.73385 27.7789 5.00785 27.7789H7.53415C7.7198 27.7789 7.89785 27.8527 8.02912 27.984C8.1604 28.1152 8.23415 28.2933 8.23415 28.4789V36.8589L15.0058 28.0522C15.0711 27.9672 15.1552 27.8983 15.2514 27.851C15.3476 27.8036 15.4534 27.7789 15.5607 27.7789H37.1395C38.3878 27.7789 39.4057 26.7567 39.446 25.4958C39.4468 25.4698 39.4472 25.4438 39.4473 25.4177V15.8014C37.0261 16.3805 34.885 17.7702 33.5241 19.7479C33.4372 19.8744 33.3111 19.9687 33.1654 20.0165C33.0196 20.0643 32.8622 20.0629 32.7173 20.0125C32.5724 19.9621 32.4481 19.8655 32.3635 19.7376C32.2789 19.6096 32.2386 19.4574 32.249 19.3043C32.3061 18.4531 32.479 17.5952 32.7776 16.7471C33.861 13.67 36.3773 11.3662 39.4473 10.2634ZM40.6394 26.6582C40.1315 28.1246 38.7506 29.1789 37.1395 29.1789H18.3605C17.0296 30.8449 16.2555 32.8027 16.2555 34.8997C16.2555 41.074 22.8498 45.9849 30.8763 45.9849C35.4344 45.9849 39.5153 44.3981 42.2118 41.8894C42.3399 41.7703 42.5079 41.7034 42.6829 41.7019L48.4042 41.6553L45.2276 38.2429C45.1424 38.1515 45.0834 38.039 45.0564 37.9171C45.0294 37.7951 45.0356 37.6682 45.0743 37.5494C45.3503 36.7011 45.497 35.8135 45.497 34.8997C45.497 31.6154 43.6047 28.6803 40.6394 26.6582ZM34.2064 16.9216C36.6264 14.8498 39.9888 13.7929 43.4034 14.1795C43.5743 14.1989 43.7321 14.2804 43.8467 14.4087C43.9613 14.537 44.0246 14.703 44.0246 14.875V15.2863L47.361 12.6312L44.0246 9.97623V10.2445C44.0246 10.4272 43.9531 10.6026 43.8256 10.7334C43.698 10.8641 43.5244 10.9398 43.3418 10.9443C39.3272 11.0427 35.6203 13.3262 34.2064 16.9216ZM30.9808 33.4997C31.7535 33.4997 32.3808 34.1271 32.3808 34.8997C32.3808 35.6724 31.7535 36.2997 30.9808 36.2997C30.2081 36.2997 29.5808 35.6724 29.5808 34.8997C29.5808 34.1271 30.2081 33.4997 30.9808 33.4997ZM24.504 33.4997C25.2766 33.4997 25.904 34.1271 25.904 34.8997C25.904 35.6724 25.2766 36.2997 24.504 36.2997C23.7313 36.2997 23.104 35.6724 23.104 34.8997C23.104 34.1271 23.7313 33.4997 24.504 33.4997ZM37.4576 33.4997C38.2303 33.4997 38.8576 34.1271 38.8576 34.8997C38.8576 35.6724 38.2303 36.2997 37.4576 36.2997C36.6849 36.2997 36.0576 35.6724 36.0576 34.8997C36.0576 34.1271 36.6849 33.4997 37.4576 33.4997ZM10.7363 17.8973H8.77005C7.87875 17.8973 7.14945 17.1681 7.14945 16.2767V13.1183C7.14945 12.2269 7.87875 11.4976 8.77005 11.4976H10.7363V11.1318C10.7363 9.72663 11.8829 8.57993 13.2882 8.57993H23.7693C25.1745 8.57993 26.3212 9.72663 26.3212 11.1318V11.4976H28.2839C29.1753 11.4976 29.9045 12.2269 29.9045 13.1183V16.2767C29.9045 17.1618 29.1753 17.8973 28.2839 17.8973H26.3212V21.6164C26.3212 23.022 25.1749 24.1647 23.7693 24.1647H13.2882C11.8827 24.1647 10.7363 23.022 10.7363 21.6164V17.8973ZM10.7363 12.8976H8.77005C8.71158 12.8978 8.65556 12.9211 8.61423 12.9625C8.5729 13.0038 8.54961 13.0599 8.54945 13.1183V16.2767C8.54945 16.3981 8.64875 16.4973 8.77005 16.4973H10.7363V12.8976ZM26.3212 12.8976V16.4973H28.2839C28.3423 16.497 28.3982 16.4737 28.4395 16.4324C28.4808 16.3911 28.5042 16.3352 28.5045 16.2767V13.1183C28.5043 13.0599 28.481 13.0038 28.4397 12.9625C28.3984 12.9211 28.3423 12.8978 28.2839 12.8976H26.3212ZM13.2882 9.97993C12.654 9.97993 12.1363 10.4975 12.1363 11.1318V21.6164C12.1363 22.2503 12.6544 22.7647 13.2882 22.7647H23.7693C24.4032 22.7647 24.9212 22.2503 24.9212 21.6164V11.1318C24.9212 10.4975 24.4036 9.97993 23.7693 9.97993H13.2882ZM15.0764 13.4475C15.7643 13.4475 16.3264 14.0065 16.3264 14.6975C16.3264 15.3885 15.7643 15.9475 15.0764 15.9475C14.3854 15.9475 13.8264 15.3885 13.8264 14.6975C13.8264 14.0065 14.3854 13.4475 15.0764 13.4475ZM20.37 18.7918C20.7564 18.7918 21.07 19.1055 21.07 19.4918C21.07 19.8782 20.7564 20.1918 20.37 20.1918H16.6874C16.3011 20.1918 15.9874 19.8782 15.9874 19.4918C15.9874 19.1055 16.3011 18.7918 16.6874 18.7918H20.37ZM21.9809 13.4475C22.6688 13.4475 23.2278 14.0065 23.2278 14.6975C23.2278 15.3885 22.6688 15.9475 21.9809 15.9475C21.2899 15.9475 20.7309 15.3885 20.7309 14.6975C20.7309 14.0065 21.2899 13.4475 21.9809 13.4475Z" fill="url(#paint0_linear_139_1389)"/>
<defs>
<linearGradient id="paint0_linear_139_1389" x1="-0.0613687" y1="1.81972" x2="36.7764" y2="13.5538" gradientUnits="userSpaceOnUse">
<stop stop-color="#221769"/>
<stop offset="1" stop-color="#432DCF"/>
</linearGradient>
</defs>
</svg>
