<svg width="56" height="56" viewBox="0 0 56 56" fill="none" xmlns="http://www.w3.org/2000/svg">
<path d="M33.8648 5.3673C32.1305 4.75687 30.2655 4.42383 28.3224 4.42383C20.7184 4.42383 14.3028 9.50856 12.2881 16.4631M41.6428 31.1759C43.7588 28.3784 45.0146 24.894 45.0146 21.1161C45.0146 20.9302 45.0105 20.7452 45.0044 20.5608" stroke="url(#paint0_linear_2_2208)" stroke-width="1.34766" stroke-miterlimit="10" stroke-linecap="round" stroke-linejoin="round"/>
<path d="M40.3698 16.4878C42.1306 16.4878 43.558 15.0604 43.558 13.2996C43.558 11.5388 42.1306 10.1115 40.3698 10.1115C38.609 10.1115 37.1816 11.5388 37.1816 13.2996C37.1816 15.0604 38.609 16.4878 40.3698 16.4878Z" stroke="url(#paint1_linear_2_2208)" stroke-width="1.34766" stroke-miterlimit="10" stroke-linecap="round" stroke-linejoin="round"/>
<path d="M9.55566 27.2783V27.6111M9.55566 31.0503V31.3832" stroke="url(#paint2_linear_2_2208)" stroke-width="1.34766" stroke-miterlimit="10" stroke-linecap="round" stroke-linejoin="round"/>
<path d="M28.324 28.6363C32.4774 28.6363 35.8443 25.2693 35.8443 21.116C35.8443 16.9627 32.4774 13.5957 28.324 13.5957C24.1707 13.5957 20.8037 16.9627 20.8037 21.116C20.8037 25.2693 24.1707 28.6363 28.324 28.6363Z" stroke="url(#paint3_linear_2_2208)" stroke-width="1.34766" stroke-miterlimit="10" stroke-linecap="round" stroke-linejoin="round"/>
<path d="M9.55517 24.2363C11.9674 24.2363 13.9228 22.2808 13.9228 19.8686C13.9228 17.4564 11.9674 15.501 9.55517 15.501C7.14297 15.501 5.1875 17.4564 5.1875 19.8686C5.1875 22.2808 7.14297 24.2363 9.55517 24.2363Z" stroke="url(#paint4_linear_2_2208)" stroke-width="1.34766" stroke-miterlimit="10" stroke-linecap="round" stroke-linejoin="round"/>
<path d="M43.364 43.1924V35.848C43.364 31.8653 40.1354 28.6367 36.1527 28.6367H20.4943C16.5116 28.6367 13.283 31.8653 13.283 35.848V39.1559M13.283 42.984V46.328C13.283 46.9407 13.7796 47.4373 14.3924 47.4373H34.2935" stroke="url(#paint5_linear_2_2208)" stroke-width="1.34766" stroke-miterlimit="10" stroke-linecap="round" stroke-linejoin="round"/>
<path d="M46.2282 39.747L40.7585 46.3276L34.5345 40.2254C34.097 39.7964 33.3945 39.8033 32.9656 40.2409L30.7958 42.454C30.3668 42.8915 30.3738 43.5939 30.8113 44.0229L39.0966 52.1462C39.359 52.4035 39.672 52.6037 40.0157 52.734C40.3594 52.8642 40.7264 52.9219 41.0935 52.9032C41.4606 52.8845 41.8198 52.7898 42.1485 52.6253C42.4772 52.4607 42.7682 52.2298 43.0031 51.9471L54.9236 37.6053C55.3153 37.1341 55.2507 36.4346 54.7795 36.043L52.396 34.062C51.9249 33.6703 51.2253 33.7349 50.8337 34.206L48.6855 36.7907M29.2827 36.157H27.3653C26.7525 36.157 26.2559 35.6603 26.2559 35.0476V28.6368H30.3922V35.0476C30.3921 35.6603 29.8954 36.157 29.2827 36.157Z" stroke="url(#paint6_linear_2_2208)" stroke-width="1.34766" stroke-miterlimit="10" stroke-linecap="round" stroke-linejoin="round"/>
<path d="M35.8143 20.4778L35.9295 20.3626C36.1713 20.1207 36.5404 20.0676 36.8454 20.2226C37.2055 20.4059 37.5796 20.5606 37.9639 20.6853C38.2891 20.7909 38.5122 21.0898 38.5122 21.4317V22.7239C38.5122 22.9315 38.5947 23.1305 38.7414 23.2772C38.8882 23.424 39.0872 23.5064 39.2947 23.5064H41.4412C41.6487 23.5064 41.8477 23.424 41.9945 23.2772C42.1412 23.1305 42.2237 22.9315 42.2237 22.7239V21.4317C42.2237 21.0898 42.4468 20.7909 42.7719 20.6853C43.1563 20.5607 43.5303 20.406 43.8904 20.2226C44.1953 20.0674 44.5645 20.1207 44.8063 20.3626L45.7195 21.2758C45.8663 21.4226 46.0653 21.505 46.2728 21.505C46.4804 21.505 46.6794 21.4226 46.8262 21.2758L48.344 19.758C48.4907 19.6113 48.5731 19.4122 48.5731 19.2047C48.5731 18.9972 48.4907 18.7981 48.344 18.6514L47.4308 17.7382C47.189 17.4964 47.1357 17.1271 47.2908 16.8223C47.4741 16.4621 47.6288 16.0881 47.7534 15.7036C47.859 15.3784 48.1579 15.1554 48.4998 15.1554H49.7921C49.8948 15.1554 49.9966 15.1352 50.0915 15.0958C50.1865 15.0565 50.2728 14.9989 50.3454 14.9262C50.4181 14.8535 50.4757 14.7673 50.515 14.6723C50.5543 14.5774 50.5746 14.4756 50.5746 14.3728V12.2264C50.5746 12.0188 50.4921 11.8198 50.3454 11.673C50.1986 11.5263 49.9996 11.4438 49.7921 11.4438H48.4998C48.1579 11.4438 47.859 11.2208 47.7534 10.8956C47.6288 10.5112 47.4741 10.1372 47.2908 9.77701C47.1357 9.47218 47.1889 9.10304 47.4308 8.8611L48.344 7.94793C48.4907 7.80117 48.5731 7.60214 48.5731 7.3946C48.5731 7.18707 48.4907 6.98803 48.344 6.84127L46.8262 5.32348C46.6794 5.17674 46.4804 5.0943 46.2728 5.0943C46.0653 5.0943 45.8663 5.17674 45.7195 5.32348L44.8063 6.23665C44.5645 6.47848 44.1953 6.53174 43.8904 6.37665C43.5303 6.19335 43.1563 6.03865 42.7719 5.91399C42.4467 5.80845 42.2237 5.50952 42.2237 5.16762V3.87535C42.2237 3.66782 42.1412 3.46878 41.9945 3.32202C41.8478 3.17527 41.6487 3.0928 41.4412 3.09277H39.2947C39.1919 3.09277 39.0902 3.11302 38.9952 3.15235C38.9003 3.19168 38.814 3.24932 38.7414 3.32199C38.6687 3.39466 38.6111 3.48093 38.5718 3.57588C38.5325 3.67083 38.5122 3.77259 38.5122 3.87535V5.16762C38.5122 5.50952 38.2891 5.80845 37.9639 5.91399C37.5795 6.03863 37.2055 6.19333 36.8454 6.37665C36.5405 6.53174 36.1714 6.47859 35.9295 6.23665L35.0163 5.32348C34.8695 5.17674 34.6705 5.0943 34.463 5.0943C34.2554 5.0943 34.0564 5.17674 33.9096 5.32348L32.3917 6.84127C32.245 6.98803 32.1626 7.18707 32.1626 7.3946C32.1626 7.60214 32.245 7.80117 32.3917 7.94793L33.3049 8.8611C33.5467 9.10293 33.6 9.47207 33.4449 9.77701C33.2616 10.1372 33.1069 10.5112 32.9822 10.8956C32.8767 11.2208 32.5778 11.4438 32.2359 11.4438H30.9436C30.8408 11.4438 30.7391 11.464 30.6441 11.5033C30.5492 11.5427 30.4629 11.6003 30.3903 11.673C30.3176 11.7457 30.26 11.8319 30.2207 11.9269C30.1813 12.0218 30.1611 12.1236 30.1611 12.2264V13.8233" stroke="url(#paint7_linear_2_2208)" stroke-width="1.34766" stroke-miterlimit="10" stroke-linejoin="round"/>
<path d="M18.291 28.9808V28.674C18.291 26.2232 16.3041 24.2363 13.8532 24.2363H5.25809C2.88663 24.2363 0.949922 26.0964 0.826766 28.4371M0.820312 32.2653V34.046C0.820312 34.6587 1.31698 35.1554 1.9297 35.1554H13.317" stroke="url(#paint8_linear_2_2208)" stroke-width="1.34766" stroke-miterlimit="10" stroke-linecap="round" stroke-linejoin="round"/>
<defs>
<linearGradient id="paint0_linear_2_2208" x1="11.3862" y1="3.30916" x2="35.4068" y2="11.5974" gradientUnits="userSpaceOnUse">
<stop stop-color="#221769"/>
<stop offset="1" stop-color="#432DCF"/>
</linearGradient>
<linearGradient id="paint1_linear_2_2208" x1="37.0059" y1="9.84577" x2="41.8573" y2="11.2141" gradientUnits="userSpaceOnUse">
<stop stop-color="#221769"/>
<stop offset="1" stop-color="#432DCF"/>
</linearGradient>
<linearGradient id="paint2_linear_2_2208" x1="9.52811" y1="27.1073" x2="10.3456" y2="27.1635" gradientUnits="userSpaceOnUse">
<stop stop-color="#221769"/>
<stop offset="1" stop-color="#432DCF"/>
</linearGradient>
<linearGradient id="paint3_linear_2_2208" x1="20.3892" y1="12.969" x2="31.8327" y2="16.1967" gradientUnits="userSpaceOnUse">
<stop stop-color="#221769"/>
<stop offset="1" stop-color="#432DCF"/>
</linearGradient>
<linearGradient id="paint4_linear_2_2208" x1="4.94676" y1="15.137" x2="11.5929" y2="17.0116" gradientUnits="userSpaceOnUse">
<stop stop-color="#221769"/>
<stop offset="1" stop-color="#432DCF"/>
</linearGradient>
<linearGradient id="paint5_linear_2_2208" x1="12.454" y1="27.8533" x2="32.981" y2="37.1169" gradientUnits="userSpaceOnUse">
<stop stop-color="#221769"/>
<stop offset="1" stop-color="#432DCF"/>
</linearGradient>
<linearGradient id="paint6_linear_2_2208" x1="25.4587" y1="27.6255" x2="46.8041" y2="34.8006" gradientUnits="userSpaceOnUse">
<stop stop-color="#221769"/>
<stop offset="1" stop-color="#432DCF"/>
</linearGradient>
<linearGradient id="paint7_linear_2_2208" x1="29.5986" y1="2.2422" x2="45.1299" y2="6.62283" gradientUnits="userSpaceOnUse">
<stop stop-color="#221769"/>
<stop offset="1" stop-color="#432DCF"/>
</linearGradient>
<linearGradient id="paint8_linear_2_2208" x1="0.338837" y1="23.7813" x2="12.2606" y2="29.1615" gradientUnits="userSpaceOnUse">
<stop stop-color="#221769"/>
<stop offset="1" stop-color="#432DCF"/>
</linearGradient>
</defs>
</svg>
