<svg width="51" height="52" viewBox="0 0 51 52" fill="none" xmlns="http://www.w3.org/2000/svg">
<path d="M42.7092 19.3885C43.0357 19.0265 43.4345 18.7371 43.8798 18.539C44.3302 18.3697 44.7182 18.0668 44.9916 17.6709C45.2651 17.2749 45.411 16.8049 45.4098 16.3237V10.2132C45.4092 9.79589 45.2431 9.39582 44.9479 9.10079C44.6527 8.80575 44.2525 8.63983 43.8352 8.63941H42.2869V6.0918C42.2862 5.45796 42.0342 4.85026 41.586 4.40207C41.1378 3.95388 40.5301 3.7018 39.8962 3.70117H10.7187C10.0848 3.7018 9.47712 3.95388 9.02893 4.40207C8.58074 4.85026 8.32867 5.45796 8.32803 6.0918V8.03936C7.99002 7.98666 7.64461 8.00776 7.31553 8.10122C6.98645 8.19467 6.68151 8.35826 6.42165 8.58075C6.16178 8.80323 5.95317 9.07934 5.81014 9.39009C5.66711 9.70085 5.59304 10.0389 5.59304 10.381C5.59304 10.7231 5.66711 11.0611 5.81014 11.3719C5.95317 11.6826 6.16178 11.9587 6.42165 12.1812C6.68151 12.4037 6.98645 12.5673 7.31553 12.6607C7.64461 12.7542 7.99002 12.7753 8.32803 12.7226V15.8551C7.99018 15.8028 7.64502 15.8242 7.31623 15.9179C6.98743 16.0116 6.6828 16.1753 6.42322 16.3977C6.16365 16.6202 5.95529 16.8962 5.81243 17.2068C5.66958 17.5174 5.59561 17.8553 5.59561 18.1971C5.59561 18.539 5.66958 18.8768 5.81243 19.1874C5.95529 19.498 6.16365 19.774 6.42322 19.9965C6.6828 20.219 6.98743 20.3827 7.31623 20.4764C7.64502 20.57 7.99018 20.5914 8.32803 20.5391V23.6725H7.91286C7.58832 23.6766 7.26812 23.7477 6.97234 23.8813C6.67656 24.015 6.41156 24.2082 6.19395 24.4491C5.97634 24.6899 5.81081 24.973 5.70773 25.2808C5.60465 25.5886 5.56624 25.9143 5.5949 26.2376C5.62357 26.5609 5.7187 26.8748 5.87432 27.1596C6.02994 27.4445 6.24271 27.6941 6.4993 27.8928C6.75588 28.0916 7.05075 28.2353 7.36543 28.3148C7.68012 28.3943 8.00783 28.4079 8.32803 28.3549V31.4882H7.91286C7.58878 31.4931 7.26917 31.5647 6.97403 31.6986C6.67888 31.8326 6.41452 32.026 6.19748 32.2667C5.98044 32.5074 5.81538 32.7903 5.71261 33.0977C5.60984 33.4051 5.57157 33.7304 5.60019 34.0532C5.62881 34.3761 5.72371 34.6896 5.87896 34.9741C6.0342 35.2586 6.24645 35.5081 6.50246 35.7069C6.75846 35.9057 7.05271 36.0495 7.36682 36.1294C7.68093 36.2094 8.00815 36.2237 8.32803 36.1714V39.3048C7.9896 39.2512 7.64359 39.2717 7.31384 39.3648C6.98409 39.4579 6.67843 39.6213 6.41792 39.8439C6.15741 40.0664 5.94823 40.3428 5.80481 40.654C5.66138 40.9652 5.58711 41.3037 5.58711 41.6464C5.58711 41.989 5.66138 42.3276 5.80481 42.6387C5.94823 42.9499 6.15741 43.2263 6.41792 43.4489C6.67843 43.6714 6.98409 43.8349 7.31384 43.9279C7.64359 44.021 7.9896 44.0415 8.32803 43.988V45.9355C8.32867 46.5694 8.58074 47.1771 9.02893 47.6253C9.47712 48.0735 10.0848 48.3255 10.7187 48.3262H39.8962C40.5301 48.3255 41.1378 48.0735 41.586 47.6253C42.0342 47.1771 42.2862 46.5694 42.2869 45.9355V43.5051C42.6186 42.8541 43.1873 42.355 43.8758 42.1105C44.2698 41.9627 44.6172 41.7125 44.8824 41.3857C45.1475 41.059 45.3208 40.6674 45.3843 40.2514C45.3987 40.1 45.4042 39.1079 45.4042 39.0984V36.5484C45.4042 36.337 45.3203 36.1343 45.1708 35.9849C45.0214 35.8354 44.8187 35.7515 44.6074 35.7515C44.396 35.7515 44.1933 35.8354 44.0439 35.9849C43.8944 36.1343 43.8105 36.337 43.8105 36.5484C43.7985 37.2472 43.8264 39.3645 43.7977 40.0761C43.6176 40.7527 42.7323 40.7335 42.2869 41.1758V35.6559C42.6166 35.0016 43.1856 34.4993 43.8758 34.2534C44.2697 34.1057 44.6171 33.8557 44.8824 33.5293C45.1476 33.2028 45.3212 32.8116 45.3851 32.3958C45.409 31.3217 45.405 29.6905 45.4042 28.6904C45.4042 28.479 45.3203 28.2763 45.1708 28.1269C45.0214 27.9775 44.8187 27.8935 44.6074 27.8935C44.396 27.8935 44.1933 27.9775 44.0439 28.1269C43.8944 28.2763 43.8105 28.479 43.8105 28.6904C43.7945 29.7199 43.8248 31.089 43.7969 32.2293C43.5913 32.9082 42.8176 32.8301 42.2869 33.2995V27.7931C42.6177 27.1386 43.1892 26.6377 43.8814 26.3954C44.2631 26.2515 44.601 26.011 44.8619 25.6974C45.1228 25.3838 45.2979 25.0079 45.37 24.6064C45.452 23.7274 45.3891 21.7002 45.4082 20.8228C45.4082 20.6115 45.3243 20.4088 45.1748 20.2594C45.0254 20.1099 44.8227 20.026 44.6113 20.026C44.4 20.026 44.1973 20.1099 44.0479 20.2594C43.8984 20.4088 43.8145 20.6115 43.8145 20.8228C43.8161 21.532 43.8208 23.6454 43.8017 24.3211C43.6368 25.0534 42.8295 24.9618 42.2877 25.4399L42.2869 22.8254C42.3012 22.7827 42.3012 22.7365 42.2869 22.6939V20.4754C42.2851 20.0729 42.436 19.684 42.7092 19.3885ZM7.91286 11.128C7.71874 11.1217 7.53469 11.0401 7.39961 10.9006C7.26453 10.761 7.18901 10.5744 7.18901 10.3802C7.18901 10.186 7.26453 9.99934 7.39961 9.85978C7.53469 9.72022 7.71874 9.63865 7.91286 9.63231H8.32803V11.128H7.91286ZM7.91286 18.9446C7.71441 18.9446 7.52408 18.8658 7.38376 18.7254C7.24343 18.5851 7.16459 18.3948 7.16459 18.1963C7.16459 17.9979 7.24343 17.8076 7.38376 17.6672C7.52408 17.5269 7.71441 17.4481 7.91286 17.4481H8.32803V18.9446H7.91286ZM7.91286 26.7603C7.71874 26.754 7.53469 26.6724 7.39961 26.5329C7.26453 26.3933 7.18901 26.2067 7.18901 26.0125C7.18901 25.8183 7.26453 25.6316 7.39961 25.4921C7.53469 25.3525 7.71874 25.2709 7.91286 25.2646H8.32803V26.7603H7.91286ZM7.91286 34.5777C7.71441 34.5777 7.52408 34.4989 7.38376 34.3585C7.24343 34.2182 7.16459 34.0279 7.16459 33.8294C7.16459 33.631 7.24343 33.4406 7.38376 33.3003C7.52408 33.16 7.71441 33.0812 7.91286 33.0812H8.32803V34.5777H7.91286ZM7.91286 42.3934C7.71874 42.3871 7.53469 42.3055 7.39961 42.166C7.26453 42.0264 7.18901 41.8398 7.18901 41.6456C7.18901 41.4513 7.26453 41.2647 7.39961 41.1252C7.53469 40.9856 7.71874 40.904 7.91286 40.8977H8.32803V42.3934H7.91286ZM9.92099 45.9355V43.988C10.2596 44.0374 10.6049 44.0141 10.9338 43.9197C11.2627 43.8252 11.5677 43.6618 11.8286 43.4403C12.0894 43.2188 12.3001 42.9443 12.4466 42.6351C12.5931 42.3258 12.672 41.9889 12.6782 41.6468C12.6782 41.4354 12.5942 41.2327 12.4448 41.0833C12.2953 40.9338 12.0926 40.8499 11.8813 40.8499C11.67 40.8499 11.4673 40.9338 11.3178 41.0833C11.1684 41.2327 11.0844 41.4354 11.0844 41.6468C11.084 41.8449 11.0051 42.0348 10.865 42.1748C10.7249 42.3149 10.5351 42.3938 10.337 42.3942H9.92099V36.1722C10.2597 36.2216 10.6051 36.1983 10.9341 36.1038C11.2632 36.0093 11.5683 35.8457 11.8291 35.6241C12.09 35.4024 12.3007 35.1277 12.4471 34.8182C12.5935 34.5088 12.6722 34.1717 12.6782 33.8294C12.6782 33.6181 12.5942 33.4154 12.4448 33.2659C12.2953 33.1165 12.0926 33.0325 11.8813 33.0325C11.67 33.0325 11.4673 33.1165 11.3178 33.2659C11.1684 33.4154 11.0844 33.6181 11.0844 33.8294C11.0844 34.0278 11.0057 34.2181 10.8656 34.3585C10.7255 34.499 10.5353 34.5781 10.337 34.5785H9.92099V28.3549H10.337C10.9576 28.354 11.5526 28.1071 11.9915 27.6682C12.4304 27.2293 12.6773 26.6343 12.6782 26.0137C12.6782 25.8023 12.5942 25.5996 12.4448 25.4502C12.2953 25.3008 12.0926 25.2168 11.8813 25.2168C11.67 25.2168 11.4673 25.3008 11.3178 25.4502C11.1684 25.5996 11.0844 25.8023 11.0844 26.0137C11.084 26.2118 11.0051 26.4017 10.865 26.5417C10.7249 26.6818 10.5351 26.7607 10.337 26.7611H9.92099V20.5391C10.2597 20.5885 10.605 20.5652 10.934 20.4708C11.2629 20.3763 11.568 20.2128 11.8289 19.9912C12.0897 19.7697 12.3004 19.495 12.4468 19.1857C12.5933 18.8763 12.6721 18.5393 12.6782 18.1971C12.6782 17.9858 12.5942 17.7831 12.4448 17.6336C12.2953 17.4842 12.0926 17.4003 11.8813 17.4003C11.67 17.4003 11.4673 17.4842 11.3178 17.6336C11.1684 17.7831 11.0844 17.9858 11.0844 18.1971C11.0842 18.3954 11.0054 18.5855 10.8653 18.7257C10.7252 18.866 10.5352 18.945 10.337 18.9454H9.92099V12.7218C10.2596 12.7713 10.6049 12.7481 10.9339 12.6537C11.2629 12.5594 11.5679 12.396 11.8288 12.1745C12.0897 11.9529 12.3004 11.6784 12.4468 11.3691C12.5933 11.0597 12.6722 10.7228 12.6782 10.3806C12.6782 10.1692 12.5942 9.96655 12.4448 9.8171C12.2953 9.66766 12.0926 9.5837 11.8813 9.5837C11.67 9.5837 11.4673 9.66766 11.3178 9.8171C11.1684 9.96655 11.0844 10.1692 11.0844 10.3806C11.0842 10.5788 11.0054 10.7689 10.8653 10.9092C10.7252 11.0494 10.5352 11.1284 10.337 11.1288H9.92099V6.0918C9.9212 5.88052 10.0052 5.67795 10.1546 5.52855C10.304 5.37916 10.5066 5.29513 10.7179 5.29492H14.9843V46.7324H10.7179C10.5066 46.7322 10.304 46.6482 10.1546 46.4988C10.0052 46.3494 9.9212 46.1468 9.92099 45.9355ZM40.6923 45.9355C40.6921 46.1468 40.6081 46.3494 40.4587 46.4988C40.3093 46.6482 40.1067 46.7322 39.8954 46.7324H16.5789V5.29492H39.8962C40.1075 5.29513 40.3101 5.37916 40.4595 5.52855C40.6089 5.67795 40.6929 5.88052 40.6931 6.0918V8.63941C40.6935 9.06196 40.8616 9.4671 41.1604 9.76589C41.4592 10.0647 41.8643 10.2327 42.2869 10.2332H43.8161V16.3229C43.8181 16.4782 43.7727 16.6304 43.6858 16.7592C43.5989 16.8879 43.4748 16.987 43.33 17.0433C42.0606 17.5309 40.6174 18.9143 40.6931 20.4746L40.6923 45.9355Z" fill="url(#paint0_linear_139_1262)"/>
<path d="M28.6378 26.1651C30.7505 26.1627 32.776 25.3224 34.27 23.8285C35.7639 22.3346 36.6042 20.309 36.6065 18.1963C36.691 11.7241 28.9573 7.86323 23.8469 11.8301C23.678 11.9573 23.5665 12.1464 23.537 12.3559C23.5074 12.5653 23.5623 12.7779 23.6896 12.9469C23.8168 13.1159 24.0059 13.2274 24.2154 13.2569C24.4248 13.2864 24.6374 13.2315 24.8064 13.1043C26.0004 12.2033 27.4735 11.7513 28.9674 11.8276C30.4612 11.9039 31.8806 12.5036 32.9766 13.5216C34.0726 14.5396 34.7753 15.9108 34.9616 17.395C35.1478 18.8792 34.8057 20.3816 33.9952 21.6388C33.2827 20.7581 32.3042 20.1319 31.2061 19.8538C31.5465 19.4402 31.7825 18.9508 31.894 18.4268C32.0055 17.9028 31.9893 17.3597 31.8467 16.8433C31.7042 16.327 31.4395 15.8525 31.0749 15.4599C30.7104 15.0673 30.2568 14.7683 29.7524 14.5879C29.248 14.4075 28.7076 14.3512 28.1768 14.4236C27.646 14.496 27.1404 14.6951 26.7028 15.004C26.2651 15.3129 25.9082 15.7226 25.6622 16.1985C25.4162 16.6743 25.2883 17.2024 25.2893 17.7381C25.2928 18.5126 25.5674 19.2615 26.0654 19.8546C24.9685 20.1321 23.9907 20.7568 23.278 21.6356C22.6746 20.6951 22.3292 19.6125 22.2763 18.4964C22.2234 17.3803 22.465 16.2699 22.9768 15.2766C23.0254 15.1838 23.0553 15.0824 23.0648 14.9782C23.0743 14.8739 23.0631 14.7688 23.032 14.6688C23.0008 14.5688 22.9503 14.476 22.8833 14.3955C22.8162 14.3151 22.734 14.2486 22.6413 14.2C22.454 14.1017 22.2354 14.0818 22.0335 14.1448C21.8316 14.2077 21.663 14.3482 21.5647 14.5355C18.7701 19.6769 22.7815 26.2687 28.6378 26.1659V26.1651ZM26.8838 17.7373C26.8936 17.2791 27.0825 16.843 27.41 16.5225C27.7375 16.2019 28.1775 16.0223 28.6358 16.0223C29.094 16.0223 29.5341 16.2019 29.8616 16.5225C30.1891 16.843 30.3779 17.2791 30.3877 17.7373C30.3779 18.1955 30.1891 18.6316 29.8616 18.9522C29.5341 19.2727 29.094 19.4523 28.6358 19.4523C28.1775 19.4523 27.7375 19.2727 27.41 18.9522C27.0825 18.6316 26.8936 18.1955 26.8838 17.7373ZM28.6354 21.0842C30.9479 21.0842 32.6046 22.0133 32.8827 22.9385C31.7179 23.99 30.2044 24.5718 28.6352 24.5713C27.066 24.5707 25.5528 23.9877 24.3888 22.9353C24.6701 22.011 26.3252 21.0834 28.6362 21.0834L28.6354 21.0842ZM24.6135 30.3845C24.4022 30.3845 24.1995 30.4685 24.0501 30.6179C23.9006 30.7674 23.8167 30.97 23.8167 31.1814C23.8167 31.3927 23.9006 31.5954 24.0501 31.7449C24.1995 31.8943 24.4022 31.9783 24.6135 31.9783H32.658C32.8693 31.9783 33.072 31.8943 33.2215 31.7449C33.3709 31.5954 33.4549 31.3927 33.4549 31.1814C33.4549 30.97 33.3709 30.7674 33.2215 30.6179C33.072 30.4685 32.8693 30.3845 32.658 30.3845H24.6135ZM35.9626 34.5785H21.3081C21.0968 34.5785 20.8941 34.6624 20.7446 34.8119C20.5952 34.9613 20.5112 35.164 20.5112 35.3753C20.5112 35.5867 20.5952 35.7894 20.7446 35.9388C20.8941 36.0883 21.0968 36.1722 21.3081 36.1722H35.9626C36.174 36.1722 36.3767 36.0883 36.5261 35.9388C36.6756 35.7894 36.7595 35.5867 36.7595 35.3753C36.7595 35.164 36.6756 34.9613 36.5261 34.8119C36.3767 34.6624 36.174 34.5785 35.9626 34.5785ZM35.9626 38.7716H21.3081C21.0968 38.7716 20.8941 38.8556 20.7446 39.005C20.5952 39.1545 20.5112 39.3572 20.5112 39.5685C20.5112 39.7798 20.5952 39.9825 20.7446 40.132C20.8941 40.2814 21.0968 40.3654 21.3081 40.3654H35.9626C36.174 40.3654 36.3767 40.2814 36.5261 40.132C36.6756 39.9825 36.7595 39.7798 36.7595 39.5685C36.7595 39.3572 36.6756 39.1545 36.5261 39.005C36.3767 38.8556 36.174 38.7716 35.9626 38.7716Z" fill="url(#paint1_linear_139_1262)"/>
<defs>
<linearGradient id="paint0_linear_139_1262" x1="4.48808" y1="1.8418" x2="35.2518" y2="9.58604" gradientUnits="userSpaceOnUse">
<stop stop-color="#221769"/>
<stop offset="1" stop-color="#432DCF"/>
</linearGradient>
<linearGradient id="paint1_linear_139_1262" x1="20.0634" y1="8.96862" x2="33.1077" y2="10.952" gradientUnits="userSpaceOnUse">
<stop stop-color="#221769"/>
<stop offset="1" stop-color="#432DCF"/>
</linearGradient>
</defs>
</svg>
