<svg width="51" height="52" viewBox="0 0 51 52" fill="none" xmlns="http://www.w3.org/2000/svg">
<path d="M17.3793 7.89324C17.4796 8.0669 17.6416 8.19637 17.8332 8.25582C18.0247 8.31527 18.2316 8.30033 18.4126 8.21398C20.2666 7.32925 22.2583 6.80072 24.3322 6.64304C24.5326 6.62782 24.7197 6.53751 24.8563 6.39017C24.9929 6.24283 25.0688 6.04935 25.0688 5.84846V2.10753C25.0687 1.99862 25.0464 1.89088 25.0031 1.79096C24.9598 1.69103 24.8965 1.60103 24.817 1.52652C24.7376 1.45201 24.6438 1.39456 24.5413 1.35773C24.4388 1.32089 24.3299 1.30544 24.2212 1.31234C21.2917 1.49941 18.476 2.25345 15.8524 3.55356C15.7548 3.60194 15.6682 3.6698 15.5979 3.75294C15.5276 3.83609 15.475 3.93276 15.4435 4.037C15.412 4.14123 15.4022 4.25082 15.4146 4.359C15.4271 4.46718 15.4616 4.57166 15.516 4.66599L17.3793 7.89324ZM23.475 2.97433V5.1244C21.7148 5.3283 20.0129 5.77983 18.3986 6.47121L17.3296 4.61958C19.2831 3.74989 21.3436 3.19825 23.475 2.97433ZM5.82662 33.1663C5.87489 33.264 5.94269 33.3508 6.02583 33.4213C6.10897 33.4917 6.20568 33.5444 6.30998 33.576C6.41428 33.6076 6.52395 33.6175 6.63222 33.6051C6.74049 33.5926 6.84506 33.5581 6.93945 33.5036L10.1819 31.6316C10.3556 31.5314 10.4851 31.3694 10.5445 31.1779C10.604 30.9864 10.5891 30.7795 10.5028 30.5985C9.61576 28.7384 9.08464 26.7485 8.92387 24.6842C8.9083 24.4842 8.81784 24.2974 8.67056 24.1611C8.52328 24.0249 8.33002 23.9492 8.12939 23.9492H4.38736C4.27843 23.9492 4.17067 23.9716 4.07072 24.0149C3.97077 24.0582 3.88076 24.1215 3.80624 24.201C3.73172 24.2804 3.67428 24.3743 3.63747 24.4768C3.60065 24.5794 3.58524 24.6883 3.59218 24.797C3.78024 27.7293 4.53209 30.5451 5.82662 33.1663ZM7.40682 25.5428C7.6115 27.289 8.06727 28.9964 8.76001 30.6122L6.89423 31.6894C6.02833 29.7372 5.47848 27.6763 5.25436 25.5428H7.40682ZM4.38746 22.7921H8.14413C8.34356 22.7921 8.53573 22.7173 8.68271 22.5825C8.82969 22.4478 8.92079 22.2627 8.93801 22.0641C9.11741 19.9948 9.65271 18.0068 10.5291 16.1553C10.6147 15.9745 10.6291 15.768 10.5695 15.577C10.5098 15.386 10.3805 15.2244 10.2072 15.1243L6.94533 13.2411C6.85099 13.1866 6.74649 13.152 6.63827 13.1395C6.53005 13.127 6.42042 13.1368 6.31615 13.1684C6.21188 13.1999 6.11518 13.2525 6.03202 13.3229C5.94887 13.3932 5.88103 13.4799 5.83269 13.5775C4.53409 16.2002 3.78034 19.0151 3.59218 21.9441C3.58518 22.0529 3.60055 22.1619 3.63735 22.2644C3.67415 22.367 3.7316 22.4609 3.80613 22.5404C3.88067 22.6199 3.97072 22.6832 4.07071 22.7265C4.17069 22.7698 4.2785 22.7921 4.38746 22.7921ZM6.89931 15.0548L8.78691 16.1446C8.10179 17.7524 7.64598 19.4465 7.42724 21.1984H5.25446C5.47908 19.0675 6.03052 17.0076 6.89931 15.0548ZM49.6032 25.4501C49.3965 25.024 48.9735 24.7593 48.4993 24.7592H47.7144C47.743 24.2969 47.7575 23.8325 47.7575 23.3706C47.7575 17.7139 45.6223 12.3322 41.7452 8.21697C37.8851 4.11974 32.6745 1.66745 27.0731 1.31165C26.9644 1.30478 26.8555 1.32024 26.7531 1.35709C26.6506 1.39394 26.5568 1.45139 26.4774 1.5259C26.398 1.60042 26.3347 1.6904 26.2915 1.79032C26.2482 1.89023 26.2258 1.99795 26.2258 2.10683V5.84875C26.2258 6.0495 26.3016 6.24285 26.4379 6.39014C26.5743 6.53744 26.7613 6.62783 26.9614 6.64324C35.6352 7.31242 42.4298 14.6599 42.4298 23.3705C42.4298 23.8327 42.4108 24.2974 42.3728 24.759H41.8632C41.3892 24.759 40.9661 25.0237 40.7593 25.4498C40.5525 25.8758 40.6062 26.3719 40.8995 26.7442L44.2178 30.959C44.3322 31.1051 44.4786 31.2232 44.6456 31.3043C44.8126 31.3853 44.9959 31.4271 45.1816 31.4266C45.5599 31.4266 45.911 31.256 46.145 30.9588L49.4631 26.7442C49.7562 26.3721 49.81 25.8761 49.6032 25.4501ZM45.1812 29.6068L42.6195 26.353H43.0915C43.2858 26.353 43.4734 26.282 43.6191 26.1534C43.7647 26.0248 43.8583 25.8473 43.8823 25.6545C43.9762 24.8969 44.0233 24.1342 44.0234 23.3707C44.0234 18.7133 42.2777 14.2711 39.1076 10.8626C36.1232 7.65358 32.138 5.634 27.8195 5.12609V2.97363C38.1727 4.06206 46.1638 12.8618 46.1638 23.3707C46.1638 24.0725 46.128 24.7806 46.0571 25.4753C46.0459 25.5862 46.058 25.6982 46.0927 25.8041C46.1274 25.91 46.1839 26.0075 46.2586 26.0902C46.3333 26.173 46.4245 26.2391 46.5264 26.2843C46.6283 26.3296 46.7385 26.353 46.8499 26.353H47.743L45.1812 29.6068ZM7.52545 12.2401L10.7761 14.1168C10.9503 14.2175 11.1561 14.2485 11.3523 14.2037C11.5484 14.1588 11.7203 14.0414 11.8334 13.875C12.9994 12.161 14.4491 10.6988 16.1421 9.52902C16.3068 9.41522 16.4226 9.2436 16.4665 9.0483C16.5104 8.853 16.4792 8.64831 16.3791 8.47496L14.5151 5.24652C14.4606 5.15208 14.3873 5.06985 14.2997 5.0049C14.2121 4.93995 14.1121 4.89367 14.0058 4.86891C13.8996 4.84416 13.7895 4.84147 13.6822 4.861C13.5749 4.88053 13.4728 4.92186 13.3821 4.98245C10.9482 6.60997 8.88891 8.67059 7.26109 11.1072C7.20055 11.1979 7.15925 11.3001 7.13976 11.4073C7.12028 11.5146 7.123 11.6248 7.14778 11.7309C7.17256 11.8371 7.21887 11.9371 7.28383 12.0247C7.34879 12.1123 7.43103 12.1856 7.52545 12.2401ZM13.5694 6.79554L14.6391 8.64838C13.2344 9.70473 11.9959 10.9538 10.9448 12.374L9.07408 11.2939C10.3291 9.56947 11.8458 8.05172 13.5694 6.79554ZM36.7549 33.7947L29.0721 38.2695C28.7798 38.4397 28.4836 38.5709 28.1785 38.6641C28.2748 38.4689 28.3514 38.2646 28.4072 38.0542C28.8158 36.529 27.9112 34.9375 26.3479 34.4308C26.3138 34.4197 26.279 34.411 26.2437 34.4046C24.0451 34.008 21.8708 33.2219 20.1236 32.5903C19.5144 32.3701 18.939 32.162 18.4486 32.003C16.4386 31.3508 14.6323 32.1519 13.1304 33.0216L7.51509 36.2727L7.03348 35.4217C6.78048 34.9746 6.3673 34.6525 5.87015 34.5146C5.3731 34.3771 4.85303 34.4404 4.40589 34.6933L2.25024 35.9134C1.32507 36.437 0.998351 37.6157 1.5219 38.541L7.85934 49.7387C8.11235 50.1859 8.52553 50.508 9.02268 50.6458C9.19461 50.6934 9.36922 50.717 9.54264 50.717C9.87066 50.717 10.1945 50.6325 10.4869 50.4671L12.6426 49.2471C13.0896 48.994 13.4118 48.5809 13.5496 48.0837C13.6874 47.5866 13.6239 47.0665 13.3709 46.6194L12.7738 45.5642L13.9365 44.8928L23.7305 47.5172C24.2835 47.6654 24.8339 47.7391 25.3751 47.7391C26.47 47.7391 27.5277 47.4377 28.4947 46.8423L42.4372 38.2571C43.759 37.4434 44.1804 35.3962 43.3215 33.9622C42.9058 33.2679 41.2033 31.2041 36.7549 33.7947ZM12.0139 47.6581C11.9999 47.7084 11.9611 47.8015 11.8577 47.8601L9.70202 49.0801C9.59872 49.1388 9.49872 49.1241 9.44841 49.11C9.39811 49.0961 9.30498 49.0572 9.24641 48.9538L2.90906 37.756C2.81981 37.5984 2.87758 37.3897 3.03536 37.3004L5.19111 36.0804C5.24022 36.0525 5.29578 36.0378 5.35228 36.038C5.39013 36.038 5.4223 36.0442 5.44471 36.0505C5.49502 36.0645 5.58815 36.1033 5.64662 36.2066L11.9841 47.4044C12.0424 47.5079 12.0278 47.6077 12.0139 47.6581ZM41.6017 36.9001L27.6593 45.4852C26.5816 46.1485 25.3987 46.3145 24.1431 45.9778L14.0301 43.268C13.826 43.2134 13.6086 43.242 13.4255 43.3476L11.9888 44.177L8.30012 37.6596L13.9288 34.4006C15.187 33.6721 16.5458 33.0609 17.9568 33.5187C18.422 33.6697 18.9594 33.8639 19.5817 34.0889C21.3701 34.7355 23.592 35.5388 25.9022 35.9622C26.6422 36.225 27.056 36.9388 26.8677 37.6415C26.6196 38.567 25.8412 38.6822 25.22 38.6115C24.0952 38.3799 23.0241 38.0742 21.8909 37.7506C21.3508 37.5965 20.7924 37.437 20.218 37.283C20.015 37.2319 19.8001 37.2627 19.6197 37.3687C19.4393 37.4747 19.3078 37.6474 19.2536 37.8496C19.1995 38.0517 19.227 38.2671 19.3302 38.4491C19.4335 38.6311 19.6042 38.7652 19.8055 38.8224C20.3673 38.973 20.9194 39.1306 21.4532 39.2831C22.628 39.6186 24.9612 40.1852 24.9665 40.186L25.9221 40.3415C27.3783 40.5743 28.671 40.3472 29.874 39.6466L37.5569 35.1718C39.7069 33.9196 41.3507 33.7733 41.9542 34.7811C42.3666 35.4694 42.1887 36.5387 41.6017 36.9001ZM5.75968 38.1428C5.77584 38.2435 5.77183 38.3464 5.74788 38.4455C5.72393 38.5447 5.68052 38.6381 5.62017 38.7203C5.55982 38.8025 5.48373 38.8719 5.39633 38.9244C5.30893 38.977 5.21196 39.0116 5.11105 39.0264C5.01014 39.0411 4.9073 39.0357 4.80852 39.0103C4.70973 38.985 4.61696 38.9403 4.53561 38.8788C4.45425 38.8173 4.38593 38.7402 4.33461 38.6521C4.28328 38.564 4.24999 38.4665 4.23665 38.3654C4.2102 38.1649 4.26375 37.962 4.38571 37.8007C4.50768 37.6393 4.68826 37.5325 4.8884 37.5032C5.08854 37.4739 5.29215 37.5246 5.4552 37.6443C5.61825 37.764 5.72763 37.9431 5.75968 38.1428ZM32.4238 15.9035C32.4238 12.7248 29.8377 10.1386 26.6589 10.1386C23.4802 10.1386 20.894 12.7248 20.894 15.9035C20.894 17.8423 21.8571 19.5593 23.3289 20.6049C19.4596 21.8745 16.5523 25.3034 16.0972 29.5553C16.0853 29.6665 16.0969 29.7789 16.1313 29.8853C16.1657 29.9917 16.222 30.0896 16.2968 30.1728C16.3715 30.256 16.4629 30.3225 16.565 30.368C16.6672 30.4135 16.7777 30.437 16.8895 30.4369H36.428C36.5398 30.437 36.6504 30.4135 36.7525 30.368C36.8547 30.3224 36.9461 30.2559 37.0208 30.1728C37.0955 30.0896 37.1519 29.9916 37.1863 29.8852C37.2207 29.7788 37.2323 29.6664 37.2203 29.5552C36.7652 25.3034 33.858 21.8746 29.9888 20.6049C31.4607 19.5594 32.4238 17.8423 32.4238 15.9035ZM35.4977 28.8432H17.82C18.6788 24.6963 22.3326 21.6693 26.6568 21.6683L26.6589 21.6684H26.6609C30.9851 21.6694 34.6388 24.6963 35.4977 28.8432ZM26.6588 20.0746H26.6562C24.3575 20.0731 22.4878 18.2026 22.4878 15.9035C22.4878 13.6035 24.3589 11.7324 26.6589 11.7324C28.9589 11.7324 30.8301 13.6035 30.8301 15.9035C30.8301 18.2026 28.9603 20.0732 26.6615 20.0746H26.6588Z" fill="url(#paint0_linear_139_1385)"/>
<defs>
<linearGradient id="paint0_linear_139_1385" x1="-0.0631698" y1="-0.748565" x2="36.9075" y2="9.47835" gradientUnits="userSpaceOnUse">
<stop stop-color="#221769"/>
<stop offset="1" stop-color="#432DCF"/>
</linearGradient>
</defs>
</svg>
