<svg width="51" height="51" viewBox="0 0 51 51" fill="none" xmlns="http://www.w3.org/2000/svg">
<path fill-rule="evenodd" clip-rule="evenodd" d="M20.4167 14.7796C19.2109 14.4888 17.9748 14.3425 16.7344 14.3438C8.7975 14.3438 2.39062 20.2279 2.39062 27.426C2.39062 30.9976 3.98916 34.4051 6.80452 36.8674L6.81089 36.8738C6.91123 36.9592 6.98844 37.0685 7.03538 37.1916C7.08231 37.3147 7.09747 37.4477 7.07944 37.5782L7.07864 37.5838C6.87783 39.1154 6.46186 42.1252 6.46186 42.1252C6.44107 42.2778 6.46492 42.4332 6.53052 42.5726C6.59613 42.7119 6.70068 42.8293 6.83155 42.9106C6.96242 42.9918 7.11402 43.0334 7.26802 43.0304C7.42202 43.0273 7.57185 42.9797 7.69941 42.8934L11.8894 40.0454C12.0854 39.9123 12.3293 39.8732 12.5564 39.9378L12.5603 39.9394C13.911 40.3171 15.3183 40.5083 16.7344 40.5083C21.6439 40.5083 25.9749 38.2532 28.556 34.8346C30.0956 35.3167 31.7483 35.5781 33.4688 35.5781C34.978 35.5781 36.4778 35.3725 37.9161 34.9669L37.9209 34.9661C38.0333 34.9335 38.1515 34.9261 38.267 34.9444C38.3826 34.9627 38.4927 35.0063 38.5895 35.0721L43.0615 38.1121C43.189 38.1989 43.3389 38.2467 43.4931 38.25C43.6472 38.2532 43.799 38.2116 43.93 38.1303C44.061 38.049 44.1656 37.9314 44.2311 37.7918C44.2966 37.6523 44.3202 37.4967 44.2991 37.344C44.2991 37.344 43.8488 34.0919 43.6377 32.4862V32.4814C43.6193 32.3503 43.6344 32.2167 43.6815 32.093C43.7286 31.9693 43.8061 31.8595 43.907 31.7738L43.9142 31.7682C46.908 29.1672 48.6094 25.5582 48.6094 21.7738C48.6094 14.1772 41.8455 7.96875 33.4688 7.96875C27.9018 7.96875 23.0464 10.7108 20.4167 14.7796ZM19.6015 16.23C18.6583 16.0349 17.6976 15.9369 16.7344 15.9375C9.71789 15.9375 3.98438 21.063 3.98438 27.426C3.98438 30.5458 5.39405 33.515 7.85161 35.6665C8.15297 35.925 8.38476 36.2548 8.52577 36.626C8.66679 36.9971 8.71254 37.3976 8.65884 37.791C8.56083 38.5385 8.41181 39.6374 8.28511 40.5681L10.9945 38.7265C11.2833 38.5302 11.6117 38.3997 11.9564 38.3441C12.3012 38.2884 12.654 38.3091 12.9899 38.4046C14.2019 38.7433 15.4642 38.9146 16.7344 38.9146C20.9291 38.9146 24.6585 37.0858 26.987 34.2513C21.8631 32.0312 18.3281 27.2651 18.3281 21.7738C18.3281 19.8047 18.7823 17.9289 19.6015 16.23ZM19.9219 21.7738C19.9219 15.0115 26.0124 9.5625 33.4688 9.5625C40.9251 9.5625 47.0156 15.0115 47.0156 21.7738C47.0156 25.1047 45.5047 28.2747 42.8703 30.5641C42.5667 30.8235 42.3333 31.155 42.1914 31.5282C42.0495 31.9014 42.0037 32.3043 42.0583 32.6998C42.1658 33.5134 42.3356 34.7597 42.4758 35.7869L39.4844 33.7532C39.194 33.5563 38.8639 33.4256 38.5174 33.3705C38.1709 33.3155 37.8165 33.3373 37.4794 33.4345C36.174 33.8006 34.8245 33.9856 33.4688 33.9843C26.0124 33.9843 19.9219 28.5353 19.9219 21.7738ZM18.3281 31.875H11.1562C10.9449 31.875 10.7422 31.959 10.5928 32.1084C10.4433 32.2578 10.3594 32.4605 10.3594 32.6719C10.3594 32.8832 10.4433 33.0859 10.5928 33.2354C10.7422 33.3848 10.9449 33.4688 11.1562 33.4688H18.3281C18.5395 33.4688 18.7422 33.3848 18.8916 33.2354C19.041 33.0859 19.125 32.8832 19.125 32.6719C19.125 32.4605 19.041 32.2578 18.8916 32.1084C18.7422 31.959 18.5395 31.875 18.3281 31.875ZM16.7344 27.0938H11.1562C10.9449 27.0938 10.7422 27.1777 10.5928 27.3271C10.4433 27.4766 10.3594 27.6793 10.3594 27.8906C10.3594 28.102 10.4433 28.3047 10.5928 28.4541C10.7422 28.6035 10.9449 28.6875 11.1562 28.6875H16.7344C16.9457 28.6875 17.1484 28.6035 17.2979 28.4541C17.4473 28.3047 17.5312 28.102 17.5312 27.8906C17.5312 27.6793 17.4473 27.4766 17.2979 27.3271C17.1484 27.1777 16.9457 27.0938 16.7344 27.0938ZM39.8438 19.9219C39.2204 19.938 38.628 20.1969 38.1928 20.6435C37.7576 21.0901 37.5141 21.6889 37.5141 22.3125C37.5141 22.9361 37.7576 23.5349 38.1928 23.9815C38.628 24.4281 39.2204 24.687 39.8438 24.7031C40.4671 24.687 41.0595 24.4281 41.4947 23.9815C41.9299 23.5349 42.1734 22.9361 42.1734 22.3125C42.1734 21.6889 41.9299 21.0901 41.4947 20.6435C41.0595 20.1969 40.4671 19.938 39.8438 19.9219ZM33.4688 19.9219C32.8454 19.938 32.253 20.1969 31.8178 20.6435C31.3826 21.0901 31.1391 21.6889 31.1391 22.3125C31.1391 22.9361 31.3826 23.5349 31.8178 23.9815C32.253 24.4281 32.8454 24.687 33.4688 24.7031C34.0921 24.687 34.6845 24.4281 35.1197 23.9815C35.5549 23.5349 35.7984 22.9361 35.7984 22.3125C35.7984 21.6889 35.5549 21.0901 35.1197 20.6435C34.6845 20.1969 34.0921 19.938 33.4688 19.9219ZM27.0938 19.9219C26.4704 19.938 25.878 20.1969 25.4428 20.6435C25.0076 21.0901 24.7641 21.6889 24.7641 22.3125C24.7641 22.9361 25.0076 23.5349 25.4428 23.9815C25.878 24.4281 26.4704 24.687 27.0938 24.7031C27.7171 24.687 28.3095 24.4281 28.7447 23.9815C29.1799 23.5349 29.4234 22.9361 29.4234 22.3125C29.4234 21.6889 29.1799 21.0901 28.7447 20.6435C28.3095 20.1969 27.7171 19.938 27.0938 19.9219ZM15.9375 22.3125H11.1562C10.9449 22.3125 10.7422 22.3965 10.5928 22.5459C10.4433 22.6953 10.3594 22.898 10.3594 23.1094C10.3594 23.3207 10.4433 23.5234 10.5928 23.6729C10.7422 23.8223 10.9449 23.9062 11.1562 23.9062H15.9375C16.1488 23.9062 16.3515 23.8223 16.501 23.6729C16.6504 23.5234 16.7344 23.3207 16.7344 23.1094C16.7344 22.898 16.6504 22.6953 16.501 22.5459C16.3515 22.3965 16.1488 22.3125 15.9375 22.3125ZM39.8438 21.5156C40.0551 21.5156 40.2578 21.5996 40.4072 21.749C40.5567 21.8985 40.6406 22.1012 40.6406 22.3125C40.6406 22.5238 40.5567 22.7265 40.4072 22.876C40.2578 23.0254 40.0551 23.1094 39.8438 23.1094C39.6324 23.1094 39.4297 23.0254 39.2803 22.876C39.1308 22.7265 39.0469 22.5238 39.0469 22.3125C39.0469 22.1012 39.1308 21.8985 39.2803 21.749C39.4297 21.5996 39.6324 21.5156 39.8438 21.5156ZM33.4688 21.5156C33.6801 21.5156 33.8828 21.5996 34.0322 21.749C34.1817 21.8985 34.2656 22.1012 34.2656 22.3125C34.2656 22.5238 34.1817 22.7265 34.0322 22.876C33.8828 23.0254 33.6801 23.1094 33.4688 23.1094C33.2574 23.1094 33.0547 23.0254 32.9053 22.876C32.7558 22.7265 32.6719 22.5238 32.6719 22.3125C32.6719 22.1012 32.7558 21.8985 32.9053 21.749C33.0547 21.5996 33.2574 21.5156 33.4688 21.5156ZM27.0938 21.5156C27.3051 21.5156 27.5078 21.5996 27.6572 21.749C27.8067 21.8985 27.8906 22.1012 27.8906 22.3125C27.8906 22.5238 27.8067 22.7265 27.6572 22.876C27.5078 23.0254 27.3051 23.1094 27.0938 23.1094C26.8824 23.1094 26.6797 23.0254 26.5303 22.876C26.3808 22.7265 26.2969 22.5238 26.2969 22.3125C26.2969 22.1012 26.3808 21.8985 26.5303 21.749C26.6797 21.5996 26.8824 21.5156 27.0938 21.5156Z" fill="url(#paint0_linear_2_2175)"/>
<defs>
<linearGradient id="paint0_linear_2_2175" x1="1.11688" y1="6.50784" x2="34.4688" y2="18.9083" gradientUnits="userSpaceOnUse">
<stop stop-color="#221769"/>
<stop offset="1" stop-color="#432DCF"/>
</linearGradient>
</defs>
</svg>
