<svg width="51" height="52" viewBox="0 0 51 52" fill="none" xmlns="http://www.w3.org/2000/svg">
<path d="M41.3641 35.0944C42.0176 34.5163 42.541 33.8062 42.8997 33.0108C43.2584 32.2155 43.4442 31.3531 43.4449 30.4806C43.4449 27.069 40.6702 24.2943 37.2595 24.2943C33.8488 24.2943 31.0741 27.0699 31.0741 30.4797C31.0741 32.3151 31.881 33.9602 33.154 35.0935C29.2993 36.0465 26.429 39.5243 26.429 43.6685V47.5975C26.429 47.8413 26.5259 48.0751 26.6982 48.2474C26.8706 48.4198 27.1044 48.5166 27.3481 48.5166H47.1699C47.4137 48.5166 47.6474 48.4198 47.8198 48.2474C47.9922 48.0751 48.089 47.8413 48.089 47.5975V43.6694C48.089 39.5243 45.2187 36.0465 41.3641 35.0944ZM32.9113 30.4806C32.9113 28.0818 34.8616 26.1324 37.2586 26.1324C39.6555 26.1324 41.6067 28.0827 41.6067 30.4797C41.6067 32.8766 39.6564 34.8269 37.2595 34.8269C34.8625 34.8269 32.9122 32.8776 32.9122 30.4797L32.9113 30.4806ZM46.2508 46.6775H28.2672V43.6685C28.2672 39.8065 31.4086 36.6651 35.2706 36.6651H39.2484C43.1094 36.6651 46.2518 39.8065 46.2518 43.6685L46.2508 46.6775ZM17.8237 14.3021C18.4772 13.724 19.0006 13.0138 19.3593 12.2185C19.718 11.4232 19.9038 10.5608 19.9045 9.68827C19.9045 6.27665 17.1289 3.50195 13.7191 3.50195C10.3093 3.50195 7.53278 6.27757 7.53278 9.68736C7.53278 11.5218 8.33973 13.1679 9.61357 14.3011C5.75896 15.2542 2.88867 18.732 2.88867 22.8761V26.8052C2.88867 27.049 2.9855 27.2827 3.15786 27.4551C3.33022 27.6275 3.564 27.7243 3.80775 27.7243H23.6295C23.8733 27.7243 24.1071 27.6275 24.2794 27.4551C24.4518 27.2827 24.5486 27.049 24.5486 26.8052V22.8771C24.5486 18.732 21.6783 15.2542 17.8237 14.3021ZM9.37094 9.68827C9.37094 7.28948 11.3212 5.34011 13.7182 5.34011C16.1151 5.34011 18.0654 7.2904 18.0654 9.68736C18.0654 12.0843 16.1161 14.0346 13.7182 14.0346C11.3203 14.0346 9.37094 12.0862 9.37094 9.68827ZM14.6998 15.8737L14.4525 17.2192H12.9848L12.7375 15.8737H14.6998ZM10.4417 25.8861H4.72683V22.8771C4.72683 19.3028 7.41789 16.3516 10.8791 15.9307L11.29 18.1705L10.4417 25.8861ZM12.2918 25.8861L13.0417 19.0574H14.3946L15.1455 25.8861H12.2918ZM22.7105 25.8861H16.9965L16.1482 18.1705L16.5581 15.9307C20.0203 16.3516 22.7114 19.3037 22.7114 22.8771V25.8861H22.7105ZM35.8046 18.3947L34.4122 16.7707C34.3348 16.6752 34.2392 16.5963 34.1308 16.5384C34.0224 16.4806 33.9036 16.445 33.7812 16.4339C33.6589 16.4228 33.5356 16.4363 33.4186 16.4736C33.3015 16.511 33.1932 16.5714 33.0999 16.6514C33.0066 16.7313 32.9303 16.8291 32.8755 16.9391C32.8207 17.049 32.7885 17.1688 32.7807 17.2914C32.773 17.414 32.7899 17.5369 32.8305 17.6528C32.8711 17.7688 32.9345 17.8754 33.017 17.9664L36.0252 21.4773C36.1114 21.578 36.2185 21.6589 36.339 21.7144C36.4595 21.7698 36.5906 21.7985 36.7232 21.7985C36.8558 21.7985 36.9869 21.7698 37.1074 21.7144C37.2279 21.6589 37.335 21.578 37.4212 21.4773L40.4294 17.9664C40.5771 17.7801 40.6469 17.5438 40.6241 17.3072C40.6013 17.0705 40.4877 16.8519 40.3071 16.6972C40.1265 16.5426 39.893 16.4639 39.6557 16.4778C39.4183 16.4917 39.1956 16.597 39.0342 16.7716L37.6427 18.3947V12.6229C37.6427 12.3791 37.5459 12.1454 37.3735 11.973C37.2012 11.8006 36.9674 11.7038 36.7237 11.7038H24.93C24.6863 11.7038 24.4525 11.8006 24.2801 11.973C24.1078 12.1454 24.011 12.3791 24.011 12.6229C24.011 12.8667 24.1078 13.1004 24.2801 13.2728C24.4525 13.4451 24.6863 13.542 24.93 13.542H35.8046V18.3947ZM23.5496 38.8608H12.6741V34.0099L14.0656 35.6339C14.1438 35.726 14.2394 35.8018 14.347 35.8568C14.4546 35.9118 14.572 35.945 14.6925 35.9544C14.813 35.9638 14.9341 35.9492 15.0489 35.9116C15.1638 35.8739 15.27 35.8139 15.3615 35.735C15.4532 35.6564 15.5286 35.5605 15.5832 35.4528C15.6379 35.345 15.6707 35.2276 15.68 35.1071C15.6892 34.9867 15.6746 34.8656 15.6369 34.7508C15.5993 34.636 15.5395 34.5298 15.4608 34.4382L12.4526 30.9273C12.1034 30.5192 11.4058 30.5192 11.0565 30.9273L8.04838 34.4382C7.90064 34.6244 7.83084 34.8607 7.85364 35.0974C7.87644 35.3341 7.99007 35.5527 8.17066 35.7073C8.35125 35.862 8.58474 35.9406 8.8221 35.9268C9.05945 35.9129 9.2822 35.8076 9.44354 35.633L10.8359 34.0099V39.7799C10.8359 40.0236 10.9328 40.2574 11.1051 40.4297C11.2775 40.6021 11.5113 40.6989 11.755 40.6989H23.5477C23.7915 40.6989 24.0253 40.6021 24.1976 40.4297C24.37 40.2574 24.4668 40.0236 24.4668 39.7799C24.4668 39.5361 24.37 39.3023 24.1976 39.13C24.0253 38.9576 23.7915 38.8608 23.5477 38.8608H23.5496Z" fill="url(#paint0_linear_139_1381)"/>
<defs>
<linearGradient id="paint0_linear_139_1381" x1="1.64299" y1="1.62634" x2="36.0122" y2="11.3603" gradientUnits="userSpaceOnUse">
<stop stop-color="#221769"/>
<stop offset="1" stop-color="#432DCF"/>
</linearGradient>
</defs>
</svg>
