<svg width="46" height="46" viewBox="0 0 46 46" fill="none" xmlns="http://www.w3.org/2000/svg">
<path d="M26.2343 45.1019H35.4237C36.9706 45.1019 38.2246 43.8478 38.2246 42.3009V33.7121C38.2246 32.1652 36.9706 30.9111 35.4237 30.9111H8.74726C7.20033 30.9111 5.94629 32.1652 5.94629 33.7121V42.3009C5.94629 43.8478 7.20033 45.1019 8.74726 45.1019H18.3292" stroke="url(#paint0_linear_2_2185)" stroke-width="1.79687" stroke-miterlimit="10" stroke-linecap="round" stroke-linejoin="round"/>
<path d="M26.6682 41.5812L27.9558 34.4475C27.9879 34.2804 28.221 34.2648 28.2752 34.4261L30.3697 41.5255C30.4204 41.6767 30.6347 41.6757 30.684 41.5239L32.707 34.4273C32.7594 34.2655 32.9926 34.2787 33.0265 34.4453L34.3903 41.5812M15.5651 34.9384C14.9605 34.5295 14.2471 34.3116 13.5172 34.3128C11.4943 34.3128 9.85449 35.9526 9.85449 37.9755C9.85449 39.9985 11.4943 41.6383 13.5172 41.6383C14.3388 41.6383 15.0146 41.3678 15.5275 40.911C15.6339 40.8161 15.7333 40.7136 15.8248 40.6043M20.2787 38.142L23.3559 41.6383M19.3953 34.3128V41.6383M42.4934 23.8786L39.5208 25.6314L37.8122 22.4598M23.3559 36.2167C23.3559 37.2681 22.4339 38.1205 21.3443 38.1205C20.8039 38.1205 19.4113 38.1288 19.4113 38.1288C19.4113 38.1288 19.4025 36.7466 19.4025 36.2166C19.4025 35.7813 19.3977 34.3128 19.3977 34.3128H21.3443C22.434 34.3128 23.3559 35.1652 23.3559 36.2167ZM32.4512 20.0721C31.7281 19.3561 31.7281 18.2159 32.4512 17.4983L33.5853 16.3741C34.1827 15.7813 34.3 14.878 33.8698 14.1635L32.1416 11.284C31.7122 10.5688 30.8403 10.2143 30.0073 10.416L28.4265 10.7976C27.4197 11.0408 26.3928 10.4712 26.1091 9.51026L25.6639 8.00367C25.4276 7.20918 24.673 6.66113 23.8151 6.66113H20.3562C19.4984 6.66113 18.742 7.20918 18.5065 8.00367L18.0623 9.51026C17.7777 10.4711 16.7518 11.0408 15.7441 10.7976L14.1632 10.416C13.3312 10.2144 12.4583 10.5688 12.0298 11.284L10.3016 14.1635C9.87057 14.878 9.98782 15.7814 10.5853 16.3741L11.7202 17.4983C12.4424 18.2159 12.4424 19.3561 11.7202 20.0721L10.5853 21.1979C9.98782 21.7907 9.87057 22.694 10.3016 23.4085L12.0298 26.2879C12.4583 27.0032 13.3312 27.3576 14.1632 27.156L15.7441 26.7736C16.7517 26.5312 17.7777 27.1008 18.0623 28.0617L18.5065 29.5683C18.742 30.3628 19.4983 30.9109 20.3562 30.9109H23.8151C24.673 30.9109 25.4276 30.3628 25.6639 29.5683L26.1091 28.0617C26.3928 27.1009 27.4196 26.5312 28.4265 26.7736L30.0073 27.156C30.8403 27.3576 31.7122 27.0032 32.1416 26.2879L33.8698 23.4085C34.3 22.6939 34.1826 21.7906 33.5853 21.1979L32.4512 20.0721Z" stroke="url(#paint1_linear_2_2185)" stroke-width="1.79687" stroke-miterlimit="10" stroke-linecap="round" stroke-linejoin="round"/>
<path d="M22.0855 23.5237C19.4699 23.5237 17.3477 21.3015 17.3477 18.7853C17.3477 16.2692 19.4699 14.048 22.0856 14.048C24.7024 14.048 26.8234 16.2692 26.8234 18.7853C26.8233 21.3015 24.7022 23.5237 22.0855 23.5237Z" stroke="url(#paint2_linear_2_2185)" stroke-width="1.79687" stroke-miterlimit="10" stroke-linecap="round" stroke-linejoin="round"/>
<path d="M39.5202 25.6312C40.5445 22.7509 40.8705 19.5771 40.3252 16.3487C38.6201 6.25535 29.0555 -0.544747 18.962 1.16031C8.86854 2.86536 2.06854 12.4299 3.77359 22.5234C3.952 23.5805 4.22124 24.6203 4.57832 25.6312" stroke="url(#paint3_linear_2_2185)" stroke-width="1.79687" stroke-miterlimit="10" stroke-linecap="round" stroke-linejoin="round"/>
<defs>
<linearGradient id="paint0_linear_2_2185" x1="5.05673" y1="30.3199" x2="23.8384" y2="42.3695" gradientUnits="userSpaceOnUse">
<stop stop-color="#221769"/>
<stop offset="1" stop-color="#432DCF"/>
</linearGradient>
<linearGradient id="paint1_linear_2_2185" x1="8.955" y1="5.20375" x2="34.0267" y2="11.8026" gradientUnits="userSpaceOnUse">
<stop stop-color="#221769"/>
<stop offset="1" stop-color="#432DCF"/>
</linearGradient>
<linearGradient id="paint2_linear_2_2185" x1="17.0865" y1="13.6532" x2="24.296" y2="15.6867" gradientUnits="userSpaceOnUse">
<stop stop-color="#221769"/>
<stop offset="1" stop-color="#432DCF"/>
</linearGradient>
<linearGradient id="paint3_linear_2_2185" x1="2.48997" y1="-0.132096" x2="28.3239" y2="10.7906" gradientUnits="userSpaceOnUse">
<stop stop-color="#221769"/>
<stop offset="1" stop-color="#432DCF"/>
</linearGradient>
</defs>
</svg>
