<svg width="51" height="52" viewBox="0 0 51 52" fill="none" xmlns="http://www.w3.org/2000/svg">
<g clip-path="url(#clip0_139_1293)">
<path d="M46.75 0.513672H22.95C21.8233 0.515022 20.7431 0.963222 19.9463 1.75996C19.1496 2.5567 18.7014 3.63692 18.7 4.76367V25.1637C18.7024 26.1039 19.017 27.0166 19.5942 27.7587C17.4817 28.8597 15.1322 29.4279 12.75 29.4137H6.80004C5.05553 29.4256 3.38232 30.1075 2.12646 31.3184C0.870611 32.5293 0.12819 34.1766 0.0527529 35.9195C-0.0226845 37.6624 0.574633 39.3676 1.72116 40.6825C2.8677 41.9974 4.47573 42.8214 6.21269 42.9839L8.98369 49.9114C9.17169 50.3854 9.49807 50.7917 9.92031 51.0775C10.3426 51.3633 10.8411 51.5153 11.3509 51.5137H13.6C14.0168 51.5137 14.4272 51.4117 14.7954 51.2164C15.1635 51.0211 15.4782 50.7386 15.7119 50.3935C15.9456 50.0485 16.0911 49.6514 16.1358 49.237C16.1805 48.8227 16.1229 48.4037 15.9681 48.0168L13.9885 43.0681C17.5519 43.3581 20.8923 44.9192 23.4005 47.4668C23.603 47.6714 23.8439 47.8338 24.1094 47.9449C24.3749 48.0559 24.6598 48.1132 24.9475 48.1137C25.2456 48.1128 25.5405 48.053 25.8154 47.9377C26.2252 47.7684 26.5756 47.4813 26.8221 47.1127C27.0686 46.7441 27.2001 46.3106 27.2 45.8671V40.3787C28.1608 40.1836 29.0245 39.6624 29.645 38.9033C30.2654 38.1442 30.6043 37.194 30.6043 36.2137C30.6043 35.2333 30.2654 34.2831 29.645 33.5241C29.0245 32.765 28.1608 32.2438 27.2 32.0487V29.4137H33.15V35.1682C33.1476 35.5337 33.2523 35.892 33.4512 36.1987C33.6502 36.5053 33.9347 36.747 34.2695 36.8937C34.5136 37.0043 34.7784 37.0623 35.0464 37.0637C35.516 37.0623 35.9681 36.8859 36.3146 36.569L44.1805 29.4137H46.75C47.8768 29.4123 48.957 28.9641 49.7538 28.1674C50.5505 27.3706 50.9987 26.2904 51 25.1637V4.76367C50.9987 3.63692 50.5505 2.5567 49.7538 1.75996C48.957 0.963222 47.8768 0.515022 46.75 0.513672ZM1.70004 36.2137C1.70139 34.8615 2.23915 33.5651 3.19529 32.6089C4.15143 31.6528 5.44785 31.115 6.80004 31.1137H11.9V41.3137H6.80004C5.44785 41.3123 4.15143 40.7746 3.19529 39.8184C2.23915 38.8623 1.70139 37.5659 1.70004 36.2137ZM14.3871 48.6475C14.4388 48.7763 14.4581 48.9158 14.4434 49.0538C14.4286 49.1918 14.3803 49.3242 14.3027 49.4392C14.225 49.5542 14.1204 49.6485 13.9979 49.7138C13.8754 49.7791 13.7388 49.8134 13.6 49.8137H11.3509C11.1812 49.8136 11.0153 49.7628 10.8748 49.6676C10.7342 49.5725 10.6253 49.4374 10.5621 49.2799L8.05549 43.0137H12.1355L14.3871 48.6475ZM25.5 45.8671C25.5009 45.9755 25.4688 46.0816 25.4081 46.1715C25.3474 46.2613 25.2609 46.3306 25.16 46.3703C25.0665 46.4126 24.9622 46.4248 24.8614 46.4053C24.7606 46.3859 24.6684 46.3356 24.5973 46.2615C21.6799 43.2976 17.754 41.5401 13.6 41.3383V31.089C17.7549 30.8879 21.6819 29.1303 24.5999 26.1658C24.671 26.0918 24.7632 26.0417 24.864 26.0222C24.9647 26.0027 25.069 26.0149 25.1626 26.057C25.2635 26.0967 25.35 26.166 25.4107 26.2559C25.4714 26.3457 25.5034 26.4518 25.5026 26.5602L25.5 45.8671ZM28.9 36.2137C28.8979 36.7392 28.7334 37.2512 28.4291 37.6797C28.1248 38.1081 27.6955 38.4321 27.2 38.6073V33.8201C27.6955 33.9952 28.1248 34.3192 28.4291 34.7477C28.7334 35.1761 28.8979 35.6882 28.9 36.2137ZM49.3 25.1637C49.3 25.84 49.0314 26.4886 48.5532 26.9668C48.075 27.445 47.4263 27.7137 46.75 27.7137H43.8515C43.6399 27.7138 43.4359 27.7929 43.2795 27.9355L35.1747 35.3093C35.1474 35.3369 35.1121 35.3552 35.0737 35.3614C35.0354 35.3677 34.9961 35.3616 34.9614 35.3441C34.9267 35.3302 34.8972 35.3058 34.8772 35.2742C34.8572 35.2426 34.8477 35.2055 34.85 35.1682V28.5637C34.85 28.3382 34.7605 28.122 34.6011 27.9626C34.4417 27.8032 34.2255 27.7137 34 27.7137H27.2V26.5602C27.2013 26.1158 27.0703 25.681 26.8238 25.3112C26.5772 24.9414 26.2262 24.6534 25.8154 24.4837C25.4119 24.3111 24.9657 24.2639 24.535 24.3484C24.1043 24.4328 23.709 24.6449 23.4005 24.9571C22.6869 25.6683 21.908 26.3109 21.0741 26.8764C20.6432 26.4098 20.4028 25.7988 20.4 25.1637V4.76367C20.4 4.08737 20.6687 3.43877 21.1469 2.96055C21.6251 2.48233 22.2737 2.21367 22.95 2.21367H46.75C47.4263 2.21367 48.075 2.48233 48.5532 2.96055C49.0314 3.43877 49.3 4.08737 49.3 4.76367V25.1637Z" fill="url(#paint0_linear_139_1293)"/>
<path d="M24.65 8.16362H35.7001C35.9255 8.16362 36.1417 8.07407 36.3011 7.91466C36.4605 7.75526 36.55 7.53906 36.55 7.31362C36.55 7.08819 36.4605 6.87199 36.3011 6.71258C36.1417 6.55318 35.9255 6.46362 35.7001 6.46362H24.65C24.4246 6.46362 24.2084 6.55318 24.049 6.71258C23.8896 6.87199 23.8 7.08819 23.8 7.31362C23.8 7.53906 23.8896 7.75526 24.049 7.91466C24.2084 8.07407 24.4246 8.16362 24.65 8.16362ZM45.0501 12.4136H24.65C24.4246 12.4136 24.2084 12.5032 24.049 12.6626C23.8896 12.822 23.8 13.0382 23.8 13.2636C23.8 13.4891 23.8896 13.7053 24.049 13.8647C24.2084 14.0241 24.4246 14.1136 24.65 14.1136H45.0501C45.2755 14.1136 45.4917 14.0241 45.6511 13.8647C45.8105 13.7053 45.9001 13.4891 45.9001 13.2636C45.9001 13.0382 45.8105 12.822 45.6511 12.6626C45.4917 12.5032 45.2755 12.4136 45.0501 12.4136ZM45.0501 16.6636H31.45C31.2246 16.6636 31.0084 16.7532 30.849 16.9126C30.6896 17.072 30.6 17.2882 30.6 17.5136C30.6 17.7391 30.6896 17.9553 30.849 18.1147C31.0084 18.2741 31.2246 18.3636 31.45 18.3636H45.0501C45.2755 18.3636 45.4917 18.2741 45.6511 18.1147C45.8105 17.9553 45.9001 17.7391 45.9001 17.5136C45.9001 17.2882 45.8105 17.072 45.6511 16.9126C45.4917 16.7532 45.2755 16.6636 45.0501 16.6636ZM24.65 18.3636H28.05C28.2755 18.3636 28.4917 18.2741 28.6511 18.1147C28.8105 17.9553 28.9 17.7391 28.9 17.5136C28.9 17.2882 28.8105 17.072 28.6511 16.9126C28.4917 16.7532 28.2755 16.6636 28.05 16.6636H24.65C24.4246 16.6636 24.2084 16.7532 24.049 16.9126C23.8896 17.072 23.8 17.2882 23.8 17.5136C23.8 17.7391 23.8896 17.9553 24.049 18.1147C24.2084 18.2741 24.4246 18.3636 24.65 18.3636ZM41.6501 20.9136H24.65C24.4246 20.9136 24.2084 21.0032 24.049 21.1626C23.8896 21.322 23.8 21.5382 23.8 21.7636C23.8 21.9891 23.8896 22.2053 24.049 22.3647C24.2084 22.5241 24.4246 22.6136 24.65 22.6136H41.6501C41.8755 22.6136 42.0917 22.5241 42.2511 22.3647C42.4105 22.2053 42.5001 21.9891 42.5001 21.7636C42.5001 21.5382 42.4105 21.322 42.2511 21.1626C42.0917 21.0032 41.8755 20.9136 41.6501 20.9136Z" fill="url(#paint1_linear_139_1293)"/>
</g>
<defs>
<linearGradient id="paint0_linear_139_1293" x1="-1.35785" y1="-1.61133" x2="37.4148" y2="9.31472" gradientUnits="userSpaceOnUse">
<stop stop-color="#221769"/>
<stop offset="1" stop-color="#432DCF"/>
</linearGradient>
<linearGradient id="paint1_linear_139_1293" x1="23.191" y1="5.79071" x2="38.9896" y2="11.8885" gradientUnits="userSpaceOnUse">
<stop stop-color="#221769"/>
<stop offset="1" stop-color="#432DCF"/>
</linearGradient>
<clipPath id="clip0_139_1293">
<rect width="51" height="51" fill="white" transform="translate(0 0.513672)"/>
</clipPath>
</defs>
</svg>
