<svg width="52" height="52" viewBox="0 0 52 52" fill="none" xmlns="http://www.w3.org/2000/svg">
<path d="M40.782 2.06836H11.2179C10.6132 2.0692 10.0336 2.30981 9.60604 2.73742C9.1785 3.16503 8.93799 3.74474 8.93726 4.34941V46.6778C8.93799 47.2825 9.1785 47.8622 9.60604 48.2898C10.0336 48.7174 10.6132 48.958 11.2179 48.9589H40.782C41.3867 48.958 41.9663 48.7174 42.3938 48.2898C42.8214 47.8622 43.0619 47.2825 43.0626 46.6778V4.34941C43.0619 3.74474 42.8214 3.16503 42.3938 2.73742C41.9663 2.30981 41.3867 2.0692 40.782 2.06836ZM41.6681 46.6778C41.6679 46.9128 41.5745 47.1381 41.4083 47.3043C41.2422 47.4705 41.017 47.564 40.782 47.5643H11.2179C10.9829 47.564 10.7577 47.4705 10.5915 47.3043C10.4254 47.1381 10.332 46.9128 10.3318 46.6778V4.34941C10.332 4.11443 10.4254 3.88912 10.5915 3.72292C10.7577 3.55672 10.9829 3.46321 11.2179 3.46289H40.782C41.017 3.46321 41.2422 3.55672 41.4083 3.72292C41.5745 3.88912 41.6679 4.11443 41.6681 4.34941V46.6778Z" fill="url(#paint0_linear_139_1357)"/>
<path d="M21.9476 15.6878H30.0518C30.415 15.6874 30.7632 15.5429 31.0199 15.286C31.2767 15.0291 31.421 14.6808 31.4212 14.3176V6.21455C31.4209 5.85142 31.2765 5.50324 31.0198 5.24643C30.7631 4.98962 30.4149 4.84515 30.0518 4.84473H21.9476C21.5844 4.84515 21.2363 4.98962 20.9796 5.24643C20.7228 5.50324 20.5784 5.85142 20.5781 6.21455V14.3176C20.5783 14.6808 20.7227 15.0291 20.9794 15.286C21.2362 15.5429 21.5844 15.6874 21.9476 15.6878ZM21.9727 14.318L21.9675 12.6641H30.0267V14.2933L21.9727 14.318ZM25.3024 6.2293V7.98242C25.3024 8.16735 25.3759 8.3447 25.5066 8.47546C25.6374 8.60623 25.8147 8.67969 25.9997 8.67969C26.1846 8.67969 26.3619 8.60623 26.4927 8.47546C26.6235 8.3447 26.6969 8.16735 26.6969 7.98242V6.22452L30.0267 6.21455V11.2695H21.9631L21.9476 6.23926L25.3024 6.2293ZM14.4251 19.3335H14.8948V23.9482C14.8948 24.1331 14.9683 24.3105 15.099 24.4413C15.2298 24.572 15.4072 24.6455 15.5921 24.6455C15.777 24.6455 15.9544 24.572 16.0851 24.4413C16.2159 24.3105 16.2894 24.1331 16.2894 23.9482V18.6362C16.2894 18.5447 16.2714 18.454 16.2364 18.3693C16.2014 18.2847 16.15 18.2078 16.0852 18.1431C16.0205 18.0783 15.9436 18.027 15.859 17.9919C15.7744 17.9569 15.6837 17.9389 15.5921 17.939H14.4251C14.2401 17.939 14.0628 18.0124 13.932 18.1432C13.8013 18.274 13.7278 18.4513 13.7278 18.6362C13.7278 18.8212 13.8013 18.9985 13.932 19.1293C14.0628 19.26 14.2401 19.3335 14.4251 19.3335ZM13.9752 33.6279H17.0492C17.2341 33.6279 17.4115 33.5544 17.5422 33.4236C17.673 33.2929 17.7464 33.1155 17.7464 32.9306C17.7464 32.7457 17.673 32.5683 17.5422 32.4375C17.4115 32.3068 17.2341 32.2333 17.0492 32.2333H16.2778C17.0573 31.5143 17.5729 30.5545 17.7421 29.5076C17.7421 29.4869 17.7448 29.4658 17.7448 29.4443C17.737 28.8569 17.4982 28.2962 17.08 27.8836C16.6619 27.471 16.098 27.2397 15.5106 27.2397C14.9232 27.2397 14.3594 27.471 13.9412 27.8836C13.5231 28.2962 13.2842 28.8569 13.2764 29.4443C13.2764 29.6292 13.3498 29.8065 13.4806 29.9373C13.6114 30.0681 13.7887 30.1415 13.9736 30.1415C14.1586 30.1415 14.3359 30.0681 14.4667 29.9373C14.5974 29.8065 14.6709 29.6292 14.6709 29.4443C14.6721 29.2258 14.7584 29.0164 14.9115 28.8605C15.0646 28.7046 15.2724 28.6145 15.4909 28.6093C15.7093 28.6041 15.9211 28.6842 16.0815 28.8327C16.2418 28.9811 16.3379 29.1862 16.3495 29.4044C16.3097 29.6618 15.9694 31.2866 13.6923 32.2911C13.546 32.3557 13.4264 32.4686 13.3534 32.6109C13.2804 32.7532 13.2586 32.9163 13.2916 33.0727C13.3246 33.2292 13.4103 33.3696 13.5345 33.4704C13.6587 33.5712 13.8137 33.6262 13.9736 33.6263L13.9752 33.6279ZM15.5921 35.3551C15.0082 35.3558 14.4484 35.5881 14.0356 36.001C13.6228 36.4139 13.3906 36.9737 13.3899 37.5576C13.3899 37.7426 13.4634 37.9199 13.5941 38.0507C13.7249 38.1814 13.9023 38.2549 14.0872 38.2549C14.2721 38.2549 14.4495 38.1814 14.5802 38.0507C14.711 37.9199 14.7845 37.7426 14.7845 37.5576C14.7844 37.3979 14.8317 37.2417 14.9204 37.1088C15.0091 36.976 15.1352 36.8724 15.2827 36.8112C15.4303 36.75 15.5927 36.734 15.7494 36.7651C15.9061 36.7962 16.05 36.8731 16.163 36.986C16.276 37.099 16.353 37.2429 16.3842 37.3995C16.4154 37.5562 16.3994 37.7186 16.3383 37.8662C16.2772 38.0138 16.1736 38.14 16.0408 38.2287C15.908 38.3175 15.7518 38.3649 15.5921 38.3649C15.4072 38.3649 15.2298 38.4383 15.099 38.5691C14.9683 38.6999 14.8948 38.8772 14.8948 39.0621C14.8948 39.2471 14.9683 39.4244 15.099 39.5552C15.2298 39.6859 15.4072 39.7594 15.5921 39.7594C15.7518 39.7594 15.908 39.8068 16.0408 39.8955C16.1736 39.9843 16.2772 40.1105 16.3383 40.2581C16.3994 40.4057 16.4154 40.5681 16.3842 40.7247C16.353 40.8814 16.276 41.0253 16.163 41.1383C16.05 41.2512 15.9061 41.3281 15.7494 41.3592C15.5927 41.3903 15.4303 41.3743 15.2827 41.3131C15.1352 41.2519 15.0091 41.1483 14.9204 41.0154C14.8317 40.8826 14.7844 40.7264 14.7845 40.5666C14.7845 40.3817 14.711 40.2044 14.5802 40.0736C14.4495 39.9428 14.2721 39.8694 14.0872 39.8694C13.9023 39.8694 13.7249 39.9428 13.5941 40.0736C13.4634 40.2044 13.3899 40.3817 13.3899 40.5666C13.3898 40.9258 13.4776 41.2796 13.6456 41.5971C13.8136 41.9146 14.0567 42.1862 14.3537 42.3882C14.6507 42.5902 14.9926 42.7164 15.3497 42.756C15.7067 42.7955 16.0679 42.7471 16.402 42.615C16.736 42.4829 17.0326 42.2711 17.266 41.9981C17.4994 41.725 17.6625 41.3991 17.741 41.0486C17.8195 40.698 17.8111 40.3336 17.7165 39.9871C17.6219 39.6406 17.4439 39.3225 17.1982 39.0605C17.4913 38.7473 17.6866 38.3551 17.7598 37.9324C17.8331 37.5096 17.7812 37.0747 17.6106 36.681C17.44 36.2873 17.158 35.9521 16.7994 35.7165C16.4408 35.481 16.0211 35.3553 15.5921 35.3551ZM38.0241 18.7235H20.3502C20.1653 18.7235 19.9879 18.797 19.8572 18.9277C19.7264 19.0585 19.653 19.2358 19.653 19.4208C19.653 19.6057 19.7264 19.783 19.8572 19.9138C19.9879 20.0446 20.1653 20.118 20.3502 20.118H38.0241C38.209 20.118 38.3864 20.0446 38.5172 19.9138C38.6479 19.783 38.7214 19.6057 38.7214 19.4208C38.7214 19.2358 38.6479 19.0585 38.5172 18.9277C38.3864 18.797 38.209 18.7235 38.0241 18.7235ZM38.0241 22.4668H20.3502C20.1653 22.4668 19.9879 22.5403 19.8572 22.671C19.7264 22.8018 19.653 22.9792 19.653 23.1641C19.653 23.349 19.7264 23.5264 19.8572 23.6571C19.9879 23.7879 20.1653 23.8614 20.3502 23.8614H38.0241C38.209 23.8614 38.3864 23.7879 38.5172 23.6571C38.6479 23.5264 38.7214 23.349 38.7214 23.1641C38.7214 22.9792 38.6479 22.8018 38.5172 22.671C38.3864 22.5403 38.209 22.4668 38.0241 22.4668ZM38.0241 27.8501H20.3502C20.1653 27.8501 19.9879 27.9236 19.8572 28.0543C19.7264 28.1851 19.653 28.3624 19.653 28.5474C19.653 28.7323 19.7264 28.9097 19.8572 29.0404C19.9879 29.1712 20.1653 29.2446 20.3502 29.2446H38.0241C38.209 29.2446 38.3864 29.1712 38.5172 29.0404C38.6479 28.9097 38.7214 28.7323 38.7214 28.5474C38.7214 28.3624 38.6479 28.1851 38.5172 28.0543C38.3864 27.9236 38.209 27.8501 38.0241 27.8501ZM38.0241 31.5934H20.3502C20.1653 31.5934 19.9879 31.6669 19.8572 31.7977C19.7264 31.9284 19.653 32.1058 19.653 32.2907C19.653 32.4756 19.7264 32.653 19.8572 32.7837C19.9879 32.9145 20.1653 32.988 20.3502 32.988H38.0241C38.209 32.988 38.3864 32.9145 38.5172 32.7837C38.6479 32.653 38.7214 32.4756 38.7214 32.2907C38.7214 32.1058 38.6479 31.9284 38.5172 31.7977C38.3864 31.6669 38.209 31.5934 38.0241 31.5934ZM38.0241 36.9771H20.3502C20.1653 36.9771 19.9879 37.0506 19.8572 37.1813C19.7264 37.3121 19.653 37.4895 19.653 37.6744C19.653 37.8593 19.7264 38.0367 19.8572 38.1674C19.9879 38.2982 20.1653 38.3717 20.3502 38.3717H38.0241C38.209 38.3717 38.3864 38.2982 38.5172 38.1674C38.6479 38.0367 38.7214 37.8593 38.7214 37.6744C38.7214 37.4895 38.6479 37.3121 38.5172 37.1813C38.3864 37.0506 38.209 36.9771 38.0241 36.9771ZM38.0241 40.7204H20.3502C20.1653 40.7204 19.9879 40.7939 19.8572 40.9247C19.7264 41.0554 19.653 41.2328 19.653 41.4177C19.653 41.6026 19.7264 41.78 19.8572 41.9107C19.9879 42.0415 20.1653 42.115 20.3502 42.115H38.0241C38.209 42.115 38.3864 42.0415 38.5172 41.9107C38.6479 41.78 38.7214 41.6026 38.7214 41.4177C38.7214 41.2328 38.6479 41.0554 38.5172 40.9247C38.3864 40.7939 38.209 40.7204 38.0241 40.7204Z" fill="url(#paint1_linear_139_1357)"/>
<defs>
<linearGradient id="paint0_linear_139_1357" x1="7.99679" y1="0.114587" x2="34.8929" y2="5.63555" gradientUnits="userSpaceOnUse">
<stop stop-color="#221769"/>
<stop offset="1" stop-color="#432DCF"/>
</linearGradient>
<linearGradient id="paint1_linear_139_1357" x1="12.5751" y1="3.26453" x2="32.7522" y2="7.08285" gradientUnits="userSpaceOnUse">
<stop stop-color="#221769"/>
<stop offset="1" stop-color="#432DCF"/>
</linearGradient>
</defs>
</svg>
