<svg width="51" height="52" viewBox="0 0 51 52" fill="none" xmlns="http://www.w3.org/2000/svg">
<g clip-path="url(#clip0_139_1287)">
<path d="M0.74707 5.12837V2.05762C0.74707 1.84627 0.831027 1.64358 0.98047 1.49414C1.12991 1.3447 1.3326 1.26074 1.54395 1.26074H13.8955C14.1069 1.26074 14.3095 1.3447 14.459 1.49414C14.6084 1.64358 14.6924 1.84627 14.6924 2.05762V13.4131C14.6924 13.6244 14.6084 13.8271 14.459 13.9766C14.3095 14.126 14.1069 14.21 13.8955 14.21H1.54395C1.3326 14.21 1.12991 14.126 0.98047 13.9766C0.831027 13.8271 0.74707 13.6244 0.74707 13.4131V8.68652M4.2334 4.54785H8.21777M4.2334 7.73535H11.2061M4.2334 10.9229H11.2061M22.0137 4.54785H25.998M22.0137 7.73535H28.9863M22.0137 10.9229H28.9863M39.7939 4.54785H43.7783M39.7939 7.73535H46.7666M39.7939 10.9229H46.7666M23.5078 27.2692L25.5 28.7634L27.4922 27.2692M25.5 28.4576V18.3438M18.6206 27.2692L16.6284 28.7634L14.6362 27.2692M31.6758 14.21H19.3242C19.1129 14.21 18.9102 14.126 18.7607 13.9766C18.6113 13.8271 18.5273 13.6244 18.5273 13.4131V2.05762C18.5273 1.84627 18.6113 1.64358 18.7607 1.49414C18.9102 1.3447 19.1129 1.26074 19.3242 1.26074H31.6758C31.8871 1.26074 32.0898 1.3447 32.2393 1.49414C32.3887 1.64358 32.4727 1.84627 32.4727 2.05762V13.4131C32.4727 13.6244 32.3887 13.8271 32.2393 13.9766C32.0898 14.126 31.8871 14.21 31.6758 14.21ZM49.4561 14.21H37.1045C36.8931 14.21 36.6905 14.126 36.541 13.9766C36.3916 13.8271 36.3076 13.6244 36.3076 13.4131V2.05762C36.3076 1.84627 36.3916 1.64358 36.541 1.49414C36.6905 1.3447 36.8931 1.26074 37.1045 1.26074H49.4561C49.6674 1.26074 49.8701 1.3447 50.0195 1.49414C50.169 1.64358 50.2529 1.84627 50.2529 2.05762V13.4131C50.2529 13.6244 50.169 13.8271 50.0195 13.9766C49.8701 14.126 49.6674 14.21 49.4561 14.21Z" stroke="url(#paint0_linear_139_1287)" stroke-width="1.49414" stroke-miterlimit="10" stroke-linecap="round" stroke-linejoin="round"/>
<path d="M16.6283 28.3325C16.6283 28.3325 17.1392 23.8721 13.0552 22.7764C10.1187 21.9886 8.57275 20.0869 8.07471 17.9951M32.3793 27.2692L34.3715 28.7634L36.3637 27.2692" stroke="url(#paint1_linear_139_1287)" stroke-width="1.49414" stroke-miterlimit="10" stroke-linecap="round" stroke-linejoin="round"/>
<path d="M34.3716 28.3325C34.3716 28.3325 33.8607 23.8721 37.9447 22.7764C40.8812 21.9886 42.4271 20.0869 42.9252 17.9951M33.1171 32.5381H37.2539C38.0791 32.5381 38.748 33.2071 38.748 34.0322C38.748 34.8574 38.0791 35.5264 37.2539 35.5264H13.7461C12.9209 35.5264 12.252 34.8574 12.252 34.0322C12.252 33.2071 12.9209 32.5381 13.7461 32.5381H29.5219M28.4892 42.2998H22.5108L15.4395 35.5264H35.5605L28.4892 42.2998ZM27.5966 50.7666H23.4034C23.1669 50.7666 22.9401 50.6727 22.7729 50.5054C22.6057 50.3382 22.5117 50.1114 22.5117 49.8749V42.2998H28.4883V49.8749C28.4883 50.1114 28.3943 50.3382 28.2271 50.5054C28.0599 50.6727 27.8331 50.7666 27.5966 50.7666Z" stroke="url(#paint2_linear_139_1287)" stroke-width="1.49414" stroke-miterlimit="10" stroke-linecap="round" stroke-linejoin="round"/>
</g>
<defs>
<linearGradient id="paint0_linear_139_1287" x1="-0.617264" y1="0.114798" x2="31.7117" y2="16.5285" gradientUnits="userSpaceOnUse">
<stop stop-color="#221769"/>
<stop offset="1" stop-color="#432DCF"/>
</linearGradient>
<linearGradient id="paint1_linear_139_1287" x1="7.29509" y1="17.5464" x2="22.295" y2="28.661" gradientUnits="userSpaceOnUse">
<stop stop-color="#221769"/>
<stop offset="1" stop-color="#432DCF"/>
</linearGradient>
<linearGradient id="paint2_linear_139_1287" x1="11.4066" y1="16.6296" x2="34.9591" y2="22.8474" gradientUnits="userSpaceOnUse">
<stop stop-color="#221769"/>
<stop offset="1" stop-color="#432DCF"/>
</linearGradient>
<clipPath id="clip0_139_1287">
<rect width="51" height="51" fill="white" transform="translate(0 0.513672)"/>
</clipPath>
</defs>
</svg>
