<svg width="51" height="52" viewBox="0 0 51 52" fill="none" xmlns="http://www.w3.org/2000/svg">
<path d="M31.1667 8.30534C31.3546 8.30534 31.5348 8.23071 31.6676 8.09787C31.8005 7.96503 31.8751 7.78487 31.8751 7.59701C31.8751 7.40914 31.8005 7.22898 31.6676 7.09614C31.5348 6.9633 31.3546 6.88867 31.1667 6.88867H29.7501C29.5622 6.88867 29.3821 6.9633 29.2492 7.09614C29.1164 7.22898 29.0417 7.40914 29.0417 7.59701C29.0417 7.78487 29.1164 7.96503 29.2492 8.09787C29.3821 8.23071 29.5622 8.30534 29.7501 8.30534H31.1667ZM6.37508 4.76367C6.18722 4.76367 6.00705 4.8383 5.87421 4.97114C5.74138 5.10398 5.66675 5.28414 5.66675 5.47201C5.66675 5.65987 5.74138 5.84003 5.87421 5.97287C6.00705 6.10571 6.18722 6.18034 6.37508 6.18034H7.08341C7.27128 6.18034 7.45144 6.10571 7.58428 5.97287C7.71712 5.84003 7.79175 5.65987 7.79175 5.47201C7.79175 5.28414 7.71712 5.10398 7.58428 4.97114C7.45144 4.8383 7.27128 4.76367 7.08341 4.76367H6.37508ZM9.20842 4.76367C9.02055 4.76367 8.84039 4.8383 8.70755 4.97114C8.57471 5.10398 8.50008 5.28414 8.50008 5.47201C8.50008 5.65987 8.57471 5.84003 8.70755 5.97287C8.84039 6.10571 9.02055 6.18034 9.20842 6.18034H9.91675C10.1046 6.18034 10.2848 6.10571 10.4176 5.97287C10.5505 5.84003 10.6251 5.65987 10.6251 5.47201C10.6251 5.28414 10.5505 5.10398 10.4176 4.97114C10.2848 4.8383 10.1046 4.76367 9.91675 4.76367H9.20842ZM12.0417 4.76367C11.8539 4.76367 11.6737 4.8383 11.5409 4.97114C11.408 5.10398 11.3334 5.28414 11.3334 5.47201C11.3334 5.65987 11.408 5.84003 11.5409 5.97287C11.6737 6.10571 11.8539 6.18034 12.0417 6.18034H12.7501C12.9379 6.18034 13.1181 6.10571 13.2509 5.97287C13.3838 5.84003 13.4584 5.65987 13.4584 5.47201C13.4584 5.28414 13.3838 5.10398 13.2509 4.97114C13.1181 4.8383 12.9379 4.76367 12.7501 4.76367H12.0417Z" fill="url(#paint0_linear_139_1277)"/>
<path d="M48.1667 47.972H5.66667C5.10325 47.9714 4.56308 47.7474 4.16469 47.349C3.76629 46.9506 3.54223 46.4104 3.54167 45.847V8.30534H26.9167C27.1045 8.30534 27.2847 8.23071 27.4175 8.09787C27.5504 7.96503 27.625 7.78487 27.625 7.597C27.625 7.40914 27.5504 7.22898 27.4175 7.09614C27.2847 6.9633 27.1045 6.88867 26.9167 6.88867H3.54167V6.18034C3.54223 5.61693 3.76629 5.07675 4.16469 4.67836C4.56308 4.27996 5.10325 4.0559 5.66667 4.05534H31.1667C31.7301 4.0559 32.2703 4.27996 32.6686 4.67836C33.067 5.07675 33.2911 5.61693 33.2917 6.18034V26.722C33.2917 26.9099 33.3663 27.09 33.4991 27.2229C33.632 27.3557 33.8121 27.4303 34 27.4303C34.1879 27.4303 34.368 27.3557 34.5009 27.2229C34.6337 27.09 34.7083 26.9099 34.7083 26.722V6.18034C34.7072 5.24138 34.3337 4.34119 33.6698 3.67724C33.0058 3.0133 32.1056 2.6398 31.1667 2.63867H5.66667C4.7277 2.6398 3.82752 3.0133 3.16357 3.67724C2.49962 4.34119 2.12612 5.24138 2.125 6.18034V45.847C2.12612 46.786 2.49962 47.6862 3.16357 48.3501C3.82752 49.014 4.7277 49.3875 5.66667 49.3887H48.1667C48.3545 49.3887 48.5347 49.314 48.6675 49.1812C48.8004 49.0484 48.875 48.8682 48.875 48.6803C48.875 48.4925 48.8004 48.3123 48.6675 48.1795C48.5347 48.0466 48.3545 47.972 48.1667 47.972Z" fill="url(#paint1_linear_139_1277)"/>
<path d="M18.4167 10.4303H8.5C7.93659 10.4309 7.39641 10.6549 6.99802 11.0533C6.59963 11.4517 6.37556 11.9919 6.375 12.5553V22.472C6.37556 23.0354 6.59963 23.5756 6.99802 23.9739C7.39641 24.3723 7.93659 24.5964 8.5 24.597H13.4583C13.6462 24.597 13.8264 24.5223 13.9592 24.3895C14.092 24.2567 14.1667 24.0765 14.1667 23.8886C14.1667 23.7008 14.092 23.5206 13.9592 23.3878C13.8264 23.2549 13.6462 23.1803 13.4583 23.1803H8.5C8.3122 23.1801 8.13214 23.1054 7.99934 22.9726C7.86654 22.8398 7.79185 22.6598 7.79167 22.472V12.5553C7.79185 12.3675 7.86654 12.1874 7.99934 12.0546C8.13214 11.9218 8.3122 11.8472 8.5 11.847H18.4167C18.6045 11.8472 18.7845 11.9218 18.9173 12.0546C19.0501 12.1874 19.1248 12.3675 19.125 12.5553V17.5136C19.125 17.7015 19.1996 17.8817 19.3325 18.0145C19.4653 18.1473 19.6455 18.222 19.8333 18.222C20.0212 18.222 20.2014 18.1473 20.3342 18.0145C20.467 17.8817 20.5417 17.7015 20.5417 17.5136V12.5553C20.5411 11.9919 20.317 11.4517 19.9186 11.0533C19.5203 10.6549 18.9801 10.4309 18.4167 10.4303Z" fill="url(#paint2_linear_139_1277)"/>
<path d="M25.4646 21.5413C25.4307 21.439 25.3738 21.3459 25.2985 21.269C25.2231 21.192 25.1312 21.1332 25.0297 21.0971L15.113 17.5555C14.9915 17.5122 14.8604 17.5029 14.7339 17.5287C14.6074 17.5544 14.4904 17.6143 14.3955 17.7017C14.3006 17.7891 14.2313 17.9008 14.1952 18.0247C14.1592 18.1486 14.1576 18.28 14.1908 18.4048L17.0241 29.0298C17.0532 29.1384 17.1077 29.2386 17.1832 29.322C17.2587 29.4054 17.3529 29.4696 17.4581 29.5093C17.5633 29.549 17.6765 29.5632 17.7883 29.5505C17.9 29.5378 18.0071 29.4987 18.1008 29.4364L20.5934 27.7753L24.2909 31.4728C24.4237 31.6056 24.6039 31.6802 24.7917 31.6802C24.9795 31.6802 25.1597 31.6056 25.2925 31.4728L27.4175 29.3478C27.5503 29.215 27.6249 29.0348 27.6249 28.847C27.6249 28.6592 27.5503 28.4791 27.4175 28.3462L23.72 24.6487L25.381 22.1568C25.4408 22.0672 25.4793 21.9651 25.4937 21.8583C25.5081 21.7515 25.4979 21.6428 25.4639 21.5406L25.4646 21.5413ZM25.9144 28.847L24.7917 29.9704L21.1842 26.3629C21.0684 26.2472 20.9162 26.1752 20.7534 26.1591C20.5905 26.143 20.4271 26.1837 20.2909 26.2744L18.1376 27.7094L15.9071 19.3426L23.6987 22.1256L22.219 24.3456C22.1282 24.4818 22.0873 24.6454 22.1035 24.8084C22.1196 24.9713 22.1917 25.1237 22.3076 25.2395L25.9144 28.847Z" fill="url(#paint3_linear_139_1277)"/>
<path d="M24.2768 38.9854C23.9925 38.8597 23.6851 38.7946 23.3742 38.7942C23.0634 38.7939 22.7558 38.8582 22.4712 38.9833L18.9126 35.4246C19.051 35.1408 19.1237 34.8295 19.1251 34.5137C19.127 34.1938 19.0567 33.8776 18.9194 33.5886C18.7821 33.2996 18.5814 33.0454 18.3321 32.8449C18.0828 32.6444 17.7915 32.5027 17.4798 32.4305C17.1682 32.3582 16.8442 32.3573 16.5322 32.4278C16.2201 32.4982 15.928 32.6382 15.6776 32.8373C15.4271 33.0364 15.2249 33.2895 15.086 33.5777C14.947 33.8659 14.875 34.1817 14.8751 34.5016C14.8753 34.8215 14.9476 35.1373 15.0869 35.4253L9.41098 41.1012C9.12721 40.9627 8.81583 40.8901 8.50006 40.8887C8.03452 40.8849 7.58041 41.0328 7.20643 41.3101C6.83244 41.5874 6.55894 41.9789 6.42729 42.4254C6.29565 42.872 6.31302 43.3493 6.47679 43.7851C6.64056 44.2209 6.94181 44.5915 7.33496 44.8408C7.72811 45.0902 8.19178 45.2047 8.65581 45.167C9.11984 45.1294 9.55899 44.9416 9.90681 44.6322C10.2546 44.3227 10.4922 43.9084 10.5836 43.4519C10.675 42.9954 10.6152 42.5216 10.4133 42.1021L16.0891 36.4262C16.3726 36.5659 16.6843 36.6386 17.0003 36.6387C17.3163 36.6388 17.6281 36.5664 17.9117 36.4269L21.4626 39.9778C21.3241 40.2616 21.2514 40.5729 21.2501 40.8887C21.2481 41.2086 21.3184 41.5248 21.4557 41.8138C21.593 42.1028 21.7938 42.357 22.043 42.5575C22.2923 42.7581 22.5836 42.8997 22.8953 42.9719C23.207 43.0442 23.5309 43.0451 23.843 42.9746C24.155 42.9042 24.4472 42.7642 24.6976 42.5651C24.948 42.366 25.1502 42.1129 25.2891 41.8247C25.4281 41.5365 25.5002 41.2207 25.5 40.9008C25.4999 40.5809 25.4275 40.2651 25.2883 39.9771L39.4641 25.8012C39.7476 25.9408 40.0594 26.0135 40.3753 26.0136C40.6913 26.0137 41.0031 25.9413 41.2867 25.8019L44.8376 29.3528C44.699 29.6365 44.6264 29.9479 44.6251 30.2637C44.6214 30.7291 44.7693 31.183 45.0465 31.5567C45.3237 31.9305 45.7151 32.2039 46.1615 32.3354C46.6079 32.467 47.085 32.4495 47.5206 32.2858C47.9562 32.1221 48.3266 31.821 48.5759 31.428C48.8251 31.035 48.9396 30.5715 48.902 30.1077C48.8644 29.6438 48.6768 29.2049 48.3675 28.8571C48.0582 28.5094 47.6441 28.2719 47.1878 28.1805C46.7315 28.0891 46.2578 28.1488 45.8384 28.3505L42.2876 24.7996C42.4261 24.5159 42.4987 24.2045 42.5001 23.8887C42.502 23.5688 42.4317 23.2526 42.2944 22.9636C42.1571 22.6746 41.9564 22.4204 41.7071 22.2199C41.4578 22.0194 41.1665 21.8777 40.8548 21.8055C40.5432 21.7332 40.2192 21.7323 39.9072 21.8028C39.5951 21.8732 39.303 22.0132 39.0526 22.2123C38.8022 22.4114 38.5999 22.6645 38.461 22.9527C38.322 23.2409 38.25 23.5567 38.2501 23.8766C38.2503 24.1965 38.3226 24.5123 38.4619 24.8003L24.2768 38.9854ZM8.50006 43.722C8.3122 43.722 8.13203 43.6474 7.99919 43.5146C7.86636 43.3817 7.79173 43.2016 7.79173 43.0137C7.79173 42.8258 7.86636 42.6457 7.99919 42.5128C8.13203 42.38 8.3122 42.3054 8.50006 42.3054C8.59452 42.3052 8.68801 42.3245 8.77475 42.3619C8.86149 42.3993 8.93965 42.454 9.0044 42.5228C9.06975 42.5867 9.12152 42.663 9.15658 42.7474C9.19163 42.8318 9.20926 42.9224 9.2084 43.0137C9.20821 43.2015 9.13352 43.3816 9.00072 43.5144C8.86792 43.6472 8.68787 43.7218 8.50006 43.722ZM16.4957 35.0046C16.4304 34.9407 16.3786 34.8644 16.3435 34.78C16.3085 34.6956 16.2909 34.6051 16.2917 34.5137C16.2917 34.3258 16.3664 34.1457 16.4992 34.0128C16.632 33.88 16.8122 33.8054 17.0001 33.8054C17.1879 33.8054 17.3681 33.88 17.5009 34.0128C17.6338 34.1457 17.7084 34.3258 17.7084 34.5137C17.7087 34.6082 17.6896 34.7018 17.6523 34.7887C17.615 34.8755 17.5604 34.9538 17.4916 35.0187C17.4253 35.0832 17.347 35.134 17.261 35.1682C17.1751 35.2024 17.0832 35.2193 16.9908 35.218C16.8983 35.2167 16.8069 35.1972 16.722 35.1605C16.6371 35.1239 16.5602 35.0709 16.4957 35.0046ZM23.3751 41.597C23.1873 41.5968 23.0072 41.5222 22.8744 41.3894C22.7416 41.2566 22.6669 41.0765 22.6667 40.8887C22.6665 40.7942 22.6855 40.7006 22.7228 40.6137C22.7601 40.5269 22.8148 40.4486 22.8835 40.3837C22.9476 40.3185 23.0241 40.2669 23.1086 40.232C23.193 40.1971 23.2837 40.1795 23.3751 40.1804C23.4695 40.1802 23.563 40.1995 23.6497 40.2369C23.7365 40.2743 23.8146 40.329 23.8794 40.3978C23.9448 40.4617 23.9965 40.538 24.0316 40.6224C24.0666 40.7068 24.0843 40.7974 24.0834 40.8887C24.0832 41.0765 24.0085 41.2566 23.8757 41.3894C23.7429 41.5222 23.5629 41.5968 23.3751 41.597ZM47.4584 30.2637C47.4584 30.4516 47.3838 30.6317 47.2509 30.7646C47.1181 30.8974 46.9379 30.972 46.7501 30.972C46.5622 30.972 46.382 30.8974 46.2492 30.7646C46.1164 30.6317 46.0417 30.4516 46.0417 30.2637C46.0415 30.1691 46.0607 30.0755 46.0981 29.9887C46.1355 29.9018 46.1904 29.8235 46.2592 29.7587C46.3232 29.6936 46.3996 29.642 46.484 29.6071C46.5683 29.5722 46.6588 29.5546 46.7501 29.5554C46.9379 29.5554 47.1181 29.63 47.2509 29.7628C47.3838 29.8957 47.4584 30.0758 47.4584 30.2637ZM40.3751 23.1804C40.5629 23.1804 40.7431 23.255 40.8759 23.3878C41.0088 23.5207 41.0834 23.7008 41.0834 23.8887C41.0836 23.9833 41.0644 24.0769 41.027 24.1637C40.9896 24.2506 40.9348 24.3289 40.8659 24.3937C40.7996 24.4582 40.7213 24.509 40.6353 24.5432C40.5494 24.5774 40.4575 24.5943 40.365 24.593C40.2726 24.5917 40.1812 24.5722 40.0963 24.5355C40.0114 24.4989 39.9345 24.4459 39.87 24.3796C39.8049 24.3156 39.7534 24.2392 39.7185 24.1548C39.6835 24.0705 39.6659 23.98 39.6667 23.8887C39.6667 23.7008 39.7414 23.5207 39.8742 23.3878C40.007 23.255 40.1872 23.1804 40.3751 23.1804ZM47.4584 33.8054C47.4584 33.6175 47.3838 33.4373 47.2509 33.3045C47.1181 33.1717 46.9379 33.097 46.7501 33.097C46.5622 33.097 46.382 33.1717 46.2492 33.3045C46.1164 33.4373 46.0417 33.6175 46.0417 33.8054V34.5137C46.0417 34.7016 46.1164 34.8817 46.2492 35.0146C46.382 35.1474 46.5622 35.222 46.7501 35.222C46.9379 35.222 47.1181 35.1474 47.2509 35.0146C47.3838 34.8817 47.4584 34.7016 47.4584 34.5137V33.8054ZM47.4584 41.1543C47.4584 40.9665 47.3838 40.7863 47.2509 40.6535C47.1181 40.5206 46.9379 40.446 46.7501 40.446C46.5622 40.446 46.382 40.5206 46.2492 40.6535C46.1164 40.7863 46.0417 40.9665 46.0417 41.1543V42.4825C46.0417 42.6703 46.1164 42.8505 46.2492 42.9833C46.382 43.1162 46.5622 43.1908 46.7501 43.1908C46.9379 43.1908 47.1181 43.1162 47.2509 42.9833C47.3838 42.8505 47.4584 42.6703 47.4584 42.4825V41.1543ZM47.4584 37.17C47.4584 36.9821 47.3838 36.8019 47.2509 36.6691C47.1181 36.5362 46.9379 36.4616 46.7501 36.4616C46.5622 36.4616 46.382 36.5362 46.2492 36.6691C46.1164 36.8019 46.0417 36.9821 46.0417 37.17V38.4981C46.0417 38.6859 46.1164 38.8661 46.2492 38.9989C46.382 39.1318 46.5622 39.2064 46.7501 39.2064C46.9379 39.2064 47.1181 39.1318 47.2509 38.9989C47.3838 38.8661 47.4584 38.6859 47.4584 38.4981V37.17ZM46.7501 44.4304C46.5622 44.4304 46.382 44.505 46.2492 44.6378C46.1164 44.7707 46.0417 44.9508 46.0417 45.1387V45.847C46.0417 46.0349 46.1164 46.2151 46.2492 46.3479C46.382 46.4807 46.5622 46.5554 46.7501 46.5554C46.9379 46.5554 47.1181 46.4807 47.2509 46.3479C47.3838 46.2151 47.4584 46.0349 47.4584 45.847V45.1387C47.4584 44.9508 47.3838 44.7707 47.2509 44.6378C47.1181 44.505 46.9379 44.4304 46.7501 44.4304Z" fill="url(#paint4_linear_139_1277)"/>
<path d="M41.0834 28.1386C41.0834 27.9508 41.0088 27.7706 40.8759 27.6378C40.7431 27.5049 40.5629 27.4303 40.3751 27.4303C40.1872 27.4303 40.0071 27.5049 39.8742 27.6378C39.7414 27.7706 39.6667 27.9508 39.6667 28.1386V28.847C39.6667 29.0348 39.7414 29.215 39.8742 29.3478C40.0071 29.4807 40.1872 29.5553 40.3751 29.5553C40.5629 29.5553 40.7431 29.4807 40.8759 29.3478C41.0088 29.215 41.0834 29.0348 41.0834 28.847V28.1386ZM41.0834 40.696C41.0834 40.5081 41.0088 40.3279 40.8759 40.1951C40.7431 40.0623 40.5629 39.9876 40.3751 39.9876C40.1872 39.9876 40.0071 40.0623 39.8742 40.1951C39.7414 40.3279 39.6667 40.5081 39.6667 40.696V42.1764C39.6667 42.3642 39.7414 42.5444 39.8742 42.6772C40.0071 42.8101 40.1872 42.8847 40.3751 42.8847C40.5629 42.8847 40.7431 42.8101 40.8759 42.6772C41.0088 42.5444 41.0834 42.3642 41.0834 42.1764V40.696ZM41.0834 31.8092C41.0834 31.6214 41.0088 31.4412 40.8759 31.3083C40.7431 31.1755 40.5629 31.1009 40.3751 31.1009C40.1872 31.1009 40.0071 31.1755 39.8742 31.3083C39.7414 31.4412 39.6667 31.6214 39.6667 31.8092V33.2896C39.6667 33.4775 39.7414 33.6577 39.8742 33.7905C40.0071 33.9233 40.1872 33.998 40.3751 33.998C40.5629 33.998 40.7431 33.9233 40.8759 33.7905C41.0088 33.6577 41.0834 33.4775 41.0834 33.2896V31.8092ZM41.0834 36.2519C41.0834 36.064 41.0088 35.8839 40.8759 35.751C40.7431 35.6182 40.5629 35.5435 40.3751 35.5435C40.1872 35.5435 40.0071 35.6182 39.8742 35.751C39.7414 35.8839 39.6667 36.064 39.6667 36.2519V37.7323C39.6667 37.9202 39.7414 38.1003 39.8742 38.2332C40.0071 38.366 40.1872 38.4406 40.3751 38.4406C40.5629 38.4406 40.7431 38.366 40.8759 38.2332C41.0088 38.1003 41.0834 37.9202 41.0834 37.7323V36.2519ZM40.3751 44.4303C40.1872 44.4303 40.0071 44.5049 39.8742 44.6378C39.7414 44.7706 39.6667 44.9508 39.6667 45.1386V45.847C39.6667 46.0348 39.7414 46.215 39.8742 46.3478C40.0071 46.4807 40.1872 46.5553 40.3751 46.5553C40.5629 46.5553 40.7431 46.4807 40.8759 46.3478C41.0088 46.215 41.0834 46.0348 41.0834 45.847V45.1386C41.0834 44.9508 41.0088 44.7706 40.8759 44.6378C40.7431 44.5049 40.5629 44.4303 40.3751 44.4303ZM22.6667 45.1386V45.847C22.6667 46.0348 22.7414 46.215 22.8742 46.3478C23.0071 46.4807 23.1872 46.5553 23.3751 46.5553C23.5629 46.5553 23.7431 46.4807 23.8759 46.3478C24.0088 46.215 24.0834 46.0348 24.0834 45.847V45.1386C24.0834 44.9508 24.0088 44.7706 23.8759 44.6378C23.7431 44.5049 23.5629 44.4303 23.3751 44.4303C23.1872 44.4303 23.0071 44.5049 22.8742 44.6378C22.7414 44.7706 22.6667 44.9508 22.6667 45.1386ZM17.7084 38.7636C17.7084 38.5758 17.6338 38.3956 17.5009 38.2628C17.3681 38.1299 17.1879 38.0553 17.0001 38.0553C16.8122 38.0553 16.6321 38.1299 16.4992 38.2628C16.3664 38.3956 16.2917 38.5758 16.2917 38.7636V39.472C16.2917 39.6598 16.3664 39.84 16.4992 39.9728C16.6321 40.1057 16.8122 40.1803 17.0001 40.1803C17.1879 40.1803 17.3681 40.1057 17.5009 39.9728C17.6338 39.84 17.7084 39.6598 17.7084 39.472V38.7636ZM17.7084 41.7386C17.7084 41.5508 17.6338 41.3706 17.5009 41.2378C17.3681 41.1049 17.1879 41.0303 17.0001 41.0303C16.8122 41.0303 16.6321 41.1049 16.4992 41.2378C16.3664 41.3706 16.2917 41.5508 16.2917 41.7386V42.872C16.2917 43.0598 16.3664 43.24 16.4992 43.3728C16.6321 43.5057 16.8122 43.5803 17.0001 43.5803C17.1879 43.5803 17.3681 43.5057 17.5009 43.3728C17.6338 43.24 17.7084 43.0598 17.7084 42.872V41.7386ZM17.0001 44.4303C16.8122 44.4303 16.6321 44.5049 16.4992 44.6378C16.3664 44.7706 16.2917 44.9508 16.2917 45.1386V45.847C16.2917 46.0348 16.3664 46.215 16.4992 46.3478C16.6321 46.4807 16.8122 46.5553 17.0001 46.5553C17.1879 46.5553 17.3681 46.4807 17.5009 46.3478C17.6338 46.215 17.7084 46.0348 17.7084 45.847V45.1386C17.7084 44.9508 17.6338 44.7706 17.5009 44.6378C17.3681 44.5049 17.1879 44.4303 17.0001 44.4303Z" fill="url(#paint5_linear_139_1277)"/>
<defs>
<linearGradient id="paint0_linear_139_1277" x1="4.94447" y1="4.6161" x2="8.96332" y2="13.0043" gradientUnits="userSpaceOnUse">
<stop stop-color="#221769"/>
<stop offset="1" stop-color="#432DCF"/>
</linearGradient>
<linearGradient id="paint1_linear_139_1277" x1="0.836614" y1="0.690755" x2="36.4058" y2="10.7232" gradientUnits="userSpaceOnUse">
<stop stop-color="#221769"/>
<stop offset="1" stop-color="#432DCF"/>
</linearGradient>
<linearGradient id="paint2_linear_139_1277" x1="5.98458" y1="9.84002" x2="16.7631" y2="12.8802" gradientUnits="userSpaceOnUse">
<stop stop-color="#221769"/>
<stop offset="1" stop-color="#432DCF"/>
</linearGradient>
<linearGradient id="paint3_linear_139_1277" x1="13.7961" y1="16.9242" x2="24.1094" y2="19.6877" gradientUnits="userSpaceOnUse">
<stop stop-color="#221769"/>
<stop offset="1" stop-color="#432DCF"/>
</linearGradient>
<linearGradient id="paint4_linear_139_1277" x1="5.16668" y1="20.7171" x2="33.4942" y2="34.4291" gradientUnits="userSpaceOnUse">
<stop stop-color="#221769"/>
<stop offset="1" stop-color="#432DCF"/>
</linearGradient>
<linearGradient id="paint5_linear_139_1277" x1="15.6085" y1="26.6334" x2="33.5704" y2="33.2007" gradientUnits="userSpaceOnUse">
<stop stop-color="#221769"/>
<stop offset="1" stop-color="#432DCF"/>
</linearGradient>
</defs>
</svg>
