<svg width="46" height="46" viewBox="0 0 46 46" fill="none" xmlns="http://www.w3.org/2000/svg">
<path d="M33.1304 22.4538C32.9324 21.9914 32.603 21.5972 32.1832 21.3201C31.7634 21.043 31.2715 20.8952 30.7685 20.8949C30.1178 20.8949 29.5231 21.1391 29.0706 21.5397C28.7426 21.0085 28.2227 20.6239 27.6187 20.4658C28.7277 19.7558 29.6558 18.797 30.3294 17.6656C31.0031 16.5342 31.4037 15.2613 31.4994 13.948H32.8201C32.9559 14.4117 33.2381 14.819 33.6244 15.1091C34.0107 15.3993 34.4805 15.5568 34.9637 15.558C36.1973 15.558 37.2009 14.5544 37.2009 13.3207C37.2009 12.0871 36.1973 11.0835 34.9637 11.0835C34.4805 11.0846 34.0106 11.242 33.6243 11.5322C33.2379 11.8224 32.9558 12.2297 32.8201 12.6935H31.4936C31.4118 11.5676 31.1043 10.4697 30.5895 9.46511H33.7225C33.8889 9.46511 34.0484 9.39902 34.1661 9.28138C34.2837 9.16375 34.3498 9.0042 34.3498 8.83783V6.66329C34.814 6.52959 35.2223 6.24896 35.5135 5.86352C35.8047 5.47808 35.963 5.00861 35.9648 4.52554C35.9648 3.29191 34.9612 2.28827 33.7275 2.28827C32.4897 2.28827 31.4827 3.29191 31.4827 4.52554C31.4848 5.00821 31.6432 5.47723 31.9342 5.86232C32.2252 6.24741 32.6331 6.52784 33.0969 6.66161V8.20972H29.8C28.2485 6.16231 25.7988 4.83081 23.038 4.83081C20.2821 4.83081 17.8366 6.16147 16.2885 8.20972H13.0342V6.66161C13.9634 6.38812 14.6484 5.53921 14.6484 4.52554C14.6466 3.93142 14.4093 3.36225 13.9885 2.94285C13.5677 2.52345 12.9977 2.28805 12.4036 2.28827C11.8104 2.28893 11.2418 2.52486 10.8223 2.94428C10.4029 3.36371 10.167 3.93238 10.1663 4.52554C10.168 5.0085 10.3263 5.47789 10.6173 5.86332C10.9083 6.24875 11.3165 6.52944 11.7805 6.66329V8.837C11.7805 9.18325 12.0615 9.46427 12.4078 9.46427H15.4998C14.9859 10.4691 14.679 11.5669 14.5974 12.6926H13.1822C13.0465 12.2288 12.7642 11.8213 12.3777 11.5311C11.9912 11.2409 11.5211 11.0836 11.0378 11.0826C9.80417 11.0826 8.80054 12.0863 8.80054 13.3199C8.80054 14.5535 9.80417 15.5572 11.0378 15.5572C11.5211 15.5561 11.9911 15.3987 12.3776 15.1086C12.7641 14.8184 13.0464 14.411 13.1822 13.9472H14.5915C14.7135 15.6341 15.3386 17.2457 16.386 18.5736C17.4334 19.9016 18.8549 20.885 20.467 21.3967V24.3365C20.1224 23.9417 19.6248 23.5645 18.8637 23.2342C17.574 22.6755 16.0443 22.9097 14.9445 23.8472C14.5851 24.1547 14.3598 24.5902 14.3162 25.0611C14.2727 25.5321 14.4143 26.0015 14.7111 26.3697C15.7332 27.6201 17.5631 30.1133 18.3317 32.767C19.0284 35.1733 20.5857 36.8711 21.8052 37.8948C21.4764 37.9248 21.1705 38.0763 20.9475 38.3197C20.7245 38.5632 20.6003 38.8811 20.5991 39.2112V42.3827C20.5991 43.1154 21.1954 43.7117 21.9281 43.7117H34.8014C35.5341 43.7117 36.1304 43.1154 36.1304 42.3827V39.2112C36.1304 38.5221 35.601 37.96 34.9285 37.8956C35.7866 37.1763 36.608 36.0456 37.0061 34.2541C37.1382 33.6586 37.2026 32.9929 37.2026 32.2192V24.5205C37.2026 22.3292 34.6994 21.303 33.1304 22.4538ZM32.7373 4.52554C32.7447 4.26888 32.852 4.02524 33.0361 3.84634C33.2203 3.66743 33.467 3.56736 33.7238 3.56736C33.9805 3.56736 34.2272 3.66743 34.4114 3.84634C34.5956 4.02524 34.7028 4.26888 34.7102 4.52554C34.7028 4.7822 34.5956 5.02585 34.4114 5.20475C34.2272 5.38365 33.9805 5.48372 33.7238 5.48372C33.467 5.48372 33.2203 5.38365 33.0361 5.20475C32.852 5.02585 32.7447 4.7822 32.7373 4.52554ZM11.42 4.52554C11.4275 4.26888 11.5347 4.02524 11.7189 3.84634C11.9031 3.66743 12.1497 3.56736 12.4065 3.56736C12.6633 3.56736 12.91 3.66743 13.0941 3.84634C13.2783 4.02524 13.3855 4.26888 13.393 4.52554C13.3855 4.7822 13.2783 5.02585 13.0941 5.20475C12.91 5.38365 12.6633 5.48372 12.4065 5.48372C12.1497 5.48372 11.9031 5.38365 11.7189 5.20475C11.5347 5.02585 11.4275 4.7822 11.42 4.52554ZM22.8272 12.5028C21.5517 12.6073 20.4661 13.7473 20.4661 15.1775V15.9737C20.1104 15.6298 19.828 15.2175 19.636 14.7615C19.444 14.3056 19.3463 13.8155 19.3488 13.3207C19.3488 11.2775 21.0073 9.61565 23.0455 9.61565C25.0837 9.61565 26.7422 11.2775 26.7422 13.3207C26.7444 13.8222 26.6438 14.3188 26.4468 14.78C26.2497 15.2412 25.9603 15.6571 25.5964 16.0021V15.0612C25.5964 13.5457 24.3084 12.3982 22.8272 12.5028ZM34.9653 12.3372C35.219 12.3476 35.4587 12.4558 35.6345 12.6389C35.8102 12.8221 35.9083 13.0661 35.9083 13.3199C35.9083 13.5737 35.8102 13.8177 35.6345 14.0009C35.4587 14.1841 35.219 14.2922 34.9653 14.3026C34.4192 14.3026 33.9751 13.8619 33.9751 13.3199C33.9751 12.7779 34.4192 12.3372 34.9653 12.3372ZM11.037 14.3026C10.7834 14.2922 10.5436 14.1841 10.3678 14.0009C10.1921 13.8177 10.094 13.5737 10.094 13.3199C10.094 13.0661 10.1921 12.8221 10.3678 12.6389C10.5436 12.4558 10.7834 12.3476 11.037 12.3372C11.5831 12.3372 12.0281 12.7779 12.0281 13.3199C12.0281 13.8619 11.584 14.3026 11.037 14.3026ZM15.8193 13.3207C15.8193 9.33129 19.0577 6.0862 23.0371 6.0862C27.0266 6.0862 30.2717 9.33129 30.2717 13.3207C30.2734 14.7903 29.8268 16.2254 28.9914 17.4344C28.156 18.6435 26.9716 19.5688 25.5964 20.0869V17.5511C26.33 17.1158 26.9374 16.4966 27.3584 15.7547C27.7794 15.0127 27.9994 14.1738 27.9968 13.3207C27.9968 10.5858 25.7754 8.36111 23.0455 8.36111C20.3156 8.36111 18.0942 10.5858 18.0942 13.3207C18.0911 14.168 18.308 15.0015 18.7238 15.7397C19.1396 16.4779 19.74 17.0954 20.4661 17.5318V20.0761C19.0975 19.5548 17.9198 18.6293 17.0898 17.4227C16.2597 16.216 15.8166 14.7853 15.8193 13.3207ZM34.875 42.3827C34.8748 42.4024 34.8669 42.4212 34.853 42.4351C34.8391 42.449 34.8202 42.4569 34.8006 42.4571H21.9273C21.9076 42.4569 21.8888 42.449 21.8749 42.4351C21.861 42.4212 21.853 42.4024 21.8528 42.3827V39.2112C21.853 39.1915 21.861 39.1727 21.8749 39.1588C21.8888 39.1449 21.9076 39.137 21.9273 39.1368H34.8006C34.8202 39.137 34.8391 39.1449 34.853 39.1588C34.8669 39.1727 34.8748 39.1915 34.875 39.2112V42.3827ZM35.9481 32.2192C35.9481 32.9 35.8937 33.4763 35.7816 33.9814C34.9653 37.6514 32.1443 37.8739 32.0606 37.8806H23.927C23.2905 37.4975 20.4703 35.6475 19.5361 32.4183C18.7056 29.5487 16.7652 26.8991 15.6821 25.5751C15.4931 25.3451 15.5274 24.9981 15.7783 24.7839C16.1299 24.4841 16.558 24.288 17.0147 24.2175C17.4714 24.1471 17.9387 24.2051 18.3644 24.385C19.6239 24.9311 19.8213 25.5174 20.094 26.3287C20.206 26.6607 20.3332 27.0379 20.5397 27.4277C20.6057 27.5509 20.711 27.6486 20.8388 27.7053C20.9666 27.7619 21.1096 27.7744 21.2452 27.7406C21.3809 27.7068 21.5014 27.6287 21.5877 27.5187C21.6739 27.4087 21.721 27.2731 21.7215 27.1333L21.7249 15.1766C21.7249 14.4222 22.2953 13.8025 22.9242 13.754C23.6636 13.6954 24.341 14.2792 24.341 15.057V26.772C24.341 26.9383 24.4071 27.0979 24.5247 27.2155C24.6424 27.3332 24.8019 27.3993 24.9683 27.3993C25.1346 27.3993 25.2942 27.3332 25.4118 27.2155C25.5295 27.0979 25.5956 26.9383 25.5956 26.772V22.9038C25.5956 22.1837 26.1818 21.5974 26.902 21.5974C27.0739 21.5961 27.2444 21.6289 27.4035 21.6941C27.5626 21.7593 27.7071 21.8555 27.8287 21.9771C27.9503 22.0986 28.0465 22.2432 28.1116 22.4023C28.1768 22.5614 28.2097 22.7319 28.2084 22.9038L28.2075 26.772C28.2075 26.9383 28.2736 27.0979 28.3912 27.2155C28.5089 27.3332 28.6684 27.3993 28.8348 27.3993C29.0012 27.3993 29.1607 27.3332 29.2783 27.2155C29.396 27.0979 29.4621 26.9383 29.4621 26.772V23.4617L29.4629 23.4558C29.4629 22.7357 30.0492 22.1494 30.7701 22.1494C31.1171 22.1496 31.4499 22.2871 31.6957 22.5319C31.9416 22.7767 32.0806 23.1088 32.0824 23.4558V26.772C32.0824 26.9383 32.1485 27.0979 32.2661 27.2155C32.3838 27.3332 32.5433 27.3993 32.7097 27.3993C32.876 27.3993 33.0356 27.3332 33.1532 27.2155C33.2708 27.0979 33.3369 26.9383 33.3369 26.772V24.5205C33.3369 23.8004 33.9232 23.2133 34.6433 23.2133C35.3818 23.2133 35.9497 23.8104 35.9497 24.5205V32.2192H35.9481Z" fill="url(#paint0_linear_2_2198)"/>
<defs>
<linearGradient id="paint0_linear_2_2198" x1="8.0178" y1="0.562293" x2="30.5053" y2="4.91117" gradientUnits="userSpaceOnUse">
<stop stop-color="#221769"/>
<stop offset="1" stop-color="#432DCF"/>
</linearGradient>
</defs>
</svg>
