<svg width="45" height="46" viewBox="0 0 45 46" fill="none" xmlns="http://www.w3.org/2000/svg">
<path d="M30.2344 32.1543C32.5985 32.1543 34.9095 31.4533 36.8752 30.1398C38.8409 28.8264 40.3729 26.9596 41.2776 24.7754C42.1823 22.5913 42.419 20.1879 41.9578 17.8692C41.4966 15.5506 40.3582 13.4207 38.6865 11.749C37.0148 10.0774 34.885 8.93894 32.5663 8.47773C30.2476 8.01651 27.8443 8.25323 25.6601 9.15793C23.476 10.0626 21.6091 11.5947 20.2957 13.5604C18.9823 15.5261 18.2813 17.8371 18.2812 20.2012C18.2879 23.3693 19.5494 26.4057 21.7896 28.6459C24.0298 30.8861 27.0663 32.1476 30.2344 32.1543ZM32.3438 17.3887H28.125V15.9824C28.125 15.423 28.3472 14.8865 28.7428 14.4909C29.1384 14.0953 29.6749 13.8731 30.2344 13.8731C30.7938 13.8731 31.3303 14.0953 31.7259 14.4909C32.1215 14.8865 32.3438 15.423 32.3438 15.9824V17.3887ZM27.4219 18.7949H35.2786C35.4542 18.7943 35.6237 18.8597 35.7533 18.9783C35.8829 19.0968 35.9632 19.2598 35.9782 19.4348L36.7973 28.4432C34.9353 29.9352 32.6205 30.7483 30.2344 30.7483C27.8483 30.7483 25.5334 29.9352 23.6714 28.4432L24.4905 19.4348C24.5056 19.2598 24.5858 19.0968 24.7154 18.9783C24.8451 18.8597 25.0145 18.7943 25.1902 18.7949H27.4219ZM30.2344 9.6543C32.2689 9.65084 34.2608 10.2369 35.9693 11.3415C37.6778 12.4462 39.0297 14.0222 39.8614 15.8789C40.6932 17.7356 40.9693 19.7935 40.6562 21.8038C40.3431 23.814 39.4544 25.6906 38.0974 27.2064L37.3781 19.3068C37.3328 18.7819 37.0917 18.2933 36.7027 17.938C36.3138 17.5826 35.8054 17.3865 35.2786 17.3887H33.75V15.9824C33.75 15.05 33.3796 14.1558 32.7203 13.4965C32.061 12.8372 31.1668 12.4668 30.2344 12.4668C29.302 12.4668 28.4078 12.8372 27.7485 13.4965C27.0891 14.1558 26.7188 15.05 26.7188 15.9824V17.3887H25.1902C24.6632 17.3864 24.1547 17.5824 23.7656 17.9377C23.3765 18.2931 23.1353 18.7818 23.0899 19.3068L22.3713 27.2064C21.0144 25.6906 20.1256 23.814 19.8126 21.8038C19.4995 19.7935 19.7755 17.7356 20.6073 15.8789C21.4391 14.0222 22.791 12.4462 24.4995 11.3415C26.2079 10.2369 28.1999 9.65084 30.2344 9.6543Z" fill="url(#paint0_linear_139_1362)"/>
<path d="M30.2344 25.123C31.1664 25.1219 32.06 24.7512 32.7191 24.0921C33.3781 23.433 33.7489 22.5395 33.75 21.6074V20.9043C33.75 20.7178 33.6759 20.539 33.5441 20.4071C33.4122 20.2753 33.2334 20.2012 33.0469 20.2012C32.8604 20.2012 32.6816 20.2753 32.5497 20.4071C32.4178 20.539 32.3438 20.7178 32.3438 20.9043V21.6074C32.3438 22.1669 32.1215 22.7034 31.7259 23.099C31.3303 23.4946 30.7938 23.7168 30.2344 23.7168C29.6749 23.7168 29.1384 23.4946 28.7428 23.099C28.3472 22.7034 28.125 22.1669 28.125 21.6074V20.9043C28.125 20.7178 28.0509 20.539 27.9191 20.4071C27.7872 20.2753 27.6084 20.2012 27.4219 20.2012C27.2354 20.2012 27.0566 20.2753 26.9247 20.4071C26.7928 20.539 26.7188 20.7178 26.7188 20.9043V21.6074C26.7199 22.5395 27.0906 23.433 27.7497 24.0921C28.4088 24.7512 29.3023 25.1219 30.2344 25.123Z" fill="url(#paint1_linear_139_1362)"/>
<path d="M11.25 20.9044C11.2501 21.0098 11.2738 21.1139 11.3194 21.2089C11.3651 21.304 11.4314 21.3876 11.5137 21.4535L16.4201 25.3777C17.6672 28.6888 20.0633 31.441 23.1712 33.1322C26.279 34.8233 29.8914 35.3406 33.3489 34.5895C36.8065 33.8385 39.8787 31.8692 42.0049 29.0412C44.1311 26.2131 45.1695 22.7148 44.9305 19.1847C44.6916 15.6546 43.1914 12.3281 40.7035 9.81227C38.2157 7.29647 34.9061 5.75911 31.3789 5.48078C27.8517 5.20244 24.342 6.20169 21.4904 8.29615C18.6387 10.3906 16.6353 13.4406 15.8456 16.8896L11.5137 20.3553C11.4314 20.4212 11.365 20.5048 11.3193 20.5998C11.2737 20.6949 11.25 20.799 11.25 20.9044ZM16.9186 17.8332C17.0456 17.7311 17.1333 17.5883 17.1668 17.4289C17.8299 14.2673 19.6141 11.4523 22.1901 9.50317C24.7662 7.55405 27.9603 6.60239 31.183 6.82378C34.4058 7.04517 37.4397 8.42466 39.725 10.7077C42.0103 12.9908 43.3928 16.0234 43.6174 19.2459C43.8419 22.4684 42.8934 25.6634 40.9468 28.2414C39.0002 30.8194 36.187 32.6063 33.0261 33.2725C29.8652 33.9388 26.57 33.4393 23.7485 31.8663C20.927 30.2933 18.7697 27.753 17.6745 24.7139C17.6302 24.5916 17.5531 24.4838 17.4516 24.4025L13.0781 20.9044L16.9186 17.8332Z" fill="url(#paint2_linear_139_1362)"/>
<path d="M44.2969 43.4043H40.0781C39.5189 43.4037 38.9827 43.1813 38.5872 42.7859C38.1917 42.3904 37.9693 41.8542 37.9688 41.2949C37.9688 40.3625 37.5984 39.4683 36.939 38.809C36.2797 38.1497 35.3855 37.7793 34.4531 37.7793C33.5207 37.7793 32.6265 38.1497 31.9672 38.809C31.3079 39.4683 30.9375 40.3625 30.9375 41.2949C30.9375 41.8544 30.7153 42.3909 30.3197 42.7865C29.9241 43.1821 29.3876 43.4043 28.8281 43.4043C28.2687 43.4043 27.7322 43.1821 27.3366 42.7865C26.941 42.3909 26.7188 41.8544 26.7188 41.2949C26.7188 40.3625 26.3484 39.4683 25.689 38.809C25.0297 38.1497 24.1355 37.7793 23.2031 37.7793C22.2707 37.7793 21.3765 38.1497 20.7172 38.809C20.0579 39.4683 19.6875 40.3625 19.6875 41.2949C19.6869 41.8542 19.4645 42.3904 19.0691 42.7859C18.6736 43.1813 18.1374 43.4037 17.5781 43.4043H7.73438C7.17511 43.4037 6.6389 43.1813 6.24344 42.7859C5.84797 42.3904 5.62556 41.8542 5.625 41.2949V38.4803C6.73841 38.9465 7.93354 39.1863 9.14062 39.1855H12.6562C13.2155 39.185 13.7517 38.9626 14.1472 38.5671C14.5427 38.1716 14.7651 37.6354 14.7656 37.0762V31.4512C14.7651 30.8919 14.5427 30.3557 14.1472 29.9602C13.7517 29.5648 13.2155 29.3424 12.6562 29.3418H9.14062C8.95414 29.3418 8.7753 29.2677 8.64344 29.1359C8.51158 29.004 8.4375 28.8252 8.4375 28.6387V11.7637C8.4375 11.5772 8.51158 11.3983 8.64344 11.2665C8.7753 11.1346 8.95414 11.0605 9.14062 11.0605H12.6562C13.2155 11.06 13.7517 10.8376 14.1472 10.4421C14.5427 10.0466 14.7651 9.51044 14.7656 8.95117V3.32617C14.7651 2.7669 14.5427 2.2307 14.1472 1.83524C13.7517 1.43977 13.2155 1.21736 12.6562 1.2168H9.14062C6.71724 1.21959 4.39391 2.18351 2.68031 3.89711C0.966715 5.6107 0.00279139 7.93403 0 10.3574L0 30.0449C0.00147778 31.5778 0.38868 33.0856 1.12593 34.4295C1.86319 35.7734 2.92679 36.9101 4.21875 37.735V41.2949C4.21987 42.227 4.59062 43.1205 5.24969 43.7796C5.90875 44.4387 6.80232 44.8094 7.73438 44.8105H17.5781C18.5102 44.8094 19.4037 44.4387 20.0628 43.7796C20.7219 43.1205 21.0926 42.227 21.0938 41.2949C21.0938 40.7355 21.316 40.199 21.7116 39.8034C22.1072 39.4078 22.6437 39.1855 23.2031 39.1855C23.7626 39.1855 24.2991 39.4078 24.6947 39.8034C25.0903 40.199 25.3125 40.7355 25.3125 41.2949C25.3125 42.2273 25.6829 43.1215 26.3422 43.7808C27.0015 44.4402 27.8957 44.8105 28.8281 44.8105C29.7605 44.8105 30.6547 44.4402 31.314 43.7808C31.9734 43.1215 32.3438 42.2273 32.3438 41.2949C32.3438 40.7355 32.566 40.199 32.9616 39.8034C33.3572 39.4078 33.8937 39.1855 34.4531 39.1855C35.0126 39.1855 35.5491 39.4078 35.9447 39.8034C36.3403 40.199 36.5625 40.7355 36.5625 41.2949C36.5636 42.227 36.9344 43.1205 37.5934 43.7796C38.2525 44.4387 39.1461 44.8094 40.0781 44.8105H44.2969C44.4834 44.8105 44.6622 44.7365 44.7941 44.6046C44.9259 44.4727 45 44.2939 45 44.1074C45 43.9209 44.9259 43.7421 44.7941 43.6102C44.6622 43.4784 44.4834 43.4043 44.2969 43.4043ZM1.40625 30.0449V10.3574C1.40848 8.30682 2.22407 6.34085 3.67406 4.89086C5.12406 3.44087 7.09003 2.62528 9.14062 2.62305H9.84375V8.24805C9.84375 8.43453 9.91783 8.61337 10.0497 8.74523C10.1816 8.87709 10.3604 8.95117 10.5469 8.95117C10.7334 8.95117 10.9122 8.87709 11.0441 8.74523C11.1759 8.61337 11.25 8.43453 11.25 8.24805V2.62305H12.6562C12.8427 2.62305 13.0216 2.69713 13.1534 2.82899C13.2853 2.96085 13.3594 3.13969 13.3594 3.32617V8.95117C13.3594 9.13765 13.2853 9.31649 13.1534 9.44836C13.0216 9.58022 12.8427 9.6543 12.6562 9.6543H9.14062C8.58136 9.65486 8.04515 9.87727 7.64969 10.2727C7.25422 10.6682 7.03181 11.2044 7.03125 11.7637V28.6387C7.03181 29.1979 7.25422 29.7341 7.64969 30.1296C8.04515 30.5251 8.58136 30.7475 9.14062 30.748H12.6562C12.8427 30.748 13.0216 30.8221 13.1534 30.954C13.2853 31.0858 13.3594 31.2647 13.3594 31.4512V37.0762C13.3594 37.2627 13.2853 37.4415 13.1534 37.5734C13.0216 37.7052 12.8427 37.7793 12.6562 37.7793H11.25V32.1543C11.25 31.9678 11.1759 31.789 11.0441 31.6571C10.9122 31.5252 10.7334 31.4512 10.5469 31.4512C10.3604 31.4512 10.1816 31.5252 10.0497 31.6571C9.91783 31.789 9.84375 31.9678 9.84375 32.1543V37.7793H9.14062C7.09003 37.7771 5.12406 36.9615 3.67406 35.5115C2.22407 34.0615 1.40848 32.0955 1.40625 30.0449Z" fill="url(#paint3_linear_139_1362)"/>
<defs>
<linearGradient id="paint0_linear_139_1362" x1="17.6224" y1="7.25195" x2="35.8112" y2="12.3822" gradientUnits="userSpaceOnUse">
<stop stop-color="#221769"/>
<stop offset="1" stop-color="#432DCF"/>
</linearGradient>
<linearGradient id="paint1_linear_139_1362" x1="26.525" y1="19.9961" x2="31.4935" y2="21.9981" gradientUnits="userSpaceOnUse">
<stop stop-color="#221769"/>
<stop offset="1" stop-color="#432DCF"/>
</linearGradient>
<linearGradient id="paint2_linear_139_1362" x1="10.3209" y1="4.20629" x2="35.4045" y2="12.2945" gradientUnits="userSpaceOnUse">
<stop stop-color="#221769"/>
<stop offset="1" stop-color="#432DCF"/>
</linearGradient>
<linearGradient id="paint3_linear_139_1362" x1="-1.24016" y1="-0.59961" x2="32.8329" y2="9.32086" gradientUnits="userSpaceOnUse">
<stop stop-color="#221769"/>
<stop offset="1" stop-color="#432DCF"/>
</linearGradient>
</defs>
</svg>
