<svg width="48" height="43" viewBox="0 0 48 43" fill="none" xmlns="http://www.w3.org/2000/svg">
<path d="M1.14941 37.4158H3.06191H1.14941ZM6.82535 37.4158H11.8718H6.82535ZM4.78316 37.4158H5.14053H4.78316Z" fill="black"/>
<path d="M1.14941 37.4158H3.06191M6.82535 37.4158H11.8718M4.78316 37.4158H5.14053" stroke="url(#paint0_linear_139_1344)" stroke-width="1.09286" stroke-miterlimit="10" stroke-linecap="round" stroke-linejoin="round"/>
<path d="M27.9929 21.83C27.9929 21.83 26.6483 21.1091 25.001 21.1091C22.584 21.1091 22.4616 22.6332 22.4616 23.0165C22.4616 25.1126 27.8975 25.9158 27.8975 30.8246C27.8975 34.686 25.4608 37.1726 22.1735 37.1726C18.2304 37.1726 16.2126 34.706 16.2126 34.706L17.2691 31.2005C17.2691 31.2005 19.3422 32.9891 21.0919 32.9891C22.2339 32.9891 22.6991 32.085 22.6991 31.4238C22.6991 28.6902 18.2395 28.5678 18.2395 24.0762C18.2395 20.296 20.9396 16.6367 26.3904 16.6367C28.4902 16.6367 29.5287 17.2414 29.5287 17.2414L27.9929 21.83Z" fill="white"/>
<path d="M30.1779 2.47582C30.1167 2.47582 30.0519 2.47873 29.9892 2.48238C29.3546 1.64015 28.5692 1.27295 27.8902 1.27295C22.7162 1.27295 20.2325 7.74886 19.4446 11.0773L21.0489 10.5801C21.9374 7.55615 24.0302 2.67326 27.7463 2.67326C27.9725 2.67326 28.1973 2.75086 28.4137 2.90021C26.7522 3.68488 24.9744 5.6615 24.2171 9.59979L25.8108 9.10728C26.5849 6.12815 28.0279 4.68667 29.2909 4.14243C29.6089 4.94713 29.818 6.10192 29.818 7.65924C29.818 7.73101 29.818 7.79804 29.8173 7.86543L31.1797 7.44431L31.1804 7.04032C31.1804 5.75038 31.0019 4.71071 30.7159 3.88634C31.8616 4.03023 32.6263 5.33838 33.118 6.8447L34.3894 6.45054C33.6699 4.37776 32.4026 2.47582 30.1779 2.47582Z" fill="url(#paint1_linear_139_1344)"/>
<path d="M30.1779 2.47582C30.1167 2.47582 30.0519 2.47873 29.9892 2.48238C29.3546 1.64015 28.5692 1.27295 27.8902 1.27295C22.7162 1.27295 20.2325 7.74886 19.4446 11.0773L21.0489 10.5801C21.9374 7.55615 24.0302 2.67326 27.7463 2.67326C27.9725 2.67326 28.1973 2.75086 28.4137 2.90021C26.7522 3.68488 24.9744 5.6615 24.2171 9.59979L25.8108 9.10728C26.5849 6.12815 28.0279 4.68667 29.2909 4.14243C29.6089 4.94713 29.818 6.10192 29.818 7.65924C29.818 7.73101 29.818 7.79804 29.8173 7.86543L31.1797 7.44431L31.1804 7.04032C31.1804 5.75038 31.0019 4.71071 30.7159 3.88634C31.8616 4.03023 32.6263 5.33838 33.118 6.8447L34.3894 6.45054C33.6699 4.37776 32.4026 2.47582 30.1779 2.47582Z" stroke="url(#paint2_linear_139_1344)" stroke-width="1.09286" stroke-miterlimit="1" stroke-linecap="round" stroke-linejoin="round"/>
<path d="M42.1011 8.82678C41.9554 8.8133 38.8597 8.58344 38.8597 8.58344C38.8597 8.58344 36.7089 6.43816 36.4732 6.20137C36.2364 5.96386 35.776 6.03635 35.5968 6.08953C35.5713 6.09682 35.1272 6.23452 34.3935 6.46147C33.6741 4.38468 32.4071 2.47582 30.178 2.47582C30.1168 2.47582 30.052 2.47873 29.9893 2.48238C29.3547 1.64015 28.5693 1.27295 27.8903 1.27295C22.6956 1.27295 20.2133 7.80095 19.4349 11.1163C18.2228 11.4931 17.0111 11.8708 15.7997 12.2496C14.6718 12.6055 14.6365 12.6401 14.489 13.7067C14.3764 14.5158 11.429 37.4294 11.429 37.4294L34.4015 41.7546L46.8499 39.0479C46.8499 39.0479 42.4814 9.35936 42.4537 9.155C42.4257 8.95209 42.2486 8.8388 42.1011 8.82678ZM29.8188 7.65924L29.8181 7.88546C28.5522 8.27889 27.1799 8.70656 25.8033 9.13569C26.576 6.13762 28.024 4.68886 29.2917 4.14243C29.6094 4.94677 29.8188 6.10156 29.8188 7.65924ZM27.7468 2.6729C27.973 2.6729 28.1978 2.75049 28.4141 2.89985C26.7486 3.68671 24.9647 5.66988 24.2114 9.6293C23.1101 9.97209 22.0333 10.3087 21.0374 10.6183C21.9204 7.59658 24.0165 2.6729 27.7468 2.6729ZM28.6425 20.3273C28.6425 20.3273 27.298 19.6064 25.6499 19.6064C23.2329 19.6064 23.1112 21.1305 23.1112 21.513C23.1112 23.6099 28.5464 24.4131 28.5464 29.3219C28.5464 33.1833 26.1097 35.6692 22.8224 35.6692C18.8793 35.6692 16.8623 33.203 16.8623 33.203L17.918 29.6974C17.918 29.6974 19.9911 31.4861 21.7415 31.4861C22.8828 31.4861 23.3487 30.5812 23.3487 29.9207C23.3487 27.1871 18.8884 27.064 18.8884 22.5724C18.8884 18.7929 21.5892 15.1337 27.0401 15.1337C29.1391 15.1337 30.1776 15.7384 30.1776 15.7384L28.6425 20.3273ZM31.1805 7.46216L31.1813 7.04032C31.1813 5.75038 31.0028 4.71071 30.7168 3.88633C31.8657 4.03059 32.6315 5.34566 33.1236 6.85745L31.1805 7.46216Z" stroke="url(#paint3_linear_139_1344)" stroke-width="1.09286" stroke-miterlimit="1" stroke-linecap="round" stroke-linejoin="round"/>
<defs>
<linearGradient id="paint0_linear_139_1344" x1="0.853915" y1="37.3741" x2="1.72191" y2="39.9992" gradientUnits="userSpaceOnUse">
<stop stop-color="#221769"/>
<stop offset="1" stop-color="#432DCF"/>
</linearGradient>
<linearGradient id="paint1_linear_139_1344" x1="19.0327" y1="0.864433" x2="29.3929" y2="5.31862" gradientUnits="userSpaceOnUse">
<stop stop-color="#221769"/>
<stop offset="1" stop-color="#432DCF"/>
</linearGradient>
<linearGradient id="paint2_linear_139_1344" x1="19.0327" y1="0.864433" x2="29.3929" y2="5.31862" gradientUnits="userSpaceOnUse">
<stop stop-color="#221769"/>
<stop offset="1" stop-color="#432DCF"/>
</linearGradient>
<linearGradient id="paint3_linear_139_1344" x1="10.4528" y1="-0.413785" x2="37.8761" y2="6.35412" gradientUnits="userSpaceOnUse">
<stop stop-color="#221769"/>
<stop offset="1" stop-color="#432DCF"/>
</linearGradient>
</defs>
</svg>
